{
.appVersion = "1143";
classes = (
{
automatic = 1;

glyphs = (
{
glyphname = A;
lastChange = "2018-05-25 05:58:14 +0000";
layers = (
{
anchors = (
{
name = btm;
position = "{298, 0}";
},
{
name = top;
position = "{291, 830}";
}
);
layerId = "B61D43DE-5272-4FF4-A680-608B6BF5ED9E";
paths = (
{
closed = 1;
nodes = (
"287 716 LINE",
"-8 0 LINE",
"135 0 LINE",
"275 388 LINE",
"308 503 LINE",
"273 503 LINE",
"308 388 LINE",
"454 0 LINE",
"593 0 LINE",
"297 716 LINE"
);
},
{
closed = 1;
nodes = (
"448 104 LINE",
"443 198 LINE",
"144 198 LINE",
"140 104 LINE"
);
}
);
width = 585;
}
);
leftKerningGroup = A;
rightKerningGroup = A;
unicode = 0041;
userData = {
com.typemytype.robofont.mark = (
0.656,
1,
0.6,
1
);
};
},
{
glyphname = Aogonek;
lastChange = "2018-05-24 19:23:14 +0000";
layers = (
{
components = (
{
name = A;
}
);
layerId = "B61D43DE-5272-4FF4-A680-608B6BF5ED9E";
paths = (
{
closed = 1;
nodes = (
"351 -198 OFFCURVE",
"396 -240 OFFCURVE",
"501 -240 CURVE SMOOTH",
"557 -240 OFFCURVE",
"599 -224 OFFCURVE",
"611 -203 CURVE",
"585 -278 LINE",
"585 -68 LINE",
"631 -99 LINE",
"595 -140 OFFCURVE",
"550 -149 OFFCURVE",
"517 -149 CURVE SMOOTH",
"478 -149 OFFCURVE",
"455 -135 OFFCURVE",
"455 -101 CURVE SMOOTH",
"455 -58 OFFCURVE",
"515 -17 OFFCURVE",
"585 0 CURVE",
"532 33 LINE",
"475 6 LINE",
"380 -18 OFFCURVE",
"353 -77 OFFCURVE",
"352 -126 CURVE"
);
}
);
width = 586;
}
);
leftKerningGroup = A;
rightKerningGroup = A;
unicode = 0104;
userData = {
com.typemytype.robofont.mark = (
0.6,
0.986,
1,
1
);
};
},
{
glyphname = Aring;
lastChange = "2018-05-24 19:23:14 +0000";
layers = (
{
components = (
{
name = A;
}
);
layerId = "B61D43DE-5272-4FF4-A680-608B6BF5ED9E";
paths = (
{
closed = 1;
nodes = (
"371 671 OFFCURVE",
"434 725 OFFCURVE",
"434 802 CURVE SMOOTH",
"434 878 OFFCURVE",
"371 933 OFFCURVE",
"297 933 CURVE SMOOTH",
"223 933 OFFCURVE",
"160 880 OFFCURVE",
"160 802 CURVE SMOOTH",
"160 725 OFFCURVE",
"223 671 OFFCURVE",
"297 671 CURVE SMOOTH"
);
},
{
closed = 1;
nodes = (
"263 735 OFFCURVE",
"233 757 OFFCURVE",
"233 803 CURVE SMOOTH",
"233 852 OFFCURVE",
"263 870 OFFCURVE",
"297 870 CURVE SMOOTH",
"331 870 OFFCURVE",
"361 851 OFFCURVE",
"361 803 CURVE SMOOTH",
"361 757 OFFCURVE",
"331 735 OFFCURVE",
"297 735 CURVE SMOOTH"
);
}
);
width = 586;
}
);
leftKerningGroup = A;
rightKerningGroup = A;
unicode = 00C5;
userData = {
com.typemytype.robofont.mark = (
0.656,
1,
0.6,
1
);
};
},
{
glyphname = Aringacute;
lastChange = "2018-05-24 19:23:14 +0000";
layers = (
{
anchors = (
{
name = _top;
position = "{297, 850}";
},
{
name = top;
position = "{317, 1023}";
}
);
components = (
{
name = A;
}
);
layerId = "B61D43DE-5272-4FF4-A680-608B6BF5ED9E";
paths = (
{
closed = 1;
nodes = (
"371 674 OFFCURVE",
"435 728 OFFCURVE",
"435 805 CURVE SMOOTH",
"435 880 OFFCURVE",
"371 935 OFFCURVE",
"297 935 CURVE SMOOTH",
"223 935 OFFCURVE",
"160 882 OFFCURVE",
"160 805 CURVE SMOOTH",
"160 728 OFFCURVE",
"223 674 OFFCURVE",
"297 674 CURVE SMOOTH"
);
},
{
closed = 1;
nodes = (
"264 737 OFFCURVE",
"233 759 OFFCURVE",
"233 805 CURVE SMOOTH",
"233 854 OFFCURVE",
"264 873 OFFCURVE",
"297 873 CURVE SMOOTH",
"331 873 OFFCURVE",
"362 854 OFFCURVE",
"362 805 CURVE SMOOTH",
"362 759 OFFCURVE",
"331 737 OFFCURVE",
"297 737 CURVE SMOOTH"
);
},
{
closed = 1;
nodes = (
"346 894 LINE",
"449 1058 LINE",
"348 1058 LINE",
"268 894 LINE"
);
}
);
width = 586;
}
);
leftKerningGroup = A;
rightKerningGroup = A;
unicode = 01FA;
userData = {
com.typemytype.robofont.mark = (
0.6,
0.609,
1,
1
);
};
},
{
glyphname = AE;
lastChange = "2018-05-24 19:23:14 +0000";
layers = (
{
anchors = (
{
name = btm;
position = "{263, 0}";
},
{
name = top;
position = "{538, 830}";
}
);
layerId = "B61D43DE-5272-4FF4-A680-608B6BF5ED9E";
paths = (
{
closed = 1;
nodes = (
"147 0 LINE",
"360 414 LINE",
"417 540 LINE",
"431 697 LINE",
"394 697 LINE",
"5 0 LINE"
);
},
{
closed = 1;
nodes = (
"484 157 LINE",
"484 250 LINE",
"188 250 LINE",
"146 157 LINE"
);
},
{
closed = 1;
nodes = (
"798 0 LINE",
"798 110 LINE",
"520 110 LINE",
"536 91 LINE",
"536 336 LINE",
"518 319 LINE",
"729 319 LINE",
"729 425 LINE",
"518 425 LINE",
"536 408 LINE",
"536 605 LINE",
"520 591 LINE",
"778 591 LINE",
"778 697 LINE",
"414 697 LINE",
"414 0 LINE"
);
}
);
width = 839;
}
);
leftKerningGroup = A;
rightKerningGroup = E;
rightMetricsKey = E;
unicode = 00C6;
userData = {
com.typemytype.robofont.mark = (
0.656,
1,
0.6,
1
);
};
},
{
glyphname = B;
lastChange = "2018-05-25 05:42:44 +0000";
layers = (
{
anchors = (
{
name = top;
position = "{308, 830}";
}
);
layerId = "B61D43DE-5272-4FF4-A680-608B6BF5ED9E";
paths = (
{
closed = 1;
nodes = (
"273 0 LINE",
"461 0 OFFCURVE",
"540 78 OFFCURVE",
"540 201 CURVE SMOOTH",
"540 309 OFFCURVE",
"485 375 OFFCURVE",
"365 375 CURVE",
"353 354 LINE",
"463 354 OFFCURVE",
"505 441 OFFCURVE",
"505 511 CURVE SMOOTH",
"505 629 OFFCURVE",
"434 697 OFFCURVE",
"270 697 CURVE",
"84 697 LINE",
"84 0 LINE"
);
},
{
closed = 1;
nodes = (
"210 614 LINE",
"192 598 LINE",
"270 598 LINE SMOOTH",
"327 598 OFFCURVE",
"381 579 OFFCURVE",
"381 507 CURVE SMOOTH",
"381 463 OFFCURVE",
"359 405 OFFCURVE",
"291 405 CURVE",
"191 405 LINE",
"210 387 LINE"
);
},
{
closed = 1;
nodes = (
"210 83 LINE",
"210 324 LINE",
"191 312 LINE",
"281 312 LINE SMOOTH",
"343 312 OFFCURVE",
"408 299 OFFCURVE",
"408 208 CURVE SMOOTH",
"408 118 OFFCURVE",
"347 101 OFFCURVE",
"287 101 CURVE",
"192 101 LINE"
);
}
);
width = 568;
}
);
leftKerningGroup = H;
leftMetricsKey = H;
rightKerningGroup = B;
unicode = 0042;
userData = {
com.typemytype.robofont.mark = (
0.656,
1,
0.6,
1
);
};
},
{
color = 4;
glyphname = C;
lastChange = "2018-05-25 16:39:45 +0000";
layers = (
{
anchors = (
{
name = btm;
position = "{299, 0}";
},
{
name = top;
position = "{319, 830}";
},
{
name = vslash;
position = "{317, 345}";
}
);
layerId = "B61D43DE-5272-4FF4-A680-608B6BF5ED9E";
paths = (
{
closed = 1;
nodes = (
"167 710 OFFCURVE",
"37 586 OFFCURVE",
"37 358 CURVE SMOOTH",
"37 104 OFFCURVE",
"173 -12 OFFCURVE",
"318 -12 CURVE SMOOTH",
"453 -12 OFFCURVE",
"500 43 OFFCURVE",
"522 60 CURVE",
"535 -4 LINE",
"420 204 LINE",
"467 160 LINE",
"468 157 OFFCURVE",
"412 102 OFFCURVE",
"323 102 CURVE SMOOTH",
"241 102 OFFCURVE",
"176 191 OFFCURVE",
"176 365 CURVE SMOOTH",
"176 498 OFFCURVE",
"228 596 OFFCURVE",
"330 596 CURVE SMOOTH",
"395 596 OFFCURVE",
"421 573 OFFCURVE",
"450 542 CURVE",
"506 647 LINE",
"479 671 OFFCURVE",
"437 710 OFFCURVE",
"329 710 CURVE SMOOTH"
);
}
);
width = 523;
}
);
leftKerningGroup = O;
rightKerningGroup = C;
unicode = 0043;
userData = {
com.typemytype.robofont.mark = (
0.656,
1,
0.6,
1
);
};
},
{
glyphname = D;
lastChange = "2018-05-24 19:23:14 +0000";
layers = (
{
anchors = (
{
name = btm;
position = "{291, 0}";
},
{
name = top;
position = "{323, 830}";
}
);
layerId = "B61D43DE-5272-4FF4-A680-608B6BF5ED9E";
paths = (
{
closed = 1;
nodes = (
"260 0 LINE",
"465 0 OFFCURVE",
"577 139 OFFCURVE",
"577 357 CURVE SMOOTH",
"577 584 OFFCURVE",
"463 697 OFFCURVE",
"261 697 CURVE",
"81 697 LINE",
"81 0 LINE"
);
},
{
closed = 1;
nodes = (
"210 88 LINE",
"210 618 LINE",
"191 597 LINE",
"257 597 LINE",
"401 597 OFFCURVE",
"447 480 OFFCURVE",
"447 354 CURVE SMOOTH",
"447 232 OFFCURVE",
"403 110 OFFCURVE",
"257 110 CURVE",
"193 110 LINE"
);
}
);
width = 601;
}
);
leftKerningGroup = H;
rightKerningGroup = O;
unicode = 0044;
userData = {
com.typemytype.robofont.mark = (
0.656,
1,
0.6,
1
);
};
},
{
glyphname = Eth;
lastChange = "2018-05-24 19:23:14 +0000";
layers = (
{
components = (
{
name = D;
transform = "{1, 0, 0, 1, -5, 0}";
}
);
layerId = "B61D43DE-5272-4FF4-A680-608B6BF5ED9E";
paths = (
{
closed = 1;
nodes = (
"333 316 LINE",
"333 401 LINE",
"16 401 LINE",
"16 316 LINE"
);
}
);
width = 593;
}
);
leftKerningGroup = H;
rightKerningGroup = O;
unicode = 00D0;
userData = {
com.typemytype.robofont.mark = (
0.656,
1,
0.6,
1
);
};
},
{
glyphname = Dcroat;
lastChange = "2018-05-24 19:23:14 +0000";
layers = (
{
components = (
{
name = D;
transform = "{1, 0, 0, 1, -5, 0}";
}
);
layerId = "B61D43DE-5272-4FF4-A680-608B6BF5ED9E";
paths = (
{
closed = 1;
nodes = (
"333 316 LINE",
"333 401 LINE",
"16 401 LINE",
"16 316 LINE"
);
}
);
width = 593;
}
);
leftKerningGroup = H;
rightKerningGroup = O;
unicode = 0110;
userData = {
com.typemytype.robofont.mark = (
0.6,
0.986,
1,
1
);
};
},
{
glyphname = E;
lastChange = "2018-05-24 19:23:14 +0000";
layers = (
{
anchors = (
{
name = btm;
position = "{263, 0}";
},
{
name = top;
position = "{271, 830}";
},
{
name = vslash;
position = "{256, 345}";
}
);
layerId = "B61D43DE-5272-4FF4-A680-608B6BF5ED9E";
paths = (
{
closed = 1;
nodes = (
"465 0 LINE",
"465 110 LINE",
"190 110 LINE",
"206 91 LINE",
"206 336 LINE",
"188 319 LINE",
"396 319 LINE",
"396 425 LINE",
"188 425 LINE",
"206 408 LINE",
"206 605 LINE",
"190 591 LINE",
"445 591 LINE",
"445 697 LINE",
"81 697 LINE",
"81 0 LINE"
);
}
);
width = 506;
}
);
leftKerningGroup = H;
rightKerningGroup = E;
unicode = 0045;
userData = {
com.typemytype.robofont.mark = (
0.656,
1,
0.6,
1
);
};
},
{
glyphname = Eogonek;
lastChange = "2018-05-24 19:23:14 +0000";
layers = (
{
components = (
{
name = E;
transform = "{1, 0, 0, 1, -5, 0}";
}
);
layerId = "B61D43DE-5272-4FF4-A680-608B6BF5ED9E";
paths = (
{
closed = 1;
nodes = (
"226 -198 OFFCURVE",
"271 -240 OFFCURVE",
"376 -240 CURVE SMOOTH",
"432 -240 OFFCURVE",
"474 -224 OFFCURVE",
"486 -203 CURVE",
"460 -278 LINE",
"460 -68 LINE",
"506 -99 LINE",
"470 -140 OFFCURVE",
"425 -149 OFFCURVE",
"392 -149 CURVE SMOOTH",
"353 -149 OFFCURVE",
"330 -135 OFFCURVE",
"330 -101 CURVE SMOOTH",
"330 -59 OFFCURVE",
"389 -18 OFFCURVE",
"460 0 CURVE",
"407 33 LINE",
"350 6 LINE",
"255 -18 OFFCURVE",
"228 -77 OFFCURVE",
"227 -126 CURVE"
);
}
);
width = 500;
}
);
leftKerningGroup = H;
rightKerningGroup = E;
unicode = 0118;
userData = {
com.typemytype.robofont.mark = (
0.6,
0.986,
1,
1
);
};
},
{
glyphname = F;
lastChange = "2018-05-25 05:42:48 +0000";
layers = (
{
anchors = (
{
name = top;
position = "{264, 830}";
}
);
layerId = "B61D43DE-5272-4FF4-A680-608B6BF5ED9E";
paths = (
{
closed = 1;
nodes = (
"212 0 LINE",
"212 313 LINE",
"194 298 LINE",
"418 298 LINE",
"418 404 LINE",
"194 404 LINE",
"212 386 LINE",
"212 609 LINE",
"196 591 LINE",
"448 591 LINE",
"448 697 LINE",
"84 697 LINE",
"84 0 LINE"
);
}
);
width = 464;
}
);
leftKerningGroup = H;
leftMetricsKey = H;
rightKerningGroup = F;
unicode = 0046;
userData = {
com.typemytype.robofont.mark = (
0.656,
1,
0.6,
1
);
};
},
{
color = 4;
glyphname = G;
lastChange = "2018-05-25 16:40:18 +0000";
layers = (
{
anchors = (
{
name = btm;
position = "{336, 0}";
},
{
name = top;
position = "{342, 830}";
}
);
layerId = "B61D43DE-5272-4FF4-A680-608B6BF5ED9E";
paths = (
{
closed = 1;
nodes = (
"165 714 OFFCURVE",
"37 558 OFFCURVE",
"37 351 CURVE SMOOTH",
"37 120 OFFCURVE",
"168 -18 OFFCURVE",
"325 -18 CURVE SMOOTH",
"554 -18 OFFCURVE",
"593 127 OFFCURVE",
"593 275 CURVE",
"593 374 LINE",
"329 374 LINE",
"329 264 LINE",
"518 264 LINE",
"466 297 LINE",
"467 264 LINE",
"467 153 OFFCURVE",
"427 94 OFFCURVE",
"327 94 CURVE SMOOTH",
"241 94 OFFCURVE",
"173 188 OFFCURVE",
"173 360 CURVE SMOOTH",
"173 498 OFFCURVE",
"245 596 OFFCURVE",
"346 596 CURVE SMOOTH",
"448 596 OFFCURVE",
"479 551 OFFCURVE",
"494 531 CURVE",
"549 647 LINE",
"523 672 OFFCURVE",
"478 714 OFFCURVE",
"346 714 CURVE SMOOTH"
);
}
);
width = 620;
}
);
leftKerningGroup = O;
rightKerningGroup = G;
unicode = 0047;
userData = {
com.typemytype.robofont.mark = (
0.656,
1,
0.6,
1
);
};
},
{
glyphname = H;
lastChange = "2018-05-25 16:40:28 +0000";
layers = (
{
anchors = (
{
name = btm;
position = "{326, 0}";
},
{
name = top;
position = "{328, 830}";
}
);
layerId = "B61D43DE-5272-4FF4-A680-608B6BF5ED9E";
paths = (
{
closed = 1;
nodes = (
"213 0 LINE",
"213 310 LINE",
"196 296 LINE",
"459 296 LINE",
"443 310 LINE",
"443 0 LINE",
"573 0 LINE",
"573 697 LINE",
"443 697 LINE",
"443 385 LINE",
"458 403 LINE",
"196 403 LINE",
"213 386 LINE",
"213 697 LINE",
"84 697 LINE",
"84 0 LINE"
);
}
);
width = 657;
}
);
leftKerningGroup = H;
rightKerningGroup = H;
unicode = 0048;
userData = {
com.typemytype.robofont.mark = (
0.656,
1,
0.6,
1
);
};
},
{
glyphname = Hbar;
lastChange = "2018-05-24 19:23:14 +0000";
layers = (
{
layerId = "B61D43DE-5272-4FF4-A680-608B6BF5ED9E";
paths = (
{
closed = 1;
nodes = (
"215 0 LINE",
"215 280 LINE",
"198 266 LINE",
"447 266 LINE",
"431 280 LINE",
"431 0 LINE",
"570 0 LINE",
"570 697 LINE",
"431 697 LINE",
"431 343 LINE",
"446 360 LINE",
"198 360 LINE",
"215 344 LINE",
"215 697 LINE",
"76 697 LINE",
"76 0 LINE"
);
},
{
closed = 1;
nodes = (
"631 499 LINE",
"631 583 LINE",
"14 583 LINE",
"14 499 LINE"
);
}
);
width = 646;
}
);
leftKerningGroup = H;
rightKerningGroup = H;
unicode = 0126;
userData = {
com.typemytype.robofont.mark = (
0.6,
0.986,
1,
1
);
};
},
{
glyphname = I;
lastChange = "2018-05-24 19:23:14 +0000";
layers = (
{
anchors = (
{
name = btm;
position = "{145, 0}";
},
{
name = top;
position = "{146, 830}";
}
);
layerId = "B61D43DE-5272-4FF4-A680-608B6BF5ED9E";
paths = (
{
closed = 1;
nodes = (
"210 0 LINE",
"210 697 LINE",
"80 697 LINE",
"80 0 LINE"
);
}
);
width = 290;
}
);
leftKerningGroup = I;
rightKerningGroup = I;
unicode = 0049;
userData = {
com.typemytype.robofont.mark = (
0.656,
1,
0.6,
1
);
};
},
{
glyphname = Iogonek;
lastChange = "2018-05-24 19:23:14 +0000";
layers = (
{
components = (
{
name = I;
}
);
layerId = "B61D43DE-5272-4FF4-A680-608B6BF5ED9E";
paths = (
{
closed = 1;
nodes = (
"7 -198 OFFCURVE",
"70 -240 OFFCURVE",
"157 -240 CURVE SMOOTH",
"213 -240 OFFCURVE",
"255 -224 OFFCURVE",
"267 -203 CURVE",
"241 -278 LINE",
"241 -68 LINE",
"287 -99 LINE",
"251 -140 OFFCURVE",
"206 -149 OFFCURVE",
"173 -149 CURVE SMOOTH",
"134 -149 OFFCURVE",
"111 -135 OFFCURVE",
"111 -101 CURVE SMOOTH",
"111 -59 OFFCURVE",
"132 -18 OFFCURVE",
"203 0 CURVE",
"150 33 LINE",
"93 6 LINE",
"34 -31 OFFCURVE",
"9 -77 OFFCURVE",
"8 -126 CURVE"
);
}
);
width = 286;
}
);
leftKerningGroup = I;
rightKerningGroup = I;
unicode = 012E;
userData = {
com.typemytype.robofont.mark = (
0.6,
0.986,
1,
1
);
};
},
{
glyphname = J;
lastChange = "2018-05-25 05:46:17 +0000";
layers = (
{
anchors = (
{
name = top;
position = "{262, 830}";
}
);
layerId = "B61D43DE-5272-4FF4-A680-608B6BF5ED9E";
paths = (
{
closed = 1;
nodes = (
"17 0 OFFCURVE",
"83 -15 OFFCURVE",
"119 -15 CURVE SMOOTH",
"277 -15 OFFCURVE",
"327 85 OFFCURVE",
"327 209 CURVE SMOOTH",
"327 697 LINE",
"197 697 LINE",
"197 197 LINE SMOOTH",
"197 102 OFFCURVE",
"152 96 OFFCURVE",
"113 96 CURVE SMOOTH",
"87 96 OFFCURVE",
"58 111 OFFCURVE",
"41 136 CURVE",
"-7 17 LINE"
);
}
);
width = 400;
}
);
leftKerningGroup = J;
rightKerningGroup = U;
unicode = 004A;
userData = {
com.typemytype.robofont.mark = (
0.656,
1,
0.6,
1
);
};
},
{
glyphname = K;
lastChange = "2018-05-25 05:37:26 +0000";
layers = (
{
anchors = (
{
name = btm;
position = "{311, 0}";
},
{
name = top;
position = "{305, 830}";
}
);
layerId = "B61D43DE-5272-4FF4-A680-608B6BF5ED9E";
paths = (
{
closed = 1;
nodes = (
"436 0 LINE",
"596 0 LINE",
"325 375 LINE",
"328 330 LINE",
"580 697 LINE",
"433 697 LINE",
"202 342 LINE"
);
},
{
closed = 1;
nodes = (
"211 0 LINE",
"211 697 LINE",
"84 697 LINE",
"84 0 LINE"
);
}
);
width = 596;
}
);
leftKerningGroup = H;
leftMetricsKey = H;
rightKerningGroup = K;
unicode = 004B;
userData = {
com.typemytype.robofont.mark = (
0.656,
1,
0.6,
1
);
};
},
{
glyphname = L;
lastChange = "2018-05-25 05:41:50 +0000";
layers = (
{
anchors = (
{
name = btm;
position = "{241, 0}";
},
{
name = car;
position = "{332, 830}";
},
{
name = top;
position = "{153, 830}";
}
);
layerId = "B61D43DE-5272-4FF4-A680-608B6BF5ED9E";
paths = (
{
closed = 1;
nodes = (
"419 0 LINE",
"419 110 LINE",
"196 110 LINE",
"211 87 LINE",
"211 697 LINE",
"84 697 LINE",
"84 0 LINE"
);
}
);
width = 445;
}
);
leftKerningGroup = H;
leftMetricsKey = H;
rightKerningGroup = L;
unicode = 004C;
userData = {
com.typemytype.robofont.mark = (
0.656,
1,
0.6,
1
);
};
},
{
glyphname = Lslash;
lastChange = "2018-05-25 05:42:26 +0000";
layers = (
{
components = (
{
name = L;
transform = "{1, 0, 0, 1, 15, 0}";
}
);
layerId = "B61D43DE-5272-4FF4-A680-608B6BF5ED9E";
paths = (
{
closed = 1;
nodes = (
"370 397 LINE",
"370 509 LINE",
"20 324 LINE",
"20 212 LINE"
);
}
);
width = 460;
}
);
leftKerningGroup = H;
rightKerningGroup = L;
rightMetricsKey = L;
unicode = 0141;
userData = {
com.typemytype.robofont.mark = (
0.6,
0.986,
1,
1
);
};
},
{
color = 4;
glyphname = M;
lastChange = "2018-05-25 05:40:40 +0000";
layers = (
{
anchors = (
{
name = btm;
position = "{375, 0}";
},
{
name = top;
position = "{375, 830}";
}
);
layerId = "B61D43DE-5272-4FF4-A680-608B6BF5ED9E";
paths = (
{
closed = 1;
nodes = (
"656 709 LINE",
"361 359 LINE",
"391 359 LINE",
"94 709 LINE",
"84 709 LINE",
"84 0 LINE",
"208 0 LINE",
"208 299 LINE",
"199 500 LINE",
"184 446 LINE",
"238 363 LINE",
"375 202 LINE",
"512 363 LINE",
"566 445 LINE",
"551 500 LINE",
"543 299 LINE",
"543 0 LINE",
"667 0 LINE",
"667 709 LINE"
);
}
);
width = 751;
}
);
leftKerningGroup = M;
leftMetricsKey = H;
rightKerningGroup = M;
rightMetricsKey = H;
unicode = 004D;
userData = {
com.typemytype.robofont.guides = (
{
angle = 0;
isGlobal = 0;
magnetic = 5;
x = 0;
y = 729;
},
{
angle = 90;
isGlobal = 0;
magnetic = 5;
x = 764;
y = 0;
}
);
com.typemytype.robofont.mark = (
0.656,
1,
0.6,
1
);
};
},
{
color = 4;
glyphname = N;
lastChange = "2018-05-25 05:40:00 +0000";
layers = (
{
anchors = (
{
name = btm;
position = "{348, 0}";
},
{
name = top;
position = "{319, 830}";
}
);
layerId = "B61D43DE-5272-4FF4-A680-608B6BF5ED9E";
paths = (
{
closed = 1;
nodes = (
"577 -14 LINE",
"577 697 LINE",
"454 697 LINE",
"454 356 LINE",
"464 189 LINE",
"524 200 LINE",
"424 325 LINE",
"95 709 LINE",
"84 709 LINE",
"84 0 LINE",
"207 0 LINE",
"207 321 LINE",
"197 504 LINE",
"131 491 LINE",
"233 365 LINE",
"567 -14 LINE"
);
}
);
width = 661;
}
);
leftKerningGroup = H;
leftMetricsKey = H;
rightKerningGroup = H;
rightMetricsKey = H;
unicode = 004E;
userData = {
com.typemytype.robofont.mark = (
0.656,
1,
0.6,
1
);
};
},
{
glyphname = Eng;
lastChange = "2018-05-25 15:06:36 +0000";
layers = (
{
anchors = (
{
name = btm;
position = "{348, 0}";
},
{
name = top;
position = "{319, 830}";
}
);
layerId = "B61D43DE-5272-4FF4-A680-608B6BF5ED9E";
paths = (
{
closed = 1;
nodes = (
"461 139 LINE",
"454 70 LINE",
"454 -39 LINE SMOOTH",
"454 -130 OFFCURVE",
"412 -145 OFFCURVE",
"367 -145 CURVE SMOOTH",
"339 -145 OFFCURVE",
"297 -131 OFFCURVE",
"269 -114 CURVE",
"231 -223 LINE",
"262 -241 OFFCURVE",
"315 -255 OFFCURVE",
"389 -255 CURVE SMOOTH",
"488 -255 OFFCURVE",
"577 -184 OFFCURVE",
"577 -14 CURVE"
);
},
{
closed = 1;
nodes = (
"577 -14 LINE",
"577 697 LINE",
"454 697 LINE",
"454 356 LINE",
"464 189 LINE",
"524 200 LINE",
"424 325 LINE",
"95 709 LINE",
"84 709 LINE",
"84 0 LINE",
"207 0 LINE",
"207 321 LINE",
"197 504 LINE",
"131 491 LINE",
"233 365 LINE",
"567 -14 LINE"
);
}
);
width = 661;
}
);
leftKerningGroup = Eng;
leftMetricsKey = N;
rightKerningGroup = Eng;
rightMetricsKey = N;
unicode = 014A;
userData = {
com.typemytype.robofont.mark = (
0.6,
0.986,
1,
1
);
};
},
{
color = 4;
glyphname = O;
lastChange = "2018-05-25 05:47:59 +0000";
layers = (
{
anchors = (
{
name = btm;
position = "{330, 0}";
},
{
name = top;
position = "{329, 830}";
}
);
layerId = "B61D43DE-5272-4FF4-A680-608B6BF5ED9E";
paths = (
{
closed = 1;
nodes = (
"39 129 OFFCURVE",
"141 -13 OFFCURVE",
"330 -13 CURVE SMOOTH",
"516 -13 OFFCURVE",
"619 129 OFFCURVE",
"619 348 CURVE SMOOTH",
"619 562 OFFCURVE",
"522 709 OFFCURVE",
"327 709 CURVE SMOOTH",
"140 709 OFFCURVE",
"39 565 OFFCURVE",
"39 348 CURVE SMOOTH"
);
},
{
closed = 1;
nodes = (
"173 518 OFFCURVE",
"230 605 OFFCURVE",
"327 605 CURVE SMOOTH",
"426 605 OFFCURVE",
"486 518 OFFCURVE",
"486 351 CURVE SMOOTH",
"486 177 OFFCURVE",
"417 94 OFFCURVE",
"330 94 CURVE SMOOTH",
"236 94 OFFCURVE",
"173 176 OFFCURVE",
"173 350 CURVE SMOOTH"
);
}
);
width = 658;
}
);
leftKerningGroup = O;
rightKerningGroup = O;
unicode = 004F;
userData = {
com.typemytype.robofont.mark = (
0.656,
1,
0.6,
1
);
};
},
{
glyphname = Ohorn;
lastChange = "2018-05-25 15:17:53 +0000";
layers = (
{
anchors = (
{
name = btm;
position = "{330, 0}";
},
{
name = top;
position = "{329, 830}";
}
);
components = (
{
name = O;
}
);
layerId = "B61D43DE-5272-4FF4-A680-608B6BF5ED9E";
paths = (
{
closed = 1;
nodes = (
"516 618 LINE",
"573 618 OFFCURVE",
"642 681 OFFCURVE",
"642 763 CURVE SMOOTH",
"642 804 OFFCURVE",
"640 819 OFFCURVE",
"635 835 CURVE",
"531 835 LINE",
"537 819 OFFCURVE",
"539 805 OFFCURVE",
"539 778 CURVE SMOOTH",
"539 721 OFFCURVE",
"505 683 OFFCURVE",
"452 683 CURVE"
);
}
);
width = 658;
}
);
leftKerningGroup = O;
leftMetricsKey = O;
rightKerningGroup = O;
unicode = 01A0;
userData = {
com.typemytype.robofont.mark = (
0.6,
0.609,
1,
1
);
};
},
{
glyphname = Oogonek;
lastChange = "2018-05-24 19:23:14 +0000";
layers = (
{
components = (
{
name = O;
}
);
layerId = "B61D43DE-5272-4FF4-A680-608B6BF5ED9E";
paths = (
{
closed = 1;
nodes = (
"207 -198 OFFCURVE",
"252 -240 OFFCURVE",
"357 -240 CURVE SMOOTH",
"413 -240 OFFCURVE",
"455 -224 OFFCURVE",
"467 -203 CURVE",
"441 -278 LINE",
"441 -68 LINE",
"487 -99 LINE",
"451 -140 OFFCURVE",
"406 -149 OFFCURVE",
"373 -149 CURVE SMOOTH",
"334 -149 OFFCURVE",
"311 -135 OFFCURVE",
"311 -101 CURVE SMOOTH",
"311 -58 OFFCURVE",
"351 -17 OFFCURVE",
"421 0 CURVE",
"368 33 LINE",
"311 6 LINE",
"236 -18 OFFCURVE",
"209 -77 OFFCURVE",
"208 -126 CURVE"
);
}
);
width = 658;
}
);
leftKerningGroup = Oogonek;
rightKerningGroup = Oogonek;
unicode = 01EA;
},
{
glyphname = Oslash;
lastChange = "2018-05-24 19:23:14 +0000";
layers = (
{
anchors = (
{
name = btm;
position = "{325.089, 0}";
},
{
name = top;
position = "{324.102, 830.078}";
}
);
layerId = "B61D43DE-5272-4FF4-A680-608B6BF5ED9E";
paths = (
{
closed = 1;
nodes = (
"127 -60 LINE",
"199 62 LINE",
"212 98 LINE",
"480 600 LINE",
"508 618 LINE",
"570 729 LINE",
"500 765 LINE",
"440 661 LINE",
"428 619 LINE",
"173 133 LINE",
"142 119 LINE",
"58 -22 LINE"
);
},
{
closed = 1;
nodes = (
"34 129 OFFCURVE",
"136 -13 OFFCURVE",
"325 -13 CURVE SMOOTH",
"511 -13 OFFCURVE",
"614 129 OFFCURVE",
"614 348 CURVE SMOOTH",
"614 562 OFFCURVE",
"517 709 OFFCURVE",
"322 709 CURVE SMOOTH",
"135 709 OFFCURVE",
"34 565 OFFCURVE",
"34 348 CURVE SMOOTH"
);
},
{
closed = 1;
nodes = (
"168 518 OFFCURVE",
"225 607 OFFCURVE",
"322 607 CURVE SMOOTH",
"421 607 OFFCURVE",
"481 518 OFFCURVE",
"481 351 CURVE SMOOTH",
"481 177 OFFCURVE",
"412 92 OFFCURVE",
"325 92 CURVE SMOOTH",
"231 92 OFFCURVE",
"168 176 OFFCURVE",
"168 350 CURVE SMOOTH"
);
}
);
width = 648;
}
);
leftKerningGroup = O;
rightKerningGroup = O;
unicode = 00D8;
userData = {
com.typemytype.robofont.mark = (
0.656,
1,
0.6,
1
);
};
},
{
color = 4;
glyphname = OE;
lastChange = "2018-05-25 16:41:35 +0000";
layers = (
{
anchors = (
{
name = btm;
position = "{1289, 0}";
},
{
name = top;
position = "{1288, 830}";
}
);
layerId = "B61D43DE-5272-4FF4-A680-608B6BF5ED9E";
paths = (
{
closed = 1;
nodes = (
"39 129 OFFCURVE",
"141 -13 OFFCURVE",
"330 -13 CURVE SMOOTH",
"519 -13 OFFCURVE",
"569 99 OFFCURVE",
"569 348 CURVE SMOOTH",
"569 592 OFFCURVE",
"522 709 OFFCURVE",
"327 709 CURVE SMOOTH",
"140 709 OFFCURVE",
"39 565 OFFCURVE",
"39 348 CURVE SMOOTH"
);
},
{
closed = 1;
nodes = (
"173 518 OFFCURVE",
"230 607 OFFCURVE",
"327 607 CURVE SMOOTH",
"426 607 OFFCURVE",
"486 518 OFFCURVE",
"486 351 CURVE SMOOTH",
"486 177 OFFCURVE",
"417 92 OFFCURVE",
"330 92 CURVE SMOOTH",
"236 92 OFFCURVE",
"173 176 OFFCURVE",
"173 350 CURVE SMOOTH"
);
},
{
closed = 1;
nodes = (
"871 0 LINE",
"871 110 LINE",
"586 110 LINE",
"602 91 LINE",
"602 336 LINE",
"584 319 LINE",
"802 319 LINE",
"802 425 LINE",
"584 425 LINE",
"602 408 LINE",
"602 605 LINE",
"586 591 LINE",
"851 591 LINE",
"851 697 LINE",
"490 697 LINE",
"490 0 LINE"
);
}
);
width = 912;
}
);
leftKerningGroup = O;
leftMetricsKey = O;
rightKerningGroup = E;
rightMetricsKey = E;
unicode = 0152;
userData = {
com.typemytype.robofont.mark = (
0.656,
1,
0.6,
1
);
};
},
{
glyphname = P;
lastChange = "2018-05-25 05:37:10 +0000";
layers = (
{
anchors = (
{
name = top;
position = "{302, 830}";
}
);
layerId = "B61D43DE-5272-4FF4-A680-608B6BF5ED9E";
paths = (
{
closed = 1;
nodes = (
"213 0 LINE",
"213 238 LINE",
"178 187 LINE",
"275 187 LINE",
"452 187 OFFCURVE",
"527 316 OFFCURVE",
"527 453 CURVE SMOOTH",
"527 642 OFFCURVE",
"413 697 OFFCURVE",
"271 697 CURVE SMOOTH",
"84 697 LINE",
"84 0 LINE"
);
},
{
closed = 1;
nodes = (
"213 280 LINE",
"213 614 LINE",
"198 596 LINE",
"263 596 LINE SMOOTH",
"363 596 OFFCURVE",
"398 548 OFFCURVE",
"398 446 CURVE SMOOTH",
"398 346 OFFCURVE",
"354 292 OFFCURVE",
"266 292 CURVE SMOOTH",
"195 292 LINE"
);
}
);
width = 547;
}
);
leftKerningGroup = H;
leftMetricsKey = H;
rightKerningGroup = P;
unicode = 0050;
userData = {
com.typemytype.robofont.mark = (
0.656,
1,
0.6,
1
);
};
},
{
glyphname = Thorn;
lastChange = "2018-05-25 05:37:14 +0000";
layers = (
{
layerId = "B61D43DE-5272-4FF4-A680-608B6BF5ED9E";
paths = (
{
closed = 1;
nodes = (
"213 0 LINE",
"213 167 LINE",
"152 106 LINE",
"260 106 LINE SMOOTH",
"464 106 OFFCURVE",
"540 220 OFFCURVE",
"540 348 CURVE SMOOTH",
"540 528 OFFCURVE",
"427 588 OFFCURVE",
"270 588 CURVE SMOOTH",
"152 588 LINE",
"213 527 LINE",
"213 697 LINE",
"84 697 LINE",
"84 0 LINE"
);
},
{
closed = 1;
nodes = (
"213 548 LINE",
"152 487 LINE",
"268 487 LINE SMOOTH",
"380 487 OFFCURVE",
"411 430 OFFCURVE",
"411 341 CURVE SMOOTH",
"411 254 OFFCURVE",
"375 208 OFFCURVE",
"263 208 CURVE SMOOTH",
"152 208 LINE",
"213 147 LINE"
);
}
);
width = 560;
}
);
leftKerningGroup = H;
leftMetricsKey = H;
rightKerningGroup = Thorn;
rightMetricsKey = P;
unicode = 00DE;
userData = {
com.typemytype.robofont.mark = (
0.656,
1,
0.6,
1
);
};
},
{
glyphname = Q;
lastChange = "2018-05-24 19:23:14 +0000";
layers = (
{
anchors = (
{
name = top;
position = "{347, 830}";
}
);
components = (
{
name = O;
}
);
layerId = "B61D43DE-5272-4FF4-A680-608B6BF5ED9E";
paths = (
{
closed = 1;
nodes = (
"416 -173 LINE",
"531 -111 LINE",
"439 40 LINE",
"337 -6 LINE"
);
}
);
width = 658;
}
);
leftKerningGroup = O;
rightKerningGroup = O;
unicode = 0051;
userData = {
com.typemytype.robofont.mark = (
0.656,
1,
0.6,
1
);
};
},
{
glyphname = R;
lastChange = "2018-05-25 05:37:18 +0000";
layers = (
{
anchors = (
{
name = btm;
position = "{294, 0}";
},
{
name = top;
position = "{310, 830}";
}
);
layerId = "B61D43DE-5272-4FF4-A680-608B6BF5ED9E";
paths = (
{
closed = 1;
nodes = (
"352 310 OFFCURVE",
"398 370 OFFCURVE",
"398 453 CURVE",
"398 543 OFFCURVE",
"361 597 OFFCURVE",
"261 597 CURVE SMOOTH",
"193 597 LINE",
"211 613 LINE",
"211 299 LINE",
"191 310 LINE",
"264 310 LINE"
);
},
{
closed = 1;
nodes = (
"211 0 LINE",
"84 0 LINE",
"84 697 LINE",
"278 697 LINE SMOOTH",
"420 697 OFFCURVE",
"526 632 OFFCURVE",
"526 465 CURVE SMOOTH",
"526 349 OFFCURVE",
"465 219 OFFCURVE",
"275 230 CURVE",
"352 254 LINE",
"545 0 LINE",
"390 0 LINE",
"209 250 LINE",
"211 259 LINE"
);
}
);
width = 577;
}
);
leftKerningGroup = H;
leftMetricsKey = H;
rightKerningGroup = R;
unicode = 0052;
userData = {
com.typemytype.robofont.mark = (
0.656,
1,
0.6,
1
);
};
},
{
glyphname = S;
lastChange = "2018-05-24 19:23:14 +0000";
layers = (
{
anchors = (
{
name = btm;
position = "{259, 0}";
},
{
name = top;
position = "{269, 830}";
}
);
layerId = "B61D43DE-5272-4FF4-A680-608B6BF5ED9E";
paths = (
{
closed = 1;
nodes = (
"79 29 OFFCURVE",
"157 -11 OFFCURVE",
"251 -11 CURVE SMOOTH",
"384 -11 OFFCURVE",
"465 55 OFFCURVE",
"469 183 CURVE SMOOTH",
"473 301 OFFCURVE",
"389 350 OFFCURVE",
"293 408 CURVE SMOOTH",
"237 444 OFFCURVE",
"191 470 OFFCURVE",
"191 529 CURVE SMOOTH",
"191 566 OFFCURVE",
"220 603 OFFCURVE",
"269 603 CURVE SMOOTH",
"333 603 OFFCURVE",
"374 562 OFFCURVE",
"389 542 CURVE",
"445 644 LINE",
"418 668 OFFCURVE",
"369 709 OFFCURVE",
"261 709 CURVE SMOOTH",
"133 709 OFFCURVE",
"63 624 OFFCURVE",
"61 527 CURVE SMOOTH",
"57 399 OFFCURVE",
"140 352 OFFCURVE",
"230 299 CURVE SMOOTH",
"297 258 OFFCURVE",
"338 233 OFFCURVE",
"338 180 CURVE SMOOTH",
"338 125 OFFCURVE",
"295 97 OFFCURVE",
"248 97 CURVE SMOOTH",
"180 97 OFFCURVE",
"119 141 OFFCURVE",
"96 170 CURVE",
"45 65 LINE"
);
}
);
width = 508;
}
);
leftKerningGroup = S;
rightKerningGroup = S;
unicode = 0053;
userData = {
com.typemytype.robofont.mark = (
0.656,
1,
0.6,
1
);
};
},
{
glyphname = Germandbls;
lastChange = "2018-05-24 19:23:14 +0000";
layers = (
{
background = {
paths = (
{
closed = 1;
nodes = (
"1199 -15 OFFCURVE",
"1291 80 OFFCURVE",
"1291 206 CURVE SMOOTH",
"1291 309 OFFCURVE",
"1247 414 OFFCURVE",
"1044 439 CURVE",
"1094 325 LINE",
"1224 532 LINE SMOOTH",
"1260 589 OFFCURVE",
"1223 647 OFFCURVE",
"1177 647 CURVE",
"973 647 LINE",
"730 647 OFFCURVE",
"617 555 OFFCURVE",
"617 358 CURVE SMOOTH",
"617 107 LINE SMOOTH",
"617 39 OFFCURVE",
"658 -6 OFFCURVE",
"722 -6 CURVE SMOOTH",
"752 -6 LINE SMOOTH",
"818 -6 OFFCURVE",
"857 35 OFFCURVE",
"857 107 CURVE SMOOTH",
"857 362 LINE SMOOTH",
"857 416 OFFCURVE",
"885 474 OFFCURVE",
"955 474 CURVE SMOOTH",
"983 474 LINE",
"951 424 LINE SMOOTH",
"938 404 OFFCURVE",
"919 373 OFFCURVE",
"920 341 CURVE SMOOTH",
"922 274 OFFCURVE",
"967 273 OFFCURVE",
"1010 262 CURVE SMOOTH",
"1055 251 OFFCURVE",
"1072 235 OFFCURVE",
"1072 213 CURVE SMOOTH",
"1072 190 OFFCURVE",
"1065 162 OFFCURVE",
"1016 162 CURVE SMOOTH",
"974 162 OFFCURVE",
"943 169 OFFCURVE",
"925 178 CURVE",
"922 180 OFFCURVE",
"880 139 OFFCURVE",
"880 94 CURVE SMOOTH",
"880 58 OFFCURVE",
"895 31 OFFCURVE",
"925 13 CURVE SMOOTH",
"955 -5 OFFCURVE",
"1000 -15 OFFCURVE",
"1059 -15 CURVE SMOOTH"
);
}
);
};
layerId = "B61D43DE-5272-4FF4-A680-608B6BF5ED9E";
paths = (
{
closed = 1;
nodes = (
"194 0 LINE",
"194 346 LINE SMOOTH",
"194 478 OFFCURVE",
"231 596 OFFCURVE",
"350 596 CURVE SMOOTH",
"400 596 LINE",
"272 336 LINE",
"369 336 OFFCURVE",
"444 305 OFFCURVE",
"444 226 CURVE SMOOTH",
"444 107 OFFCURVE",
"360 102 OFFCURVE",
"296 102 CURVE SMOOTH",
"282 102 OFFCURVE",
"258 104 OFFCURVE",
"244 107 CURVE",
"241 -2 LINE",
"263 -5 OFFCURVE",
"300 -6 OFFCURVE",
"320 -6 CURVE SMOOTH",
"483 -6 OFFCURVE",
"579 80 OFFCURVE",
"579 236 CURVE SMOOTH",
"579 325 OFFCURVE",
"526 393 OFFCURVE",
"432 416 CURVE",
"582 697 LINE",
"344 697 LINE SMOOTH",
"178 697 OFFCURVE",
"68 587 OFFCURVE",
"68 335 CURVE SMOOTH",
"68 0 LINE"
);
}
);
width = 621;
}
);
leftKerningGroup = uni1E9E;
leftMetricsKey = U;
rightKerningGroup = uni1E9E;
unicode = 1E9E;
userData = {
com.typemytype.robofont.mark = (
0.6,
0.986,
1,
1
);
};
},
{
color = 4;
glyphname = Schwa;
lastChange = "2018-05-25 15:04:02 +0000";
layers = (
{
anchors = (
{
name = top;
position = "{307, 830}";
}
);
background = {
paths = (
{
closed = 1;
nodes = (
"26 129 OFFCURVE",
"128 -13 OFFCURVE",
"317 -13 CURVE SMOOTH",
"503 -13 OFFCURVE",
"606 129 OFFCURVE",
"606 348 CURVE SMOOTH",
"606 562 OFFCURVE",
"509 709 OFFCURVE",
"314 709 CURVE SMOOTH",
"127 709 OFFCURVE",
"26 565 OFFCURVE",
"26 348 CURVE SMOOTH"
);
},
{
closed = 1;
nodes = (
"160 518 OFFCURVE",
"217 607 OFFCURVE",
"314 607 CURVE SMOOTH",
"413 607 OFFCURVE",
"473 518 OFFCURVE",
"473 351 CURVE SMOOTH",
"473 177 OFFCURVE",
"404 92 OFFCURVE",
"317 92 CURVE SMOOTH",
"223 92 OFFCURVE",
"160 176 OFFCURVE",
"160 350 CURVE SMOOTH"
);
}
);
};
layerId = "B61D43DE-5272-4FF4-A680-608B6BF5ED9E";
paths = (
{
closed = 1;
nodes = (
"400 603 OFFCURVE",
"463 507 OFFCURVE",
"462 354 CURVE SMOOTH",
"461 193 OFFCURVE",
"405 92 OFFCURVE",
"317 92 CURVE SMOOTH",
"211 92 OFFCURVE",
"173 196 OFFCURVE",
"173 286 CURVE",
"172 314 LINE",
"107 276 LINE",
"497 276 LINE",
"497 385 LINE",
"39 385 LINE",
"39 334 LINE",
"39 129 OFFCURVE",
"128 -10 OFFCURVE",
"313 -10 CURVE SMOOTH",
"486 -10 OFFCURVE",
"594 134 OFFCURVE",
"594 364 CURVE SMOOTH",
"594 579 OFFCURVE",
"486 714 OFFCURVE",
"315 714 CURVE SMOOTH",
"217 714 OFFCURVE",
"137 676 OFFCURVE",
"87 632 CURVE",
"143 529 LINE",
"164 555 OFFCURVE",
"217 603 OFFCURVE",
"299 603 CURVE SMOOTH"
);
}
);
width = 633;
}
);
leftKerningGroup = O;
leftMetricsKey = O;
rightKerningGroup = O;
rightMetricsKey = O;
unicode = 018F;
userData = {
com.typemytype.robofont.mark = (
0.6,
0.986,
1,
1
);
};
},
{
glyphname = T;
lastChange = "2018-05-25 05:57:50 +0000";
layers = (
{
anchors = (
{
name = btm;
position = "{244, 0}";
},
{
name = top;
position = "{244, 830}";
}
);
layerId = "B61D43DE-5272-4FF4-A680-608B6BF5ED9E";
paths = (
{
closed = 1;
nodes = (
"309 0 LINE",
"309 607 LINE",
"294 584 LINE",
"469 584 LINE",
"469 697 LINE",
"18 697 LINE",
"18 584 LINE",
"193 584 LINE",
"181 607 LINE",
"181 0 LINE"
);
}
);
width = 487;
}
);
leftKerningGroup = T;
rightKerningGroup = T;
unicode = 0054;
userData = {
com.typemytype.robofont.mark = (
0.656,
1,
0.6,
1
);
};
},
{
glyphname = Tbar;
lastChange = "2018-05-24 19:23:14 +0000";
layers = (
{
components = (
{
name = T;
transform = "{1, 0, 0, 1, -2, 0}";
}
);
layerId = "B61D43DE-5272-4FF4-A680-608B6BF5ED9E";
paths = (
{
closed = 1;
nodes = (
"436 316 LINE",
"436 401 LINE",
"69 401 LINE",
"69 316 LINE"
);
}
);
width = 482;
}
);
leftKerningGroup = T;
rightKerningGroup = T;
unicode = 0166;
userData = {
com.typemytype.robofont.mark = (
0.6,
0.986,
1,
1
);
};
},
{
glyphname = U;
lastChange = "2018-05-24 19:23:14 +0000";
layers = (
{
anchors = (
{
name = btm;
position = "{314, 0}";
},
{
name = top;
position = "{312, 830}";
}
);
layerId = "B61D43DE-5272-4FF4-A680-608B6BF5ED9E";
paths = (
{
closed = 1;
nodes = (
"68 49 OFFCURVE",
"179 -18 OFFCURVE",
"316 -18 CURVE SMOOTH",
"449 -18 OFFCURVE",
"557 49 OFFCURVE",
"557 249 CURVE SMOOTH",
"557 697 LINE",
"427 697 LINE",
"427 235 LINE SMOOTH",
"427 116 OFFCURVE",
"363 90 OFFCURVE",
"314 90 CURVE SMOOTH",
"267 90 OFFCURVE",
"198 117 OFFCURVE",
"198 235 CURVE SMOOTH",
"198 697 LINE",
"68 697 LINE",
"68 249 LINE"
);
}
);
width = 625;
}
);
leftKerningGroup = U;
rightKerningGroup = U;
unicode = 0055;
userData = {
com.typemytype.robofont.mark = (
0.656,
1,
0.6,
1
);
};
},
{
glyphname = Uhorn;
lastChange = "2018-05-24 19:23:14 +0000";
layers = (
{
anchors = (
{
name = btm;
position = "{316, 0}";
},
{
name = top;
position = "{314, 830}";
}
);
layerId = "B61D43DE-5272-4FF4-A680-608B6BF5ED9E";
paths = (
{
closed = 1;
nodes = (
"70 49 OFFCURVE",
"181 -18 OFFCURVE",
"318 -18 CURVE SMOOTH",
"451 -18 OFFCURVE",
"559 49 OFFCURVE",
"559 249 CURVE SMOOTH",
"559 697 LINE",
"429 697 LINE",
"429 235 LINE SMOOTH",
"429 116 OFFCURVE",
"365 90 OFFCURVE",
"316 90 CURVE SMOOTH",
"269 90 OFFCURVE",
"200 117 OFFCURVE",
"200 235 CURVE SMOOTH",
"200 697 LINE",
"70 697 LINE",
"70 249 LINE"
);
},
{
closed = 1;
nodes = (
"510 632 LINE",
"567 632 OFFCURVE",
"636 681 OFFCURVE",
"636 763 CURVE SMOOTH",
"636 804 OFFCURVE",
"634 819 OFFCURVE",
"629 835 CURVE",
"525 835 LINE",
"531 819 OFFCURVE",
"533 805 OFFCURVE",
"533 778 CURVE SMOOTH",
"533 721 OFFCURVE",
"499 697 OFFCURVE",
"446 697 CURVE"
);
}
);
width = 629;
}
);
leftKerningGroup = U;
rightKerningGroup = U;
unicode = 01AF;
userData = {
com.typemytype.robofont.mark = (
0.6,
0.609,
1,
1
);
};
},
{
glyphname = Uogonek;
lastChange = "2018-05-25 15:18:27 +0000";
layers = (
{
components = (
{
name = U;
}
);
layerId = "B61D43DE-5272-4FF4-A680-608B6BF5ED9E";
paths = (
{
closed = 1;
nodes = (
"191 -198 OFFCURVE",
"236 -240 OFFCURVE",
"341 -240 CURVE SMOOTH",
"397 -240 OFFCURVE",
"439 -224 OFFCURVE",
"451 -203 CURVE",
"425 -278 LINE",
"425 -68 LINE",
"471 -99 LINE",
"435 -140 OFFCURVE",
"390 -149 OFFCURVE",
"357 -149 CURVE SMOOTH",
"318 -149 OFFCURVE",
"295 -135 OFFCURVE",
"295 -101 CURVE SMOOTH",
"295 -58 OFFCURVE",
"355 -17 OFFCURVE",
"425 0 CURVE",
"372 33 LINE",
"315 6 LINE",
"220 -18 OFFCURVE",
"193 -77 OFFCURVE",
"192 -126 CURVE"
);
}
);
width = 625;
}
);
leftKerningGroup = U;
leftMetricsKey = U;
rightKerningGroup = U;
rightMetricsKey = U;
unicode = 0172;
userData = {
com.typemytype.robofont.mark = (
0.6,
0.986,
1,
1
);
};
},
{
color = 4;
glyphname = V;
lastChange = "2018-05-25 05:58:01 +0000";
layers = (
{
anchors = (
{
name = top;
position = "{274, 830}";
}
);
layerId = "B61D43DE-5272-4FF4-A680-608B6BF5ED9E";
paths = (
{
closed = 1;
nodes = (
"283 -2 LINE",
"559 697 LINE",
"422 697 LINE",
"316 390 LINE",
"258 216 LINE",
"297 216 LINE",
"239 390 LINE",
"129 697 LINE",
"-10 697 LINE",
"267 -2 LINE"
);
}
);
width = 549;
}
);
leftKerningGroup = V;
rightKerningGroup = V;
unicode = 0056;
userData = {
com.typemytype.robofont.mark = (
0.656,
1,
0.6,
1
);
};
},
{
glyphname = W;
lastChange = "2018-05-25 05:58:03 +0000";
layers = (
{
anchors = (
{
name = top;
position = "{400, 830}";
}
);
layerId = "B61D43DE-5272-4FF4-A680-608B6BF5ED9E";
paths = (
{
closed = 1;
nodes = (
"580 0 LINE",
"811 697 LINE",
"674 697 LINE",
"534 206 LINE",
"592 206 LINE",
"412 697 LINE",
"395 697 LINE",
"225 225 LINE",
"274 213 LINE",
"128 697 LINE",
"-10 697 LINE",
"223 1 LINE",
"240 1 LINE",
"418 443 LINE",
"383 443 LINE",
"564 0 LINE"
);
}
);
width = 801;
}
);
leftKerningGroup = W;
rightKerningGroup = W;
unicode = 0057;
userData = {
com.typemytype.robofont.guides = (
{
angle = 0;
isGlobal = 0;
magnetic = 5;
x = 0;
y = 615;
}
);
com.typemytype.robofont.mark = (
0.656,
1,
0.6,
1
);
};
},
{
color = 4;
glyphname = X;
lastChange = "2018-05-25 05:47:01 +0000";
layers = (
{
anchors = (
{
name = top;
position = "{280, 830}";
}
);
layerId = "B61D43DE-5272-4FF4-A680-608B6BF5ED9E";
paths = (
{
closed = 1;
nodes = (
"163 0 LINE",
"288 295 LINE",
"262 295 LINE",
"397 0 LINE",
"554 0 LINE",
"358 363 LINE",
"359 331 LINE",
"549 697 LINE",
"402 697 LINE",
"269 402 LINE",
"298 402 LINE",
"160 697 LINE",
"10 697 LINE",
"202 337 LINE",
"201 380 LINE",
"7 0 LINE"
);
}
);
width = 561;
}
);
leftKerningGroup = X;
rightKerningGroup = X;
unicode = 0058;
userData = {
com.typemytype.robofont.mark = (
0.656,
1,
0.6,
1
);
};
},
{
glyphname = Y;
lastChange = "2018-05-25 05:58:08 +0000";
layers = (
{
anchors = (
{
name = btm;
position = "{272, 0}";
},
{
name = top;
position = "{282, 830}";
}
);
layerId = "B61D43DE-5272-4FF4-A680-608B6BF5ED9E";
paths = (
{
closed = 1;
nodes = (
"333 0 LINE",
"333 332 LINE",
"204 332 LINE",
"204 0 LINE"
);
},
{
closed = 1;
nodes = (
"553 697 LINE",
"414 697 LINE",
"255 354 LINE",
"293 354 LINE",
"127 697 LINE",
"-15 697 LINE",
"272 155 LINE"
);
}
);
width = 538;
}
);
leftKerningGroup = Y;
rightKerningGroup = Y;
unicode = 0059;
userData = {
com.typemytype.robofont.mark = (
0.656,
1,
0.6,
1
);
};
},
{
glyphname = Z;
lastChange = "2018-05-25 05:47:19 +0000";
layers = (
{
anchors = (
{
name = btm;
position = "{254, 0}";
},
{
name = top;
position = "{280, 830}";
}
);
layerId = "B61D43DE-5272-4FF4-A680-608B6BF5ED9E";
paths = (
{
closed = 1;
nodes = (
"483 0 LINE",
"483 108 LINE",
"152 108 LINE",
"192 44 LINE",
"496 697 LINE",
"63 697 LINE",
"63 589 LINE",
"338 589 LINE",
"333 643 LINE",
"30 0 LINE"
);
}
);
width = 524;
}
);
leftKerningGroup = Z;
rightKerningGroup = Z;
unicode = 005A;
userData = {
com.typemytype.robofont.mark = (
0.656,
1,
0.6,
1
);
};
},
{
color = 4;
glyphname = a;
lastChange = "2018-05-25 04:37:44 +0000";
layers = (
{
anchors = (
{
name = btm;
position = "{216, 0}";
},
{
name = top;
position = "{242, 830}";
}
);
background = {
paths = (
{
closed = 1;
nodes = (
"-26 90 OFFCURVE",
"50 -14 OFFCURVE",
"172 -14 CURVE SMOOTH",
"238 -14 OFFCURVE",
"286 27 OFFCURVE",
"306 102 CURVE",
"306 0 LINE",
"426 0 LINE",
"426 498 LINE",
"306 498 LINE",
"306 492 OFFCURVE",
"306 419 OFFCURVE",
"306 412 CURVE",
"292 475 OFFCURVE",
"242 510 OFFCURVE",
"173 510 CURVE SMOOTH",
"40 510 OFFCURVE",
"-26 402 OFFCURVE",
"-26 248 CURVE SMOOTH"
);
},
{
closed = 1;
nodes = (
"105 371 OFFCURVE",
"157 409 OFFCURVE",
"204 409 CURVE SMOOTH",
"265 409 OFFCURVE",
"294 350 OFFCURVE",
"294 246 CURVE SMOOTH",
"294 132 OFFCURVE",
"249 85 OFFCURVE",
"201 85 CURVE SMOOTH",
"146 85 OFFCURVE",
"105 138 OFFCURVE",
"105 248 CURVE SMOOTH"
);
}
);
};
layerId = "B61D43DE-5272-4FF4-A680-608B6BF5ED9E";
paths = (
{
closed = 1;
nodes = (
"35 50 OFFCURVE",
"79 -14 OFFCURVE",
"171 -14 CURVE SMOOTH",
"235 -14 OFFCURVE",
"273 14 OFFCURVE",
"308 71 CURVE",
"317 0 LINE",
"426 0 LINE",
"426 327 LINE",
"426 438 OFFCURVE",
"385 510 OFFCURVE",
"242 510 CURVE SMOOTH",
"163 510 OFFCURVE",
"93 482 OFFCURVE",
"53 455 CURVE",
"93 359 LINE",
"116 385 OFFCURVE",
"172 405 OFFCURVE",
"221 405 CURVE SMOOTH",
"287 405 OFFCURVE",
"302 368 OFFCURVE",
"302 319 CURVE",
"303 292 LINE",
"78 292 OFFCURVE",
"35 193 OFFCURVE",
"35 132 CURVE SMOOTH"
);
},
{
closed = 1;
nodes = (
"156 207 OFFCURVE",
"249 219 OFFCURVE",
"304 214 CURVE",
"303 143 LINE",
"283 105 OFFCURVE",
"251 82 OFFCURVE",
"221 82 CURVE SMOOTH",
"180 82 OFFCURVE",
"156 96 OFFCURVE",
"156 144 CURVE SMOOTH"
);
}
);
width = 490;
}
);
leftKerningGroup = a;
rightKerningGroup = n;
unicode = 0061;
userData = {
com.typemytype.robofont.mark = (
0.656,
1,
0.6,
1
);
};
},
{
glyphname = aogonek;
lastChange = "2018-05-25 04:38:17 +0000";
layers = (
{
components = (
{
name = a;
}
);
guideLines = (
{
angle = 270;
position = "{425, 131}";
}
);
layerId = "B61D43DE-5272-4FF4-A680-608B6BF5ED9E";
paths = (
{
closed = 1;
nodes = (
"191 -198 OFFCURVE",
"236 -240 OFFCURVE",
"341 -240 CURVE SMOOTH",
"376 -240 OFFCURVE",
"405 -234 OFFCURVE",
"425 -224 CURVE",
"425 -134 LINE",
"401 -146 OFFCURVE",
"377 -149 OFFCURVE",
"357 -149 CURVE SMOOTH",
"318 -149 OFFCURVE",
"295 -135 OFFCURVE",
"295 -101 CURVE SMOOTH",
"295 -58 OFFCURVE",
"355 -17 OFFCURVE",
"425 0 CURVE",
"372 33 LINE",
"335 7 LINE",
"240 -17 OFFCURVE",
"193 -77 OFFCURVE",
"192 -126 CURVE SMOOTH"
);
}
);
width = 490;
}
);
leftKerningGroup = a;
leftMetricsKey = a;
rightKerningGroup = n;
rightMetricsKey = a;
unicode = 0105;
userData = {
com.typemytype.robofont.mark = (
0.6,
0.986,
1,
1
);
};
},
{
color = 4;
glyphname = ae;
lastChange = "2018-05-24 19:39:57 +0000";
layers = (
{
anchors = (
{
name = btm;
position = "{377, 0}";
},
{
name = top;
position = "{418, 830}";
}
);
background = {
paths = (
{
closed = 1;
nodes = (
"35 50 OFFCURVE",
"79 -14 OFFCURVE",
"171 -14 CURVE SMOOTH",
"235 -14 OFFCURVE",
"273 14 OFFCURVE",
"308 71 CURVE",
"317 0 LINE",
"426 0 LINE",
"425 327 LINE",
"425 438 OFFCURVE",
"385 510 OFFCURVE",
"242 510 CURVE SMOOTH",
"163 510 OFFCURVE",
"93 482 OFFCURVE",
"53 455 CURVE",
"93 359 LINE",
"116 385 OFFCURVE",
"172 405 OFFCURVE",
"221 405 CURVE SMOOTH",
"287 405 OFFCURVE",
"302 368 OFFCURVE",
"302 319 CURVE",
"303 292 LINE",
"78 292 OFFCURVE",
"35 193 OFFCURVE",
"35 132 CURVE SMOOTH"
);
}
);
};
layerId = "B61D43DE-5272-4FF4-A680-608B6BF5ED9E";
paths = (
{
closed = 1;
nodes = (
"620 -14 OFFCURVE",
"675 15 OFFCURVE",
"702 33 CURVE",
"662 128 LINE",
"639 102 OFFCURVE",
"584 81 OFFCURVE",
"543 81 CURVE",
"462 81 OFFCURVE",
"423 129 OFFCURVE",
"419 208 CURVE",
"720 208 LINE",
"721 223 OFFCURVE",
"721 241 OFFCURVE",
"721 255 CURVE SMOOTH",
"721 413 OFFCURVE",
"669 510 OFFCURVE",
"520 510 CURVE SMOOTH",
"370 510 OFFCURVE",
"314 388 OFFCURVE",
"314 243 CURVE SMOOTH",
"314 105 OFFCURVE",
"354 -14 OFFCURVE",
"522 -14 CURVE SMOOTH"
);
},
{
closed = 1;
nodes = (
"422 357 OFFCURVE",
"455 415 OFFCURVE",
"523 415 CURVE SMOOTH",
"564 415 OFFCURVE",
"595 392 OFFCURVE",
"595 287 CURVE",
"418 286 LINE"
);
},
{
closed = 1;
nodes = (
"35 50 OFFCURVE",
"79 -14 OFFCURVE",
"171 -14 CURVE SMOOTH",
"235 -14 OFFCURVE",
"333 13 OFFCURVE",
"373 119 CURVE",
"373 327 LINE",
"410 372 LINE",
"396 451 OFFCURVE",
"360 510 OFFCURVE",
"242 510 CURVE SMOOTH",
"163 510 OFFCURVE",
"93 482 OFFCURVE",
"53 455 CURVE",
"93 359 LINE",
"116 385 OFFCURVE",
"172 405 OFFCURVE",
"221 405 CURVE SMOOTH",
"287 405 OFFCURVE",
"302 368 OFFCURVE",
"302 319 CURVE",
"303 292 LINE",
"78 292 OFFCURVE",
"35 193 OFFCURVE",
"35 132 CURVE SMOOTH"
);
},
{
closed = 1;
nodes = (
"156 207 OFFCURVE",
"249 219 OFFCURVE",
"304 214 CURVE",
"303 143 LINE",
"283 105 OFFCURVE",
"251 82 OFFCURVE",
"221 82 CURVE SMOOTH",
"180 82 OFFCURVE",
"156 96 OFFCURVE",
"156 144 CURVE SMOOTH"
);
}
);
width = 765;
}
);
leftKerningGroup = a;
leftMetricsKey = a;
rightKerningGroup = e;
rightMetricsKey = e;
unicode = 00E6;
userData = {
com.typemytype.robofont.mark = (
0.656,
1,
0.6,
1
);
};
},
{
color = 4;
glyphname = b;
lastChange = "2018-05-25 04:51:46 +0000";
layers = (
{
anchors = (
{
name = top;
position = "{374, 830}";
}
);
background = {
paths = (
{
closed = 1;
nodes = (
"198 482 LINE",
"198 498 LINE",
"75 498 LINE",
"75 -218 LINE",
"200 -218 LINE",
"200 5 LINE",
"188 99 LINE",
"204 40 OFFCURVE",
"248 -14 OFFCURVE",
"322 -14 CURVE SMOOTH",
"441 -14 OFFCURVE",
"522 82 OFFCURVE",
"522 256 CURVE SMOOTH",
"522 411 OFFCURVE",
"464 511 OFFCURVE",
"332 511 CURVE SMOOTH",
"264 511 OFFCURVE",
"200 469 OFFCURVE",
"188 412 CURVE"
);
},
{
closed = 1;
nodes = (
"200 337 OFFCURVE",
"233 409 OFFCURVE",
"295 409 CURVE SMOOTH",
"346 409 OFFCURVE",
"391 363 OFFCURVE",
"391 251 CURVE SMOOTH",
"391 130 OFFCURVE",
"341 85 OFFCURVE",
"293 85 CURVE SMOOTH",
"235 85 OFFCURVE",
"200 149 OFFCURVE",
"200 243 CURVE SMOOTH"
);
}
);
};
layerId = "B61D43DE-5272-4FF4-A680-608B6BF5ED9E";
paths = (
{
closed = 1;
nodes = (
"188 0 LINE",
"188 38 LINE",
"188 99 LINE",
"203 39 OFFCURVE",
"250 -14 OFFCURVE",
"322 -14 CURVE",
"432 -14 OFFCURVE",
"522 72 OFFCURVE",
"522 251 CURVE SMOOTH",
"522 422 OFFCURVE",
"457 511 OFFCURVE",
"333 511 CURVE SMOOTH",
"276 511 OFFCURVE",
"204 480 OFFCURVE",
"188 412 CURVE",
"198 482 LINE",
"198 760 LINE",
"78 760 LINE",
"78 0 LINE"
);
},
{
closed = 1;
nodes = (
"200 337 OFFCURVE",
"233 409 OFFCURVE",
"295 409 CURVE SMOOTH",
"346 409 OFFCURVE",
"391 363 OFFCURVE",
"391 251 CURVE SMOOTH",
"391 130 OFFCURVE",
"342 85 OFFCURVE",
"293 85 CURVE SMOOTH",
"235 85 OFFCURVE",
"200 149 OFFCURVE",
"200 243 CURVE SMOOTH"
);
}
);
width = 566;
}
);
leftKerningGroup = h;
leftMetricsKey = h;
rightKerningGroup = o;
unicode = 0062;
userData = {
com.typemytype.robofont.mark = (
0.656,
1,
0.6,
1
);
};
},
{
glyphname = c;
lastChange = "2018-05-25 05:50:04 +0000";
layers = (
{
anchors = (
{
name = btm;
position = "{255, 0}";
},
{
name = top;
position = "{271, 830}";
}
);
layerId = "B61D43DE-5272-4FF4-A680-608B6BF5ED9E";
paths = (
{
closed = 1;
nodes = (
"46 108 OFFCURVE",
"114 -12 OFFCURVE",
"273 -12 CURVE SMOOTH",
"354 -12 OFFCURVE",
"411 24 OFFCURVE",
"430 44 CURVE",
"392 131 LINE",
"373 110 OFFCURVE",
"335 92 OFFCURVE",
"287 92 CURVE SMOOTH",
"214 92 OFFCURVE",
"180 145 OFFCURVE",
"180 246 CURVE SMOOTH",
"180 337 OFFCURVE",
"213 403 OFFCURVE",
"287 403 CURVE SMOOTH",
"321 403 OFFCURVE",
"354 384 OFFCURVE",
"383 354 CURVE",
"424 460 LINE",
"380 502 OFFCURVE",
"334 510 OFFCURVE",
"277 510 CURVE SMOOTH",
"127 510 OFFCURVE",
"46 385 OFFCURVE",
"46 247 CURVE SMOOTH"
);
}
);
width = 451;
}
);
leftKerningGroup = o;
rightKerningGroup = c;
unicode = 0063;
userData = {
com.typemytype.robofont.mark = (
0.656,
1,
0.6,
1
);
};
},
{
color = 4;
glyphname = d;
lastChange = "2018-05-25 15:12:10 +0000";
layers = (
{
anchors = (
{
name = btm;
position = "{279, 0}";
},
{
name = car;
position = "{591, 830}";
},
{
name = top;
position = "{201, 830}";
}
);
background = {
paths = (
{
closed = 1;
nodes = (
"492 0 LINE",
"492 316 LINE SMOOTH",
"492 371 OFFCURVE",
"535 409 OFFCURVE",
"582 409 CURVE SMOOTH",
"629 409 OFFCURVE",
"657 371 OFFCURVE",
"657 316 CURVE SMOOTH",
"657 0 LINE",
"785 0 LINE",
"785 329 LINE SMOOTH",
"785 442 OFFCURVE",
"736 510 OFFCURVE",
"636 510 CURVE SMOOTH",
"538 510 OFFCURVE",
"492 455 OFFCURVE",
"469 408 CURVE",
"483 388 LINE",
"487 510 LINE",
"487 762 LINE",
"369 762 LINE",
"369 0 LINE"
);
}
);
};
layerId = "B61D43DE-5272-4FF4-A680-608B6BF5ED9E";
paths = (
{
closed = 1;
nodes = (
"46 90 OFFCURVE",
"123 -14 OFFCURVE",
"244 -14 CURVE SMOOTH",
"314 -14 OFFCURVE",
"360 33 OFFCURVE",
"378 102 CURVE",
"378 0 LINE",
"487 0 LINE",
"487 760 LINE",
"369 760 LINE",
"369 485 LINE",
"378 412 LINE",
"364 475 OFFCURVE",
"314 510 OFFCURVE",
"246 510 CURVE SMOOTH",
"113 510 OFFCURVE",
"46 412 OFFCURVE",
"46 248 CURVE SMOOTH"
);
},
{
closed = 1;
nodes = (
"177 371 OFFCURVE",
"229 409 OFFCURVE",
"276 409 CURVE SMOOTH",
"337 409 OFFCURVE",
"366 350 OFFCURVE",
"366 246 CURVE SMOOTH",
"366 132 OFFCURVE",
"321 85 OFFCURVE",
"273 85 CURVE SMOOTH",
"218 85 OFFCURVE",
"177 138 OFFCURVE",
"177 248 CURVE SMOOTH"
);
}
);
width = 567;
}
);
leftKerningGroup = o;
rightKerningGroup = l;
unicode = 0064;
userData = {
com.typemytype.robofont.mark = (
0.656,
1,
0.6,
1
);
};
},
{
color = 4;
glyphname = eth;
lastChange = "2018-05-24 19:33:32 +0000";
layers = (
{
anchors = (
{
name = btm;
position = "{279, 0}";
},
{
name = car;
position = "{582, 797}";
},
{
name = top;
position = "{201, 830}";
}
);
background = {
paths = (
{
closed = 1;
nodes = (
"46 90 OFFCURVE",
"123 -14 OFFCURVE",
"244 -14 CURVE SMOOTH",
"314 -14 OFFCURVE",
"360 33 OFFCURVE",
"378 102 CURVE",
"378 0 LINE",
"491 0 LINE",
"491 762 LINE",
"369 762 LINE",
"369 485 LINE",
"378 412 LINE",
"364 475 OFFCURVE",
"314 510 OFFCURVE",
"246 510 CURVE SMOOTH",
"113 510 OFFCURVE",
"46 412 OFFCURVE",
"46 248 CURVE SMOOTH"
);
},
{
closed = 1;
nodes = (
"177 371 OFFCURVE",
"229 409 OFFCURVE",
"276 409 CURVE SMOOTH",
"337 409 OFFCURVE",
"366 350 OFFCURVE",
"366 246 CURVE SMOOTH",
"366 132 OFFCURVE",
"321 85 OFFCURVE",
"273 85 CURVE SMOOTH",
"218 85 OFFCURVE",
"177 138 OFFCURVE",
"177 248 CURVE SMOOTH"
);
}
);
};
layerId = "B61D43DE-5272-4FF4-A680-608B6BF5ED9E";
paths = (
{
closed = 1;
nodes = (
"292 626 LINE",
"321 657 LINE",
"384 740 LINE",
"311 789 LINE",
"247 709 LINE",
"216 666 LINE",
"150 581 LINE",
"223 534 LINE"
);
},
{
closed = 1;
nodes = (
"46 91 OFFCURVE",
"145 -10 OFFCURVE",
"262 -10 CURVE SMOOTH",
"373 -10 OFFCURVE",
"493 69 OFFCURVE",
"493 281 CURVE SMOOTH",
"493 447 OFFCURVE",
"445 610 OFFCURVE",
"307 693 CURVE",
"266 715 LINE",
"225 734 OFFCURVE",
"177 751 OFFCURVE",
"147 753 CURVE",
"116 668 LINE",
"138 667 OFFCURVE",
"180 651 OFFCURVE",
"216 631 CURVE",
"251 610 LINE",
"310 565 OFFCURVE",
"361 480 OFFCURVE",
"369 390 CURVE",
"360 427 OFFCURVE",
"323 475 OFFCURVE",
"251 475 CURVE SMOOTH",
"125 475 OFFCURVE",
"46 374 OFFCURVE",
"46 230 CURVE SMOOTH"
);
},
{
closed = 1;
nodes = (
"172 319 OFFCURVE",
"207 387 OFFCURVE",
"270 387 CURVE SMOOTH",
"327 387 OFFCURVE",
"357 347 OFFCURVE",
"366 305 CURVE",
"369 286 OFFCURVE",
"369 262 OFFCURVE",
"369 238 CURVE SMOOTH",
"369 150 OFFCURVE",
"332 82 OFFCURVE",
"270 82 CURVE SMOOTH",
"214 82 OFFCURVE",
"172 143 OFFCURVE",
"172 236 CURVE SMOOTH"
);
}
);
width = 540;
}
);
leftKerningGroup = eth;
rightKerningGroup = eth;
unicode = 00F0;
userData = {
com.typemytype.robofont.mark = (
0.656,
1,
0.6,
1
);
};
},
{
glyphname = dcroat;
lastChange = "2018-05-24 19:23:14 +0000";
layers = (
{
components = (
{
name = d;
}
);
layerId = "B61D43DE-5272-4FF4-A680-608B6BF5ED9E";
paths = (
{
closed = 1;
nodes = (
"556 588 LINE",
"556 679 LINE",
"280 679 LINE",
"280 588 LINE"
);
}
);
width = 568;
}
);
leftKerningGroup = o;
rightKerningGroup = l;
unicode = 0111;
userData = {
com.typemytype.robofont.mark = (
0.6,
0.986,
1,
1
);
};
},
{
glyphname = e;
lastChange = "2018-05-25 05:58:53 +0000";
layers = (
{
anchors = (
{
name = btm;
position = "{288, 0}";
},
{
name = top;
position = "{281, 830}";
}
);
layerId = "B61D43DE-5272-4FF4-A680-608B6BF5ED9E";
paths = (
{
closed = 1;
nodes = (
"378 -13 OFFCURVE",
"433 16 OFFCURVE",
"460 34 CURVE",
"420 129 LINE",
"397 103 OFFCURVE",
"342 82 OFFCURVE",
"301 82 CURVE",
"220 82 OFFCURVE",
"181 129 OFFCURVE",
"177 208 CURVE",
"478 208 LINE",
"479 223 OFFCURVE",
"479 241 OFFCURVE",
"479 255 CURVE SMOOTH",
"479 413 OFFCURVE",
"427 510 OFFCURVE",
"278 510 CURVE SMOOTH",
"128 510 OFFCURVE",
"46 388 OFFCURVE",
"46 243 CURVE SMOOTH",
"46 105 OFFCURVE",
"112 -13 OFFCURVE",
"280 -13 CURVE SMOOTH"
);
},
{
closed = 1;
nodes = (
"180 357 OFFCURVE",
"213 415 OFFCURVE",
"281 415 CURVE SMOOTH",
"322 415 OFFCURVE",
"353 392 OFFCURVE",
"353 287 CURVE",
"176 286 LINE"
);
}
);
width = 523;
}
);
leftKerningGroup = o;
leftMetricsKey = o;
rightKerningGroup = e;
unicode = 0065;
userData = {
com.typemytype.robofont.guides = (
{
angle = 0;
isGlobal = 0;
magnetic = 5;
x = 0;
y = 869;
}
);
com.typemytype.robofont.mark = (
0.656,
1,
0.6,
1
);
};
},
{
glyphname = eogonek;
lastChange = "2018-05-24 19:35:56 +0000";
layers = (
{
components = (
{
name = e;
}
);
layerId = "B61D43DE-5272-4FF4-A680-608B6BF5ED9E";
paths = (
{
closed = 1;
nodes = (
"187 -198 OFFCURVE",
"232 -240 OFFCURVE",
"337 -240 CURVE SMOOTH",
"372 -240 OFFCURVE",
"401 -234 OFFCURVE",
"421 -224 CURVE",
"421 -134 LINE",
"397 -146 OFFCURVE",
"373 -149 OFFCURVE",
"353 -149 CURVE SMOOTH",
"314 -149 OFFCURVE",
"291 -135 OFFCURVE",
"291 -101 CURVE SMOOTH",
"291 -58 OFFCURVE",
"345 -7 OFFCURVE",
"415 10 CURVE",
"362 43 LINE",
"330 20 LINE",
"235 -4 OFFCURVE",
"189 -77 OFFCURVE",
"188 -126 CURVE SMOOTH"
);
}
);
width = 523;
}
);
leftKerningGroup = o;
leftMetricsKey = e;
rightKerningGroup = e;
rightMetricsKey = e;
unicode = 0119;
userData = {
com.typemytype.robofont.mark = (
0.6,
0.986,
1,
1
);
};
},
{
glyphname = schwa;
lastChange = "2018-05-25 05:30:28 +0000";
layers = (
{
anchors = (
{
name = bottom;
position = "{242, -332}";
},
{
name = btm;
position = "{235, 498}";
},
{
name = top;
position = "{279, 830}";
}
);
layerId = "B61D43DE-5272-4FF4-A680-608B6BF5ED9E";
paths = (
{
closed = 1;
nodes = (
"145 516 OFFCURVE",
"90 487 OFFCURVE",
"63 469 CURVE",
"103 374 LINE",
"126 400 OFFCURVE",
"181 421 OFFCURVE",
"222 421 CURVE",
"303 421 OFFCURVE",
"342 369 OFFCURVE",
"346 290 CURVE",
"45 290 LINE",
"44 275 OFFCURVE",
"44 257 OFFCURVE",
"44 243 CURVE SMOOTH",
"44 85 OFFCURVE",
"96 -12 OFFCURVE",
"245 -12 CURVE SMOOTH",
"395 -12 OFFCURVE",
"477 110 OFFCURVE",
"477 255 CURVE SMOOTH",
"477 393 OFFCURVE",
"411 516 OFFCURVE",
"243 516 CURVE SMOOTH"
);
},
{
closed = 1;
nodes = (
"343 141 OFFCURVE",
"310 83 OFFCURVE",
"242 83 CURVE SMOOTH",
"201 83 OFFCURVE",
"170 106 OFFCURVE",
"170 211 CURVE",
"347 212 LINE"
);
}
);
width = 525;
}
);
leftKerningGroup = o;
rightKerningGroup = o;
unicode = 0259;
userData = {
com.typemytype.robofont.guides = (
{
angle = 0;
isGlobal = 0;
magnetic = 5;
x = 0;
y = 869;
}
);
com.typemytype.robofont.mark = (
0.6,
0.986,
1,
1
);
};
},
{
color = 4;
glyphname = f;
lastChange = "2018-05-25 05:56:40 +0000";
layers = (
{
anchors = (
{
name = top;
position = "{193, 1030}";
}
);
layerId = "B61D43DE-5272-4FF4-A680-608B6BF5ED9E";
paths = (
{
closed = 1;
nodes = (
"204 0 LINE",
"204 393 LINE",
"323 393 LINE",
"323 498 LINE",
"204 498 LINE",
"204 593 LINE SMOOTH",
"204 660 OFFCURVE",
"244 673 OFFCURVE",
"281 673 CURVE SMOOTH",
"302 673 OFFCURVE",
"338 664 OFFCURVE",
"353 645 CURVE",
"353 754 LINE",
"347 760 OFFCURVE",
"315 776 OFFCURVE",
"250 776 CURVE SMOOTH",
"183 776 OFFCURVE",
"81 744 OFFCURVE",
"81 590 CURVE SMOOTH",
"81 498 LINE",
"14 498 LINE",
"14 393 LINE",
"81 393 LINE",
"81 0 LINE"
);
}
);
width = 349;
}
);
leftKerningGroup = f;
rightKerningGroup = f;
unicode = 0066;
userData = {
com.typemytype.robofont.mark = (
0.656,
1,
0.6,
1
);
};
},
{
glyphname = g;
lastChange = "2018-05-25 04:40:40 +0000";
layers = (
{
anchors = (
{
name = top;
position = "{288, 830}";
}
);
background = {
paths = (
{
closed = 1;
nodes = (
"378 8 LINE",
"376 -108 OFFCURVE",
"338 -134 OFFCURVE",
"253 -134 CURVE SMOOTH",
"206 -134 OFFCURVE",
"152 -107 OFFCURVE",
"130 -88 CURVE",
"80 -198 LINE",
"104 -215 OFFCURVE",
"170 -248 OFFCURVE",
"262 -248 CURVE SMOOTH",
"412 -248 OFFCURVE",
"497 -153 OFFCURVE",
"497 0 CURVE SMOOTH",
"497 498 LINE",
"392 498 LINE",
"378 412 LINE",
"369 460 OFFCURVE",
"327 510 OFFCURVE",
"245 510 CURVE SMOOTH",
"135 510 OFFCURVE",
"46 432 OFFCURVE",
"46 248 CURVE SMOOTH",
"46 67 OFFCURVE",
"135 -6 OFFCURVE",
"248 -6 CURVE SMOOTH",
"329 -6 OFFCURVE",
"364 51 OFFCURVE",
"378 102 CURVE"
);
},
{
closed = 1;
nodes = (
"177 368 OFFCURVE",
"226 409 OFFCURVE",
"277 409 CURVE SMOOTH",
"338 409 OFFCURVE",
"366 345 OFFCURVE",
"366 250 CURVE SMOOTH",
"366 149 OFFCURVE",
"331 92 OFFCURVE",
"273 92 CURVE SMOOTH",
"216 92 OFFCURVE",
"177 141 OFFCURVE",
"177 249 CURVE SMOOTH"
);
}
);
};
layerId = "B61D43DE-5272-4FF4-A680-608B6BF5ED9E";
paths = (
{
closed = 1;
nodes = (
"378 24 LINE",
"376 -92 OFFCURVE",
"335 -115 OFFCURVE",
"250 -115 CURVE SMOOTH",
"191 -115 OFFCURVE",
"151 -91 OFFCURVE",
"127 -73 CURVE",
"80 -174 LINE",
"104 -191 OFFCURVE",
"170 -224 OFFCURVE",
"262 -224 CURVE SMOOTH",
"412 -224 OFFCURVE",
"495 -129 OFFCURVE",
"495 24 CURVE SMOOTH",
"495 498 LINE",
"392 498 LINE",
"378 412 LINE",
"369 460 OFFCURVE",
"327 510 OFFCURVE",
"245 510 CURVE SMOOTH",
"135 510 OFFCURVE",
"46 432 OFFCURVE",
"46 248 CURVE SMOOTH",
"46 67 OFFCURVE",
"135 -6 OFFCURVE",
"248 -6 CURVE SMOOTH",
"329 -6 OFFCURVE",
"364 51 OFFCURVE",
"378 102 CURVE"
);
},
{
closed = 1;
nodes = (
"177 368 OFFCURVE",
"226 409 OFFCURVE",
"277 409 CURVE SMOOTH",
"338 409 OFFCURVE",
"366 345 OFFCURVE",
"366 250 CURVE SMOOTH",
"366 149 OFFCURVE",
"331 92 OFFCURVE",
"273 92 CURVE SMOOTH",
"216 92 OFFCURVE",
"177 141 OFFCURVE",
"177 249 CURVE SMOOTH"
);
}
);
width = 561;
}
);
leftKerningGroup = o;
leftMetricsKey = d;
rightKerningGroup = g;
unicode = 0067;
userData = {
com.typemytype.robofont.mark = (
0.656,
1,
0.6,
1
);
};
},
{
glyphname = h;
lastChange = "2018-05-25 04:40:18 +0000";
layers = (
{
anchors = (
{
name = btm;
position = "{282, 0}";
},
{
name = top;
position = "{308, 872}";
}
);
background = {
paths = (
{
closed = 1;
nodes = (
"196 0 LINE",
"196 113 LINE",
"192 238 LINE",
"358 0 LINE",
"511 0 LINE",
"313 269 LINE",
"487 498 LINE",
"343 498 LINE",
"192 273 LINE",
"196 387 LINE",
"196 762 LINE",
"78 762 LINE",
"78 0 LINE"
);
}
);
};
layerId = "B61D43DE-5272-4FF4-A680-608B6BF5ED9E";
paths = (
{
closed = 1;
nodes = (
"201 0 LINE",
"201 316 LINE SMOOTH",
"201 371 OFFCURVE",
"244 409 OFFCURVE",
"291 409 CURVE SMOOTH",
"338 409 OFFCURVE",
"366 371 OFFCURVE",
"366 316 CURVE SMOOTH",
"366 0 LINE",
"494 0 LINE",
"494 329 LINE SMOOTH",
"494 442 OFFCURVE",
"445 510 OFFCURVE",
"345 510 CURVE SMOOTH",
"247 510 OFFCURVE",
"201 455 OFFCURVE",
"178 408 CURVE",
"192 388 LINE",
"196 510 LINE",
"196 762 LINE",
"78 762 LINE",
"78 0 LINE"
);
}
);
width = 572;
}
);
leftKerningGroup = h;
rightKerningGroup = n;
unicode = 0068;
userData = {
com.typemytype.robofont.mark = (
0.656,
1,
0.6,
1
);
};
},
{
glyphname = hbar;
lastChange = "2018-05-24 19:23:14 +0000";
layers = (
{
components = (
{
name = h;
}
);
layerId = "B61D43DE-5272-4FF4-A680-608B6BF5ED9E";
paths = (
{
closed = 1;
nodes = (
"294 588 LINE",
"294 679 LINE",
"18 679 LINE",
"18 588 LINE"
);
}
);
width = 572;
}
);
leftKerningGroup = h;
rightKerningGroup = n;
rightMetricsKey = h;
unicode = 0127;
userData = {
com.typemytype.robofont.mark = (
0.6,
0.986,
1,
1
);
};
},
{
glyphname = i;
lastChange = "2018-05-25 05:22:56 +0000";
layers = (
{
anchors = (
{
name = _top;
position = "{140, 831}";
},
{
name = btm;
position = "{143, 0}";
}
);
layerId = "B61D43DE-5272-4FF4-A680-608B6BF5ED9E";
paths = (
{
closed = 1;
nodes = (
"206 0 LINE",
"206 498 LINE",
"74 498 LINE",
"74 0 LINE"
);
},
{
closed = 1;
nodes = (
"210 579 LINE",
"210 712 LINE",
"70 712 LINE",
"70 579 LINE"
);
}
);
width = 280;
}
);
leftKerningGroup = i;
rightKerningGroup = i;
unicode = 0069;
userData = {
com.typemytype.robofont.mark = (
0.656,
1,
0.6,
1
);
};
},
{
glyphname = idotless;
lastChange = "2018-05-25 05:28:47 +0000";
layers = (
{
anchors = (
{
name = btm;
position = "{142, 0}";
},
{
name = top;
position = "{140, 830}";
}
);
layerId = "B61D43DE-5272-4FF4-A680-608B6BF5ED9E";
paths = (
{
closed = 1;
nodes = (
"206 0 LINE",
"206 498 LINE",
"74 498 LINE",
"74 0 LINE"
);
}
);
width = 280;
}
);
leftKerningGroup = i;
rightKerningGroup = i;
unicode = 0131;
userData = {
com.typemytype.robofont.mark = (
0.656,
1,
0.6,
1
);
};
},
{
glyphname = iogonek;
lastChange = "2018-05-24 19:23:14 +0000";
layers = (
{
components = (
{
name = idotless;
},
{
name = dotaccentcomb;
transform = "{1, 0, 0, 1, 140, 2}";
}
);
layerId = "B61D43DE-5272-4FF4-A680-608B6BF5ED9E";
paths = (
{
closed = 1;
nodes = (
"-3 -198 OFFCURVE",
"52 -250 OFFCURVE",
"157 -250 CURVE SMOOTH",
"213 -250 OFFCURVE",
"255 -234 OFFCURVE",
"267 -213 CURVE",
"241 -288 LINE",
"241 -68 LINE",
"287 -99 LINE",
"251 -140 OFFCURVE",
"206 -149 OFFCURVE",
"173 -149 CURVE SMOOTH",
"134 -149 OFFCURVE",
"111 -135 OFFCURVE",
"111 -101 CURVE SMOOTH",
"111 -59 OFFCURVE",
"132 -18 OFFCURVE",
"203 0 CURVE",
"150 33 LINE",
"93 6 LINE",
"14 -31 OFFCURVE",
"-1 -77 OFFCURVE",
"-2 -126 CURVE"
);
}
);
width = 285;
}
);
leftKerningGroup = i;
rightKerningGroup = i;
unicode = 012F;
},
{
glyphname = j;
lastChange = "2018-05-25 05:52:51 +0000";
layers = (
{
anchors = (
{
name = _top;
position = "{140.75, 830.078}";
},
{
name = top;
position = "{136.695, 832.031}";
}
);
layerId = "B61D43DE-5272-4FF4-A680-608B6BF5ED9E";
paths = (
{
closed = 1;
nodes = (
"50 -250 LINE",
"143 -244 OFFCURVE",
"199 -192 OFFCURVE",
"202 -63 CURVE",
"202 498 LINE",
"76 498 LINE",
"76 -58 LINE",
"76 -124 OFFCURVE",
"49 -173 OFFCURVE",
"7 -174 CURVE"
);
},
{
closed = 1;
nodes = (
"211 579 LINE",
"211 712 LINE",
"71 712 LINE",
"71 579 LINE"
);
}
);
width = 278;
}
);
leftKerningGroup = j;
rightKerningGroup = j;
unicode = 006A;
userData = {
com.typemytype.robofont.mark = (
0.656,
1,
0.6,
1
);
};
},
{
glyphname = jdotless;
lastChange = "2018-05-24 19:23:14 +0000";
layers = (
{
anchors = (
{
name = top;
position = "{138, 832}";
}
);
layerId = "B61D43DE-5272-4FF4-A680-608B6BF5ED9E";
paths = (
{
closed = 1;
nodes = (
"50 -250 LINE",
"143 -244 OFFCURVE",
"199 -192 OFFCURVE",
"202 -63 CURVE",
"202 498 LINE",
"76 498 LINE",
"76 -58 LINE",
"76 -124 OFFCURVE",
"49 -173 OFFCURVE",
"7 -174 CURVE"
);
}
);
width = 281;
}
);
leftKerningGroup = j;
rightKerningGroup = j;
unicode = 0237;
},
{
color = 4;
glyphname = k;
lastChange = "2018-05-25 04:53:19 +0000";
layers = (
{
anchors = (
{
name = btm;
position = "{264, 0}";
},
{
name = top;
position = "{291, 830}";
}
);
layerId = "B61D43DE-5272-4FF4-A680-608B6BF5ED9E";
paths = (
{
closed = 1;
nodes = (
"196 0 LINE",
"196 113 LINE",
"192 238 LINE",
"358 0 LINE",
"511 0 LINE",
"313 269 LINE",
"487 498 LINE",
"343 498 LINE",
"192 273 LINE",
"196 387 LINE",
"196 760 LINE",
"78 760 LINE",
"78 0 LINE"
);
}
);
width = 505;
}
);
leftKerningGroup = h;
leftMetricsKey = h;
rightKerningGroup = k;
unicode = 006B;
userData = {
com.typemytype.robofont.mark = (
0.656,
1,
0.6,
1
);
};
},
{
color = 4;
glyphname = kgreenlandic;
lastChange = "2018-05-24 19:37:08 +0000";
layers = (
{
anchors = (
{
name = btm;
position = "{287, -83}";
},
{
name = top;
position = "{287, 830}";
}
);
layerId = "B61D43DE-5272-4FF4-A680-608B6BF5ED9E";
paths = (
{
closed = 1;
nodes = (
"195 0 LINE",
"195 113 LINE",
"191 232 LINE",
"354 0 LINE",
"507 0 LINE",
"309 269 LINE",
"483 498 LINE",
"339 498 LINE",
"191 279 LINE",
"195 387 LINE",
"195 498 LINE",
"74 498 LINE",
"74 0 LINE"
);
}
);
width = 501;
}
);
leftKerningGroup = h;
leftMetricsKey = n;
rightKerningGroup = k;
rightMetricsKey = k;
unicode = 0138;
userData = {
com.typemytype.robofont.mark = (
0.6,
0.986,
1,
1
);
};
},
{
glyphname = l;
lastChange = "2018-05-25 15:11:51 +0000";
layers = (
{
anchors = (
{
name = btm;
position = "{132, 0}";
},
{
name = car;
position = "{320, 830}";
},
{
name = top;
position = "{157, 900}";
}
);
background = {
paths = (
{
closed = 1;
nodes = (
"187 0 LINE",
"187 38 LINE",
"187 99 LINE",
"202 39 OFFCURVE",
"249 -14 OFFCURVE",
"321 -14 CURVE",
"431 -14 OFFCURVE",
"521 72 OFFCURVE",
"521 251 CURVE SMOOTH",
"521 422 OFFCURVE",
"456 511 OFFCURVE",
"332 511 CURVE SMOOTH",
"275 511 OFFCURVE",
"203 480 OFFCURVE",
"187 412 CURVE",
"197 482 LINE",
"197 760 LINE",
"77 760 LINE",
"77 0 LINE"
);
},
{
closed = 1;
nodes = (
"199 337 OFFCURVE",
"232 409 OFFCURVE",
"294 409 CURVE SMOOTH",
"345 409 OFFCURVE",
"390 363 OFFCURVE",
"390 251 CURVE SMOOTH",
"390 130 OFFCURVE",
"341 85 OFFCURVE",
"292 85 CURVE SMOOTH",
"234 85 OFFCURVE",
"199 149 OFFCURVE",
"199 243 CURVE SMOOTH"
);
}
);
};
layerId = "B61D43DE-5272-4FF4-A680-608B6BF5ED9E";
paths = (
{
closed = 1;
nodes = (
"198 0 LINE",
"198 760 LINE",
"76 760 LINE",
"76 0 LINE"
);
}
);
width = 274;
}
);
leftKerningGroup = h;
rightKerningGroup = l;
unicode = 006C;
userData = {
com.typemytype.robofont.mark = (
0.656,
1,
0.6,
1
);
};
},
{
glyphname = ldot;
lastChange = "2018-05-24 19:23:14 +0000";
layers = (
{
components = (
{
name = l;
}
);
layerId = "B61D43DE-5272-4FF4-A680-608B6BF5ED9E";
paths = (
{
closed = 1;
nodes = (
"445 314 LINE",
"445 443 LINE",
"332 443 LINE",
"332 314 LINE"
);
}
);
width = 505;
}
);
leftKerningGroup = h;
rightKerningGroup = l;
rightMetricsKey = periodcentered.loclCAT.case;
unicode = 0140;
userData = {
com.typemytype.robofont.mark = (
0.6,
0.986,
1,
1
);
};
},
{
glyphname = lslash;
lastChange = "2018-05-25 05:43:14 +0000";
layers = (
{
components = (
{
name = l;
}
);
layerId = "B61D43DE-5272-4FF4-A680-608B6BF5ED9E";
paths = (
{
closed = 1;
nodes = (
"284 395 LINE",
"284 506 LINE",
"2 344 LINE",
"2 233 LINE"
);
}
);
width = 281;
}
);
leftKerningGroup = lslash;
rightKerningGroup = lslash;
unicode = 0142;
userData = {
com.typemytype.robofont.mark = (
0.6,
0.986,
1,
1
);
};
},
{
glyphname = m;
lastChange = "2018-05-25 04:30:45 +0000";
layers = (
{
anchors = (
{
name = btm;
position = "{428, 0}";
},
{
name = top;
position = "{442, 830}";
}
);
layerId = "B61D43DE-5272-4FF4-A680-608B6BF5ED9E";
paths = (
{
closed = 1;
nodes = (
"490 371 OFFCURVE",
"535 409 OFFCURVE",
"582 409 CURVE SMOOTH",
"630 409 OFFCURVE",
"650 371 OFFCURVE",
"650 316 CURVE SMOOTH",
"650 0 LINE",
"777 0 LINE",
"777 329 LINE SMOOTH",
"777 442 OFFCURVE",
"728 510 OFFCURVE",
"628 510 CURVE SMOOTH",
"535 510 OFFCURVE",
"491 458 OFFCURVE",
"467 413 CURVE",
"464 370 LINE",
"490 316 LINE"
);
},
{
closed = 1;
nodes = (
"202 0 LINE",
"202 316 LINE SMOOTH",
"202 371 OFFCURVE",
"242 411 OFFCURVE",
"290 411 CURVE SMOOTH",
"337 411 OFFCURVE",
"362 371 OFFCURVE",
"362 316 CURVE SMOOTH",
"362 0 LINE",
"490 0 LINE",
"490 326 LINE SMOOTH",
"490 440 OFFCURVE",
"440 510 OFFCURVE",
"339 510 CURVE SMOOTH",
"246 510 OFFCURVE",
"202 455 OFFCURVE",
"178 408 CURVE",
"194 388 LINE",
"189 498 LINE",
"74 498 LINE",
"74 0 LINE"
);
}
);
width = 847;
}
);
leftKerningGroup = n;
leftMetricsKey = n;
rightKerningGroup = n;
rightMetricsKey = n;
unicode = 006D;
userData = {
com.typemytype.robofont.mark = (
0.656,
1,
0.6,
1
);
};
},
{
glyphname = n;
lastChange = "2018-05-24 19:23:14 +0000";
layers = (
{
anchors = (
{
name = btm;
position = "{284, 0}";
},
{
name = top;
position = "{294, 830}";
}
);
layerId = "B61D43DE-5272-4FF4-A680-608B6BF5ED9E";
paths = (
{
closed = 1;
nodes = (
"202 0 LINE",
"202 318 LINE SMOOTH",
"202 373 OFFCURVE",
"243 411 OFFCURVE",
"290 411 CURVE SMOOTH",
"338 411 OFFCURVE",
"361 373 OFFCURVE",
"361 318 CURVE SMOOTH",
"361 0 LINE",
"489 0 LINE",
"489 329 LINE SMOOTH",
"489 442 OFFCURVE",
"440 510 OFFCURVE",
"339 510 CURVE SMOOTH",
"247 510 OFFCURVE",
"202 455 OFFCURVE",
"178 408 CURVE",
"194 388 LINE",
"190 498 LINE",
"74 498 LINE",
"74 0 LINE"
);
}
);
width = 559;
}
);
leftKerningGroup = n;
rightKerningGroup = n;
unicode = 006E;
userData = {
com.typemytype.robofont.mark = (
0.656,
1,
0.6,
1
);
};
},
{
glyphname = eng;
lastChange = "2018-05-24 19:23:14 +0000";
layers = (
{
anchors = (
{
name = btm;
position = "{284, 0}";
},
{
name = top;
position = "{294, 830}";
}
);
layerId = "B61D43DE-5272-4FF4-A680-608B6BF5ED9E";
paths = (
{
closed = 1;
nodes = (
"202 0 LINE",
"202 318 LINE SMOOTH",
"202 373 OFFCURVE",
"243 411 OFFCURVE",
"290 411 CURVE SMOOTH",
"338 411 OFFCURVE",
"361 373 OFFCURVE",
"361 318 CURVE SMOOTH",
"361 -58 LINE SMOOTH",
"361 -124 OFFCURVE",
"336 -173 OFFCURVE",
"294 -174 CURVE",
"337 -250 LINE",
"430 -244 OFFCURVE",
"486 -192 OFFCURVE",
"489 -63 CURVE SMOOTH",
"489 329 LINE SMOOTH",
"489 442 OFFCURVE",
"440 510 OFFCURVE",
"339 510 CURVE SMOOTH",
"263 510 OFFCURVE",
"219 472 OFFCURVE",
"192 433 CURVE",
"190 498 LINE",
"74 498 LINE",
"74 0 LINE"
);
}
);
width = 559;
}
);
leftKerningGroup = n;
leftMetricsKey = n;
rightKerningGroup = j;
rightMetricsKey = n;
unicode = 014B;
userData = {
com.typemytype.robofont.mark = (
0.6,
0.986,
1,
1
);
};
},
{
glyphname = o;
lastChange = "2018-05-25 05:47:49 +0000";
layers = (
{
anchors = (
{
name = btm;
position = "{278, 0}";
},
{
name = top;
position = "{276, 830}";
}
);
layerId = "B61D43DE-5272-4FF4-A680-608B6BF5ED9E";
paths = (
{
closed = 1;
nodes = (
"423 -10 OFFCURVE",
"506 92 OFFCURVE",
"506 250 CURVE SMOOTH",
"506 408 OFFCURVE",
"427 510 OFFCURVE",
"280 510 CURVE SMOOTH",
"133 510 OFFCURVE",
"46 414 OFFCURVE",
"46 250 CURVE SMOOTH",
"46 87 OFFCURVE",
"129 -10 OFFCURVE",
"276 -10 CURVE SMOOTH"
);
},
{
closed = 1;
nodes = (
"215 90 OFFCURVE",
"181 135 OFFCURVE",
"181 250 CURVE SMOOTH",
"181 365 OFFCURVE",
"215 411 OFFCURVE",
"278 411 CURVE SMOOTH",
"340 411 OFFCURVE",
"371 356 OFFCURVE",
"371 250 CURVE SMOOTH",
"371 144 OFFCURVE",
"340 90 OFFCURVE",
"278 90 CURVE SMOOTH"
);
}
);
width = 552;
}
);
leftKerningGroup = o;
rightKerningGroup = o;
unicode = 006F;
userData = {
com.typemytype.robofont.mark = (
0.656,
1,
0.6,
1
);
};
},
{
glyphname = ohorn;
lastChange = "2018-05-25 15:23:11 +0000";
layers = (
{
anchors = (
{
name = btm;
position = "{278, 0}";
},
{
name = top;
position = "{275, 830}";
}
);
components = (
{
name = o;
}
);
layerId = "B61D43DE-5272-4FF4-A680-608B6BF5ED9E";
paths = (
{
closed = 1;
nodes = (
"440 425 LINE",
"498 425 OFFCURVE",
"560 474 OFFCURVE",
"560 535 CURVE SMOOTH",
"560 576 OFFCURVE",
"558 591 OFFCURVE",
"553 607 CURVE",
"454 607 LINE",
"460 591 OFFCURVE",
"462 584 OFFCURVE",
"462 557 CURVE SMOOTH",
"462 510 OFFCURVE",
"435 487 OFFCURVE",
"376 487 CURVE"
);
}
);
width = 556;
}
);
leftKerningGroup = o;
leftMetricsKey = o;
rightKerningGroup = o;
unicode = 01A1;
userData = {
com.typemytype.robofont.mark = (
0.6,
0.609,
1,
1
);
};
},
{
glyphname = oogonek;
lastChange = "2018-05-25 05:27:31 +0000";
layers = (
{
anchors = (
{
name = btm;
position = "{0, 0}";
}
);
components = (
{
name = o;
}
);
layerId = "B61D43DE-5272-4FF4-A680-608B6BF5ED9E";
paths = (
{
closed = 1;
nodes = (
"147 -198 OFFCURVE",
"192 -240 OFFCURVE",
"297 -240 CURVE SMOOTH",
"332 -240 OFFCURVE",
"361 -234 OFFCURVE",
"381 -224 CURVE",
"381 -134 LINE",
"357 -146 OFFCURVE",
"333 -149 OFFCURVE",
"313 -149 CURVE SMOOTH",
"274 -149 OFFCURVE",
"251 -135 OFFCURVE",
"251 -101 CURVE SMOOTH",
"251 -58 OFFCURVE",
"305 -7 OFFCURVE",
"375 10 CURVE",
"322 43 LINE",
"290 20 LINE",
"195 -4 OFFCURVE",
"149 -77 OFFCURVE",
"148 -126 CURVE SMOOTH"
);
}
);
width = 556;
}
);
leftKerningGroup = o;
rightKerningGroup = o;
unicode = 01EB;
},
{
glyphname = oslash;
lastChange = "2018-05-24 19:23:14 +0000";
layers = (
{
components = (
{
name = o;
transform = "{1, 0, 0, 1, -1, 0}";
}
);
layerId = "B61D43DE-5272-4FF4-A680-608B6BF5ED9E";
paths = (
{
closed = 1;
nodes = (
"108 -61 LINE",
"187 62 LINE",
"201 88 LINE",
"394 395 LINE",
"429 412 LINE",
"500 524 LINE",
"441 562 LINE",
"372 456 LINE",
"346 414 LINE",
"170 123 LINE",
"139 119 LINE",
"49 -21 LINE"
);
}
);
width = 553;
}
);
leftKerningGroup = o;
rightKerningGroup = o;
unicode = 00F8;
userData = {
com.typemytype.robofont.mark = (
0.656,
1,
0.6,
1
);
};
},
{
color = 4;
glyphname = oe;
lastChange = "2018-05-24 19:36:34 +0000";
layers = (
{
anchors = (
{
name = btm;
position = "{844, 0}";
},
{
name = top;
position = "{837, 830}";
}
);
background = {
paths = (
{
closed = 1;
nodes = (
"181 361 OFFCURVE",
"215 416 OFFCURVE",
"278 416 CURVE SMOOTH",
"340 416 OFFCURVE",
"371 352 OFFCURVE",
"371 246 CURVE SMOOTH",
"371 140 OFFCURVE",
"340 74 OFFCURVE",
"278 74 CURVE SMOOTH",
"215 74 OFFCURVE",
"181 131 OFFCURVE",
"181 246 CURVE SMOOTH"
);
},
{
closed = 1;
nodes = (
"46 83 OFFCURVE",
"131 -18 OFFCURVE",
"278 -18 CURVE SMOOTH",
"425 -18 OFFCURVE",
"475 88 OFFCURVE",
"475 246 CURVE SMOOTH",
"475 404 OFFCURVE",
"425 510 OFFCURVE",
"278 510 CURVE SMOOTH",
"131 510 OFFCURVE",
"46 410 OFFCURVE",
"46 246 CURVE SMOOTH"
);
}
);
};
layerId = "B61D43DE-5272-4FF4-A680-608B6BF5ED9E";
paths = (
{
closed = 1;
nodes = (
"423 -10 OFFCURVE",
"471 117 OFFCURVE",
"471 250 CURVE SMOOTH",
"471 404 OFFCURVE",
"427 510 OFFCURVE",
"280 510 CURVE SMOOTH",
"133 510 OFFCURVE",
"46 414 OFFCURVE",
"46 250 CURVE SMOOTH",
"46 87 OFFCURVE",
"129 -10 OFFCURVE",
"276 -10 CURVE SMOOTH"
);
},
{
closed = 1;
nodes = (
"215 90 OFFCURVE",
"178 135 OFFCURVE",
"178 250 CURVE SMOOTH",
"178 365 OFFCURVE",
"215 411 OFFCURVE",
"278 411 CURVE SMOOTH",
"340 411 OFFCURVE",
"371 356 OFFCURVE",
"371 250 CURVE SMOOTH",
"371 144 OFFCURVE",
"340 90 OFFCURVE",
"278 90 CURVE SMOOTH"
);
},
{
closed = 1;
nodes = (
"707 -11 OFFCURVE",
"762 18 OFFCURVE",
"789 36 CURVE",
"749 131 LINE",
"726 105 OFFCURVE",
"671 84 OFFCURVE",
"630 84 CURVE",
"549 84 OFFCURVE",
"510 129 OFFCURVE",
"506 208 CURVE",
"807 208 LINE",
"808 223 OFFCURVE",
"808 241 OFFCURVE",
"808 255 CURVE SMOOTH",
"808 413 OFFCURVE",
"756 510 OFFCURVE",
"607 510 CURVE SMOOTH",
"457 510 OFFCURVE",
"394 388 OFFCURVE",
"394 243 CURVE SMOOTH",
"394 105 OFFCURVE",
"441 -11 OFFCURVE",
"609 -11 CURVE SMOOTH"
);
},
{
closed = 1;
nodes = (
"509 357 OFFCURVE",
"542 415 OFFCURVE",
"610 415 CURVE SMOOTH",
"651 415 OFFCURVE",
"682 392 OFFCURVE",
"682 287 CURVE",
"505 286 LINE"
);
}
);
width = 852;
}
);
leftKerningGroup = o;
leftMetricsKey = o;
rightKerningGroup = e;
rightMetricsKey = e;
unicode = 0153;
userData = {
com.typemytype.robofont.mark = (
0.656,
1,
0.6,
1
);
};
},
{
color = 4;
glyphname = p;
lastChange = "2018-05-25 04:50:57 +0000";
layers = (
{
anchors = (
{
name = top;
position = "{324, 830}";
}
);
background = {
paths = (
{
closed = 1;
nodes = (
"201 -252 LINE",
"201 64 LINE SMOOTH",
"201 119 OFFCURVE",
"244 157 OFFCURVE",
"291 157 CURVE SMOOTH",
"338 157 OFFCURVE",
"366 119 OFFCURVE",
"366 64 CURVE SMOOTH",
"366 -252 LINE",
"494 -252 LINE",
"494 77 LINE SMOOTH",
"494 190 OFFCURVE",
"445 258 OFFCURVE",
"345 258 CURVE SMOOTH",
"247 258 OFFCURVE",
"201 203 OFFCURVE",
"178 156 CURVE",
"192 136 LINE",
"196 258 LINE",
"196 510 LINE",
"78 510 LINE",
"78 -252 LINE"
);
}
);
};
layerId = "B61D43DE-5272-4FF4-A680-608B6BF5ED9E";
paths = (
{
closed = 1;
nodes = (
"197 482 LINE",
"197 498 LINE",
"78 498 LINE",
"78 -218 LINE",
"199 -218 LINE",
"199 5 LINE",
"187 99 LINE",
"203 40 OFFCURVE",
"247 -14 OFFCURVE",
"321 -14 CURVE SMOOTH",
"440 -14 OFFCURVE",
"521 82 OFFCURVE",
"521 256 CURVE SMOOTH",
"521 411 OFFCURVE",
"463 511 OFFCURVE",
"331 511 CURVE SMOOTH",
"263 511 OFFCURVE",
"199 469 OFFCURVE",
"187 412 CURVE"
);
},
{
closed = 1;
nodes = (
"199 337 OFFCURVE",
"232 409 OFFCURVE",
"294 409 CURVE SMOOTH",
"345 409 OFFCURVE",
"390 363 OFFCURVE",
"390 251 CURVE SMOOTH",
"390 130 OFFCURVE",
"340 85 OFFCURVE",
"292 85 CURVE SMOOTH",
"234 85 OFFCURVE",
"199 149 OFFCURVE",
"199 243 CURVE SMOOTH"
);
}
);
width = 564;
}
);
leftKerningGroup = p;
rightKerningGroup = o;
unicode = 0070;
userData = {
com.typemytype.robofont.mark = (
0.656,
1,
0.6,
1
);
};
},
{
color = 4;
glyphname = thorn;
lastChange = "2018-05-25 04:53:27 +0000";
layers = (
{
anchors = (
{
name = top;
position = "{307, 830}";
}
);
background = {
paths = (
{
closed = 1;
nodes = (
"188 0 LINE",
"188 38 LINE",
"188 99 LINE",
"203 39 OFFCURVE",
"250 -14 OFFCURVE",
"322 -14 CURVE",
"432 -14 OFFCURVE",
"522 72 OFFCURVE",
"522 251 CURVE SMOOTH",
"522 422 OFFCURVE",
"457 511 OFFCURVE",
"333 511 CURVE SMOOTH",
"276 511 OFFCURVE",
"204 480 OFFCURVE",
"188 412 CURVE",
"198 482 LINE",
"198 760 LINE",
"78 760 LINE",
"78 0 LINE"
);
},
{
closed = 1;
nodes = (
"200 337 OFFCURVE",
"233 409 OFFCURVE",
"295 409 CURVE SMOOTH",
"346 409 OFFCURVE",
"391 363 OFFCURVE",
"391 251 CURVE SMOOTH",
"391 130 OFFCURVE",
"342 85 OFFCURVE",
"293 85 CURVE SMOOTH",
"235 85 OFFCURVE",
"200 149 OFFCURVE",
"200 243 CURVE SMOOTH"
);
}
);
};
layerId = "B61D43DE-5272-4FF4-A680-608B6BF5ED9E";
paths = (
{
closed = 1;
nodes = (
"198 482 LINE",
"198 760 LINE",
"78 760 LINE",
"78 -218 LINE",
"199 -218 LINE",
"199 5 LINE",
"189 99 LINE",
"205 40 OFFCURVE",
"249 -14 OFFCURVE",
"323 -14 CURVE SMOOTH",
"442 -14 OFFCURVE",
"521 82 OFFCURVE",
"521 256 CURVE SMOOTH",
"521 411 OFFCURVE",
"465 511 OFFCURVE",
"333 511 CURVE SMOOTH",
"265 511 OFFCURVE",
"200 469 OFFCURVE",
"189 412 CURVE"
);
},
{
closed = 1;
nodes = (
"201 337 OFFCURVE",
"234 409 OFFCURVE",
"296 409 CURVE SMOOTH",
"347 409 OFFCURVE",
"390 363 OFFCURVE",
"390 251 CURVE SMOOTH",
"390 130 OFFCURVE",
"342 85 OFFCURVE",
"294 85 CURVE SMOOTH",
"236 85 OFFCURVE",
"201 149 OFFCURVE",
"201 243 CURVE SMOOTH"
);
}
);
width = 565;
}
);
leftKerningGroup = b;
leftMetricsKey = h;
rightKerningGroup = o;
rightMetricsKey = b;
unicode = 00FE;
userData = {
com.typemytype.robofont.mark = (
0.656,
1,
0.6,
1
);
};
},
{
color = 4;
glyphname = q;
lastChange = "2018-05-24 19:38:37 +0000";
layers = (
{
anchors = (
{
name = top;
position = "{273, 830}";
}
);
background = {
paths = (
{
closed = 1;
nodes = (
"368 469 OFFCURVE",
"304 511 OFFCURVE",
"236 511 CURVE SMOOTH",
"104 511 OFFCURVE",
"48 411 OFFCURVE",
"48 256 CURVE SMOOTH",
"48 82 OFFCURVE",
"127 -14 OFFCURVE",
"246 -14 CURVE SMOOTH",
"320 -14 OFFCURVE",
"364 40 OFFCURVE",
"380 99 CURVE",
"370 5 LINE",
"370 -218 LINE",
"493 -218 LINE",
"493 498 LINE",
"370 498 LINE",
"370 482 LINE",
"380 412 LINE"
);
},
{
closed = 1;
nodes = (
"368 149 OFFCURVE",
"333 85 OFFCURVE",
"275 85 CURVE SMOOTH",
"227 85 OFFCURVE",
"179 130 OFFCURVE",
"179 251 CURVE SMOOTH",
"179 363 OFFCURVE",
"222 409 OFFCURVE",
"273 409 CURVE SMOOTH",
"335 409 OFFCURVE",
"368 337 OFFCURVE",
"368 243 CURVE SMOOTH"
);
}
);
};
layerId = "B61D43DE-5272-4FF4-A680-608B6BF5ED9E";
paths = (
{
closed = 1;
nodes = (
"368 -218 LINE",
"491 -218 LINE",
"491 498 LINE",
"378 498 LINE",
"378 412 LINE",
"366 467 OFFCURVE",
"322 510 OFFCURVE",
"248 510 CURVE SMOOTH",
"132 510 OFFCURVE",
"46 433 OFFCURVE",
"46 248 CURVE SMOOTH",
"46 82 OFFCURVE",
"130 -14 OFFCURVE",
"241 -14 CURVE SMOOTH",
"303 -14 OFFCURVE",
"359 24 OFFCURVE",
"378 102 CURVE",
"368 5 LINE"
);
},
{
closed = 1;
nodes = (
"177 371 OFFCURVE",
"229 409 OFFCURVE",
"276 409 CURVE SMOOTH",
"337 409 OFFCURVE",
"366 350 OFFCURVE",
"366 246 CURVE SMOOTH",
"366 132 OFFCURVE",
"321 85 OFFCURVE",
"273 85 CURVE SMOOTH",
"218 85 OFFCURVE",
"177 138 OFFCURVE",
"177 248 CURVE SMOOTH"
);
}
);
width = 567;
}
);
leftKerningGroup = o;
rightKerningGroup = q;
unicode = 0071;
userData = {
com.typemytype.robofont.mark = (
0.656,
1,
0.6,
1
);
};
},
{
glyphname = r;
lastChange = "2018-05-24 19:23:14 +0000";
layers = (
{
anchors = (
{
name = btm;
position = "{141, 0}";
},
{
name = top;
position = "{218, 830}";
}
);
layerId = "B61D43DE-5272-4FF4-A680-608B6BF5ED9E";
paths = (
{
closed = 1;
nodes = (
"194 0 LINE",
"194 300 LINE SMOOTH",
"194 321 OFFCURVE",
"228 381 OFFCURVE",
"305 381 CURVE SMOOTH",
"336 381 OFFCURVE",
"343 376 OFFCURVE",
"354 365 CURVE",
"392 541 LINE",
"414 473 LINE",
"392 495 OFFCURVE",
"371 504 OFFCURVE",
"336 504 CURVE SMOOTH",
"249 504 OFFCURVE",
"207 444 OFFCURVE",
"192 410 CURVE",
"186 498 LINE",
"69 498 LINE",
"69 0 LINE"
);
}
);
width = 382;
}
);
leftKerningGroup = n;
rightKerningGroup = r;
unicode = 0072;
userData = {
com.typemytype.robofont.mark = (
0.656,
1,
0.6,
1
);
};
},
{
glyphname = s;
lastChange = "2018-05-25 04:31:40 +0000";
layers = (
{
anchors = (
{
name = btm;
position = "{209, 0}";
},
{
name = top;
position = "{231, 830}";
}
);
background = {
paths = (
{
closed = 1;
nodes = (
"390 464 OFFCURVE",
"327 506 OFFCURVE",
"230 506 CURVE SMOOTH",
"92 506 OFFCURVE",
"37 421 OFFCURVE",
"37 339 CURVE SMOOTH",
"37 270 OFFCURVE",
"82 237 OFFCURVE",
"154 207 CURVE SMOOTH",
"212 183 OFFCURVE",
"268 166 OFFCURVE",
"268 129 CURVE SMOOTH",
"268 100 OFFCURVE",
"251 86 OFFCURVE",
"200 86 CURVE SMOOTH",
"154 86 OFFCURVE",
"112 104 OFFCURVE",
"86 124 CURVE",
"52 34 LINE",
"70 16 OFFCURVE",
"131 -10 OFFCURVE",
"208 -10 CURVE SMOOTH",
"329 -10 OFFCURVE",
"393 47 OFFCURVE",
"393 137 CURVE SMOOTH",
"393 230 OFFCURVE",
"313 264 OFFCURVE",
"262 288 CURVE SMOOTH",
"200 317 OFFCURVE",
"162 327 OFFCURVE",
"162 364 CURVE SMOOTH",
"162 390 OFFCURVE",
"183 405 OFFCURVE",
"232 405 CURVE SMOOTH",
"286 405 OFFCURVE",
"339 375 OFFCURVE",
"368 351 CURVE",
"405 446 LINE"
);
}
);
};
layerId = "B61D43DE-5272-4FF4-A680-608B6BF5ED9E";
paths = (
{
closed = 1;
nodes = (
"55 29 OFFCURVE",
"101 -9 OFFCURVE",
"210 -9 CURVE SMOOTH",
"348 -9 OFFCURVE",
"401 66 OFFCURVE",
"401 148 CURVE SMOOTH",
"401 217 OFFCURVE",
"351 261 OFFCURVE",
"279 291 CURVE SMOOTH",
"221 315 OFFCURVE",
"171 332 OFFCURVE",
"171 369 CURVE SMOOTH",
"171 398 OFFCURVE",
"188 412 OFFCURVE",
"239 412 CURVE SMOOTH",
"285 412 OFFCURVE",
"327 390 OFFCURVE",
"353 370 CURVE",
"387 460 LINE",
"369 478 OFFCURVE",
"312 508 OFFCURVE",
"235 508 CURVE SMOOTH",
"114 508 OFFCURVE",
"46 449 OFFCURVE",
"46 359 CURVE SMOOTH",
"46 266 OFFCURVE",
"126 234 OFFCURVE",
"177 210 CURVE SMOOTH",
"239 181 OFFCURVE",
"277 164 OFFCURVE",
"277 133 CURVE SMOOTH",
"277 110 OFFCURVE",
"260 89 OFFCURVE",
"213 89 CURVE SMOOTH",
"152 89 OFFCURVE",
"106 118 OFFCURVE",
"77 142 CURVE",
"40 47 LINE"
);
}
);
width = 437;
}
);
leftKerningGroup = s;
rightKerningGroup = s;
unicode = 0073;
userData = {
com.typemytype.robofont.mark = (
0.656,
1,
0.6,
1
);
};
},
{
color = 4;
glyphname = germandbls;
lastChange = "2018-05-25 05:51:26 +0000";
layers = (
{
layerId = "B61D43DE-5272-4FF4-A680-608B6BF5ED9E";
paths = (
{
closed = 1;
nodes = (
"303 6 LINE",
"327 -8 OFFCURVE",
"353 -8 OFFCURVE",
"368 -8 CURVE SMOOTH",
"531 -8 OFFCURVE",
"574 113 OFFCURVE",
"574 234 CURVE SMOOTH",
"574 347 OFFCURVE",
"513 427 OFFCURVE",
"393 427 CURVE",
"393 418 LINE",
"470 418 OFFCURVE",
"513 498 OFFCURVE",
"513 592 CURVE SMOOTH",
"513 694 OFFCURVE",
"456 776 OFFCURVE",
"308 776 CURVE SMOOTH",
"213 776 OFFCURVE",
"93 709 OFFCURVE",
"93 544 CURVE SMOOTH",
"93 0 LINE",
"219 0 LINE",
"219 554 LINE SMOOTH",
"219 601 OFFCURVE",
"242 678 OFFCURVE",
"302 678 CURVE SMOOTH",
"342 678 OFFCURVE",
"383 663 OFFCURVE",
"383 584 CURVE SMOOTH",
"383 466 OFFCURVE",
"338 449 OFFCURVE",
"296 449 CURVE",
"313 370 LINE",
"411 370 OFFCURVE",
"438 305 OFFCURVE",
"438 222 CURVE SMOOTH",
"438 141 OFFCURVE",
"414 95 OFFCURVE",
"352 95 CURVE SMOOTH",
"326 95 OFFCURVE",
"296 105 OFFCURVE",
"292 106 CURVE"
);
},
{
closed = 1;
nodes = (
"42 394 LINE",
"113 394 LINE",
"113 394 OFFCURVE",
"113 498 OFFCURVE",
"113 498 CURVE",
"42 498 LINE"
);
}
);
width = 590;
}
);
leftKerningGroup = h;
rightKerningGroup = germandbls;
unicode = 00DF;
userData = {
com.typemytype.robofont.mark = (
0.656,
1,
0.6,
1
);
};
},
{
glyphname = t;
lastChange = "2018-05-25 15:10:59 +0000";
layers = (
{
anchors = (
{
name = btm;
position = "{203, 0}";
},
{
name = car;
position = "{327, 830}";
},
{
name = top;
position = "{148, 945}";
}
);
layerId = "B61D43DE-5272-4FF4-A680-608B6BF5ED9E";
paths = (
{
closed = 1;
nodes = (
"88 43 OFFCURVE",
"121 -15 OFFCURVE",
"234 -15 CURVE SMOOTH",
"267 -15 OFFCURVE",
"335 0 OFFCURVE",
"366 22 CURVE",
"342 123 LINE",
"323 107 OFFCURVE",
"286 88 OFFCURVE",
"257 88 CURVE SMOOTH",
"228 88 OFFCURVE",
"211 107 OFFCURVE",
"211 165 CURVE SMOOTH",
"211 393 LINE",
"334 393 LINE",
"334 498 LINE",
"211 498 LINE",
"211 650 LINE",
"95 603 LINE",
"88 498 LINE",
"25 498 LINE",
"25 393 LINE",
"88 393 LINE",
"88 162 LINE SMOOTH"
);
}
);
width = 389;
}
);
leftKerningGroup = t;
rightKerningGroup = t;
unicode = 0074;
userData = {
com.typemytype.robofont.mark = (
0.656,
1,
0.6,
1
);
};
},
{
glyphname = tbar;
lastChange = "2018-05-25 15:23:39 +0000";
layers = (
{
components = (
{
name = t;
transform = "{1, 0, 0, 1, -2, 0}";
}
);
layerId = "B61D43DE-5272-4FF4-A680-608B6BF5ED9E";
paths = (
{
closed = 1;
nodes = (
"332 214 LINE",
"332 319 LINE",
"23 319 LINE",
"23 214 LINE"
);
}
);
width = 384;
}
);
leftKerningGroup = t;
rightKerningGroup = t;
unicode = 0167;
userData = {
com.typemytype.robofont.mark = (
0.6,
0.986,
1,
1
);
};
},
{
glyphname = u;
lastChange = "2018-05-25 04:32:21 +0000";
layers = (
{
anchors = (
{
name = btm;
position = "{286, 0}";
},
{
name = top;
position = "{279, 830}";
}
);
layerId = "B61D43DE-5272-4FF4-A680-608B6BF5ED9E";
paths = (
{
closed = 1;
nodes = (
"354 498 LINE",
"354 180 LINE SMOOTH",
"354 125 OFFCURVE",
"313 87 OFFCURVE",
"266 87 CURVE SMOOTH",
"218 87 OFFCURVE",
"195 125 OFFCURVE",
"195 180 CURVE SMOOTH",
"195 498 LINE",
"70 498 LINE",
"70 169 LINE SMOOTH",
"70 56 OFFCURVE",
"116 -12 OFFCURVE",
"217 -12 CURVE SMOOTH",
"310 -12 OFFCURVE",
"354 43 OFFCURVE",
"378 90 CURVE",
"362 110 LINE",
"366 0 LINE",
"479 0 LINE",
"479 498 LINE"
);
}
);
width = 553;
}
);
leftKerningGroup = u;
rightKerningGroup = u;
unicode = 0075;
userData = {
com.typemytype.robofont.mark = (
0.656,
1,
0.6,
1
);
};
},
{
glyphname = uhorn;
lastChange = "2018-05-24 19:23:14 +0000";
layers = (
{
anchors = (
{
name = btm;
position = "{283, 0}";
},
{
name = top;
position = "{276, 830}";
}
);
layerId = "B61D43DE-5272-4FF4-A680-608B6BF5ED9E";
paths = (
{
closed = 1;
nodes = (
"354 498 LINE",
"354 180 LINE SMOOTH",
"354 125 OFFCURVE",
"313 87 OFFCURVE",
"266 87 CURVE SMOOTH",
"218 87 OFFCURVE",
"195 125 OFFCURVE",
"195 180 CURVE SMOOTH",
"195 498 LINE",
"70 498 LINE",
"70 169 LINE SMOOTH",
"70 56 OFFCURVE",
"116 -12 OFFCURVE",
"217 -12 CURVE SMOOTH",
"310 -12 OFFCURVE",
"354 43 OFFCURVE",
"378 90 CURVE",
"362 110 LINE",
"366 0 LINE",
"479 0 LINE",
"479 498 LINE"
);
},
{
closed = 1;
nodes = (
"444 443 LINE",
"493 443 OFFCURVE",
"568 474 OFFCURVE",
"568 535 CURVE SMOOTH",
"568 576 OFFCURVE",
"566 591 OFFCURVE",
"561 607 CURVE",
"462 607 LINE",
"468 591 OFFCURVE",
"470 584 OFFCURVE",
"470 557 CURVE SMOOTH",
"470 510 OFFCURVE",
"429 498 OFFCURVE",
"380 498 CURVE"
);
}
);
width = 568;
}
);
leftKerningGroup = u;
rightKerningGroup = u;
unicode = 01B0;
userData = {
com.typemytype.robofont.mark = (
0.6,
0.609,
1,
1
);
};
},
{
glyphname = uogonek;
lastChange = "2018-05-24 19:23:14 +0000";
layers = (
{
components = (
{
name = u;
}
);
layerId = "B61D43DE-5272-4FF4-A680-608B6BF5ED9E";
paths = (
{
closed = 1;
nodes = (
"242 -198 OFFCURVE",
"287 -240 OFFCURVE",
"392 -240 CURVE SMOOTH",
"427 -240 OFFCURVE",
"456 -234 OFFCURVE",
"476 -224 CURVE",
"476 -134 LINE",
"452 -146 OFFCURVE",
"428 -149 OFFCURVE",
"408 -149 CURVE SMOOTH",
"369 -149 OFFCURVE",
"346 -135 OFFCURVE",
"346 -101 CURVE SMOOTH",
"346 -58 OFFCURVE",
"406 -17 OFFCURVE",
"476 0 CURVE",
"423 33 LINE",
"386 10 LINE",
"291 -14 OFFCURVE",
"244 -77 OFFCURVE",
"243 -126 CURVE SMOOTH"
);
}
);
width = 553;
}
);
leftKerningGroup = u;
rightKerningGroup = u;
unicode = 0173;
userData = {
com.typemytype.robofont.mark = (
0.6,
0.986,
1,
1
);
};
},
{
glyphname = v;
lastChange = "2018-05-25 05:57:08 +0000";
layers = (
{
anchors = (
{
name = top;
position = "{235, 830}";
}
);
layerId = "B61D43DE-5272-4FF4-A680-608B6BF5ED9E";
paths = (
{
closed = 1;
nodes = (
"285 0 LINE",
"477 498 LINE",
"345 498 LINE",
"262 249 LINE",
"242 167 LINE",
"220 249 LINE",
"134 498 LINE",
"-6 498 LINE",
"196 0 LINE"
);
}
);
width = 471;
}
);
leftKerningGroup = v;
rightKerningGroup = v;
unicode = 0076;
userData = {
com.typemytype.robofont.mark = (
0.656,
1,
0.6,
1
);
};
},
{
color = 4;
glyphname = w;
lastChange = "2018-05-25 05:57:17 +0000";
layers = (
{
anchors = (
{
name = top;
position = "{358, 830}";
}
);
layerId = "B61D43DE-5272-4FF4-A680-608B6BF5ED9E";
paths = (
{
closed = 1;
nodes = (
"170 0 LINE",
"270 0 LINE",
"344 271 LINE",
"359 352 LINE",
"375 271 LINE",
"456 0 LINE",
"557 0 LINE",
"714 498 LINE",
"590 498 LINE",
"532 261 LINE",
"510 156 LINE",
"486 261 LINE",
"417 498 LINE",
"311 498 LINE",
"246 261 LINE",
"224 156 LINE",
"200 261 LINE",
"140 498 LINE",
"11 498 LINE"
);
}
);
width = 714;
}
);
leftKerningGroup = w;
rightKerningGroup = w;
unicode = 0077;
userData = {
com.typemytype.robofont.guides = (
{
angle = 0;
isGlobal = 0;
magnetic = 5;
x = 0;
y = 554;
},
{
angle = 90;
isGlobal = 0;
magnetic = 5;
x = -66;
y = 0;
}
);
com.typemytype.robofont.mark = (
0.656,
1,
0.6,
1
);
};
},
{
glyphname = x;
lastChange = "2018-05-25 05:57:25 +0000";
layers = (
{
anchors = (
{
name = top;
position = "{235, 830}";
}
);
layerId = "B61D43DE-5272-4FF4-A680-608B6BF5ED9E";
paths = (
{
closed = 1;
nodes = (
"150 0 LINE",
"212 134 LINE",
"230 179 LINE",
"252 134 LINE",
"324 0 LINE",
"465 0 LINE",
"357 190 LINE",
"321 250 LINE",
"357 313 LINE",
"457 498 LINE",
"324 498 LINE",
"265 372 LINE",
"239 314 LINE",
"214 372 LINE",
"154 498 LINE",
"12 498 LINE",
"114 309 LINE",
"152 245 LINE",
"115 184 LINE",
"12 0 LINE"
);
}
);
width = 475;
}
);
leftKerningGroup = x;
rightKerningGroup = x;
unicode = 0078;
userData = {
com.typemytype.robofont.guides = (
{
angle = 90;
isGlobal = 0;
magnetic = 5;
x = 233;
y = 0;
},
{
angle = 90;
isGlobal = 0;
magnetic = 5;
x = 731;
y = 0;
}
);
com.typemytype.robofont.mark = (
0.656,
1,
0.6,
1
);
};
},
{
glyphname = y;
lastChange = "2018-05-25 05:57:33 +0000";
layers = (
{
anchors = (
{
name = btm;
position = "{396, 0}";
},
{
name = top;
position = "{237, 830}";
}
);
layerId = "B61D43DE-5272-4FF4-A680-608B6BF5ED9E";
paths = (
{
closed = 1;
nodes = (
"103 -189 LINE",
"229 -189 LINE",
"483 498 LINE",
"349 498 LINE",
"274 276 LINE",
"242 161 LINE",
"213 276 LINE",
"142 498 LINE",
"0 498 LINE",
"184 34 LINE"
);
}
);
width = 477;
}
);
leftKerningGroup = y;
rightKerningGroup = y;
unicode = 0079;
userData = {
com.typemytype.robofont.mark = (
0.656,
1,
0.6,
1
);
};
},
{
glyphname = z;
lastChange = "2018-05-25 04:33:47 +0000";
layers = (
{
anchors = (
{
name = btm;
position = "{218, 0}";
},
{
name = top;
position = "{243, 830}";
}
);
layerId = "B61D43DE-5272-4FF4-A680-608B6BF5ED9E";
paths = (
{
closed = 1;
nodes = (
"411 0 LINE",
"411 91 LINE",
"168 91 LINE",
"183 49 LINE",
"431 498 LINE",
"55 498 LINE",
"55 403 LINE",
"266 403 LINE",
"266 452 LINE",
"13 0 LINE"
);
}
);
width = 444;
}
);
leftKerningGroup = z;
rightKerningGroup = z;
unicode = 007A;
userData = {
com.typemytype.robofont.mark = (
0.656,
1,
0.6,
1
);
};
},
{
glyphname = a.ss01;
lastChange = "2018-05-25 05:32:05 +0000";
layers = (
{
layerId = "B61D43DE-5272-4FF4-A680-608B6BF5ED9E";
paths = (
{
closed = 1;
nodes = (
"46 90 OFFCURVE",
"122 -14 OFFCURVE",
"244 -14 CURVE SMOOTH",
"310 -14 OFFCURVE",
"358 27 OFFCURVE",
"378 102 CURVE",
"378 0 LINE",
"498 0 LINE",
"498 498 LINE",
"378 498 LINE",
"378 492 OFFCURVE",
"378 419 OFFCURVE",
"378 412 CURVE",
"364 475 OFFCURVE",
"314 510 OFFCURVE",
"245 510 CURVE SMOOTH",
"112 510 OFFCURVE",
"46 402 OFFCURVE",
"46 248 CURVE SMOOTH"
);
},
{
closed = 1;
nodes = (
"177 371 OFFCURVE",
"229 409 OFFCURVE",
"276 409 CURVE SMOOTH",
"337 409 OFFCURVE",
"366 350 OFFCURVE",
"366 246 CURVE SMOOTH",
"366 132 OFFCURVE",
"321 85 OFFCURVE",
"273 85 CURVE SMOOTH",
"218 85 OFFCURVE",
"177 138 OFFCURVE",
"177 248 CURVE SMOOTH"
);
}
);
width = 574;
}
);
leftKerningGroup = o;
rightKerningGroup = n;
userData = {
com.typemytype.robofont.mark = (
0.656,
1,
0.6,
1
);
};
},
{
glyphname = aogonek.ss01;
lastChange = "2018-05-25 05:33:01 +0000";
layers = (
{
components = (
{
name = a.ss01;
}
);
layerId = "B61D43DE-5272-4FF4-A680-608B6BF5ED9E";
paths = (
{
closed = 1;
nodes = (
"262 -198 OFFCURVE",
"307 -240 OFFCURVE",
"412 -240 CURVE SMOOTH",
"447 -240 OFFCURVE",
"476 -234 OFFCURVE",
"496 -224 CURVE",
"496 -134 LINE",
"472 -146 OFFCURVE",
"448 -149 OFFCURVE",
"428 -149 CURVE SMOOTH",
"389 -149 OFFCURVE",
"366 -135 OFFCURVE",
"366 -101 CURVE SMOOTH",
"366 -58 OFFCURVE",
"426 -17 OFFCURVE",
"496 0 CURVE",
"443 33 LINE",
"406 10 LINE",
"311 -14 OFFCURVE",
"264 -77 OFFCURVE",
"263 -126 CURVE SMOOTH"
);
}
);
width = 574;
}
);
leftKerningGroup = o;
rightKerningGroup = n;
userData = {
com.typemytype.robofont.mark = (
0.6,
0.986,
1,
1
);
};
},
{
color = 4;
glyphname = ordfeminine;
lastChange = "2018-05-25 05:33:54 +0000";
layers = (
{
layerId = "B61D43DE-5272-4FF4-A680-608B6BF5ED9E";
paths = (
{
closed = 1;
nodes = (
"31 327 OFFCURVE",
"71 274 OFFCURVE",
"153 274 CURVE SMOOTH",
"210 274 OFFCURVE",
"244 298 OFFCURVE",
"276 345 CURVE",
"284 286 LINE",
"381 286 LINE",
"381 556 LINE",
"381 648 OFFCURVE",
"345 707 OFFCURVE",
"217 707 CURVE SMOOTH",
"146 707 OFFCURVE",
"83 684 OFFCURVE",
"47 662 CURVE",
"83 582 LINE",
"104 604 OFFCURVE",
"154 620 OFFCURVE",
"198 620 CURVE SMOOTH",
"257 620 OFFCURVE",
"270 590 OFFCURVE",
"270 549 CURVE",
"271 527 LINE",
"70 527 OFFCURVE",
"31 445 OFFCURVE",
"31 395 CURVE SMOOTH"
);
},
{
closed = 1;
nodes = (
"140 457 OFFCURVE",
"223 467 OFFCURVE",
"272 463 CURVE",
"271 404 LINE",
"253 373 OFFCURVE",
"225 354 OFFCURVE",
"198 354 CURVE SMOOTH",
"161 354 OFFCURVE",
"140 365 OFFCURVE",
"140 405 CURVE SMOOTH"
);
}
);
width = 421;
}
);
leftKerningGroup = ordfeminine;
rightKerningGroup = ordfeminine;
unicode = 00AA;
},
{
color = 4;
glyphname = ordmasculine;
lastChange = "2018-05-25 05:34:04 +0000";
layers = (
{
layerId = "B61D43DE-5272-4FF4-A680-608B6BF5ED9E";
paths = (
{
closed = 1;
nodes = (
"379 278 OFFCURVE",
"453 362 OFFCURVE",
"453 492 CURVE SMOOTH",
"453 623 OFFCURVE",
"382 707 OFFCURVE",
"251 707 CURVE SMOOTH",
"119 707 OFFCURVE",
"41 628 OFFCURVE",
"41 492 CURVE SMOOTH",
"41 358 OFFCURVE",
"115 278 OFFCURVE",
"247 278 CURVE SMOOTH"
);
},
{
closed = 1;
nodes = (
"192 360 OFFCURVE",
"162 397 OFFCURVE",
"162 492 CURVE SMOOTH",
"162 587 OFFCURVE",
"192 625 OFFCURVE",
"249 625 CURVE SMOOTH",
"304 625 OFFCURVE",
"332 580 OFFCURVE",
"332 492 CURVE SMOOTH",
"332 405 OFFCURVE",
"304 360 OFFCURVE",
"249 360 CURVE SMOOTH"
);
}
);
width = 494;
}
);
leftKerningGroup = ordmasculine;
rightKerningGroup = ordmasculine;
unicode = 00BA;
},
{
glyphname = Delta;
lastChange = "2018-05-25 05:34:18 +0000";
layers = (
{
layerId = "B61D43DE-5272-4FF4-A680-608B6BF5ED9E";
paths = (
{
closed = 1;
nodes = (
"64 0 LINE",
"725 0 LINE",
"397 735 LINE"
);
},
{
closed = 1;
nodes = (
"389 503 LINE",
"557 101 LINE",
"219 101 LINE"
);
}
);
width = 785;
}
);
leftKerningGroup = Delta;
rightKerningGroup = Delta;
unicode = "0394,03B4";
},
{
glyphname = Omega;
lastChange = "2018-05-25 05:34:26 +0000";
layers = (
{
layerId = "B61D43DE-5272-4FF4-A680-608B6BF5ED9E";
paths = (
{
closed = 1;
nodes = (
"207 714 OFFCURVE",
"63 577 OFFCURVE",
"63 388 CURVE SMOOTH",
"63 208 OFFCURVE",
"191 125 OFFCURVE",
"229 100 CURVE",
"49 115 LINE",
"49 0 LINE",
"339 0 LINE",
"339 94 LINE",
"275 163 OFFCURVE",
"183 248 OFFCURVE",
"183 373 CURVE SMOOTH",
"183 477 OFFCURVE",
"245 592 OFFCURVE",
"392 592 CURVE SMOOTH",
"538 592 OFFCURVE",
"600 471 OFFCURVE",
"600 373 CURVE SMOOTH",
"600 248 OFFCURVE",
"508 163 OFFCURVE",
"444 94 CURVE",
"444 0 LINE",
"734 0 LINE",
"734 115 LINE",
"554 100 LINE",
"592 125 OFFCURVE",
"720 208 OFFCURVE",
"720 388 CURVE SMOOTH",
"720 574 OFFCURVE",
"580 714 OFFCURVE",
"393 714 CURVE SMOOTH"
);
}
);
width = 783;
}
);
leftKerningGroup = Omega;
rightKerningGroup = Omega;
unicode = "03A9,03C9";
},
{
color = 4;
glyphname = mu;
lastChange = "2018-05-25 15:00:42 +0000";
layers = (
{
layerId = "B61D43DE-5272-4FF4-A680-608B6BF5ED9E";
paths = (
{
closed = 1;
nodes = (
"189 -218 LINE",
"188 39 LINE",
"198 6 OFFCURVE",
"238 -10 OFFCURVE",
"284 -10 CURVE SMOOTH",
"347 -10 OFFCURVE",
"378 40 OFFCURVE",
"384 69 CURVE",
"394 0 LINE",
"487 0 LINE",
"487 498 LINE",
"366 498 LINE",
"366 216 LINE",
"366 161 OFFCURVE",
"326 116 OFFCURVE",
"284 116 CURVE SMOOTH",
"231 116 OFFCURVE",
"199 148 OFFCURVE",
"199 218 CURVE",
"199 498 LINE",
"78 498 LINE",
"78 -218 LINE"
);
}
);
width = 561;
}
);
leftKerningGroup = p;
leftMetricsKey = h;
rightKerningGroup = u;
rightMetricsKey = u;
unicode = 03BC;
},
{
color = 4;
glyphname = pi;
lastChange = "2018-05-25 15:00:42 +0000";
layers = (
{
layerId = "B61D43DE-5272-4FF4-A680-608B6BF5ED9E";
paths = (
{
closed = 1;
nodes = (
"662 555 OFFCURVE",
"636 547 OFFCURVE",
"605 547 CURVE SMOOTH",
"202 547 LINE SMOOTH",
"151 547 OFFCURVE",
"108 527 OFFCURVE",
"73 480 CURVE",
"123 404 LINE",
"144 431 OFFCURVE",
"176 422 OFFCURVE",
"199 429 CURVE SMOOTH",
"218 435 LINE",
"181 0 LINE",
"309 0 LINE",
"317 309 LINE",
"323 435 LINE",
"464 435 LINE",
"464 0 LINE",
"596 0 LINE",
"573 435 LINE",
"597 435 LINE SMOOTH",
"647 435 OFFCURVE",
"676 443 OFFCURVE",
"699 468 CURVE",
"670 565 LINE"
);
}
);
width = 759;
}
);
leftKerningGroup = pi;
rightKerningGroup = pi;
unicode = 03C0;
userData = {
com.typemytype.robofont.mark = (
1,
0.741,
0.6,
1
);
};
},
{
glyphname = zero;
lastChange = "2018-05-25 05:00:32 +0000";
layers = (
{
layerId = "B61D43DE-5272-4FF4-A680-608B6BF5ED9E";
paths = (
{
closed = 1;
nodes = (
"472 -18 OFFCURVE",
"546 133 OFFCURVE",
"546 347 CURVE SMOOTH",
"546 596 OFFCURVE",
"451 714 OFFCURVE",
"290 714 CURVE SMOOTH",
"129 714 OFFCURVE",
"34 596 OFFCURVE",
"34 347 CURVE SMOOTH",
"34 133 OFFCURVE",
"108 -18 OFFCURVE",
"290 -18 CURVE SMOOTH"
);
},
{
closed = 1;
nodes = (
"205 89 OFFCURVE",
"174 202 OFFCURVE",
"174 348 CURVE SMOOTH",
"174 502 OFFCURVE",
"206 609 OFFCURVE",
"291 609 CURVE SMOOTH",
"375 609 OFFCURVE",
"406 502 OFFCURVE",
"406 348 CURVE SMOOTH",
"406 202 OFFCURVE",
"377 89 OFFCURVE",
"291 89 CURVE SMOOTH"
);
}
);
width = 580;
}
);
leftKerningGroup = zero;
rightKerningGroup = zero;
unicode = 0030;
userData = {
com.typemytype.robofont.mark = (
0.656,
1,
0.6,
1
);
};
},
{
glyphname = one;
lastChange = "2018-05-24 19:23:14 +0000";
layers = (
{
layerId = "B61D43DE-5272-4FF4-A680-608B6BF5ED9E";
paths = (
{
closed = 1;
nodes = (
"224 0 LINE",
"224 715 LINE",
"89 645 LINE",
"89 0 LINE"
);
}
);
width = 313;
}
);
leftKerningGroup = one;
rightKerningGroup = one;
unicode = 0031;
userData = {
com.typemytype.robofont.mark = (
0.656,
1,
0.6,
1
);
};
},
{
glyphname = two;
lastChange = "2018-05-24 19:23:14 +0000";
layers = (
{
layerId = "B61D43DE-5272-4FF4-A680-608B6BF5ED9E";
paths = (
{
closed = 1;
nodes = (
"512 114 LINE",
"121 114 LINE",
"184 80 LINE",
"184 180 OFFCURVE",
"251 204 OFFCURVE",
"346 264 CURVE SMOOTH",
"428 316 OFFCURVE",
"508 387 OFFCURVE",
"508 515 CURVE SMOOTH",
"508 642 OFFCURVE",
"409 714 OFFCURVE",
"285 714 CURVE SMOOTH",
"149 714 OFFCURVE",
"55 628 OFFCURVE",
"39 524 CURVE",
"145 474 LINE",
"157 550 OFFCURVE",
"202 603 OFFCURVE",
"276 603 CURVE SMOOTH",
"347 603 OFFCURVE",
"378 555 OFFCURVE",
"378 503 CURVE SMOOTH",
"378 396 OFFCURVE",
"273 353 OFFCURVE",
"204 309 CURVE SMOOTH",
"83 232 OFFCURVE",
"56 161 OFFCURVE",
"56 70 CURVE SMOOTH",
"56 41 OFFCURVE",
"59 21 OFFCURVE",
"63 0 CURVE",
"512 0 LINE"
);
}
);
width = 561;
}
);
leftKerningGroup = two;
rightKerningGroup = two;
unicode = 0032;
userData = {
com.typemytype.robofont.mark = (
0.656,
1,
0.6,
1
);
};
},
{
glyphname = three;
lastChange = "2018-05-24 19:23:14 +0000";
layers = (
{
layerId = "B61D43DE-5272-4FF4-A680-608B6BF5ED9E";
paths = (
{
closed = 1;
nodes = (
"96 3 OFFCURVE",
"169 -15 OFFCURVE",
"245 -15 CURVE SMOOTH",
"388 -15 OFFCURVE",
"504 64 OFFCURVE",
"504 196 CURVE SMOOTH",
"504 280 OFFCURVE",
"456 360 OFFCURVE",
"371 360 CURVE",
"445 379 OFFCURVE",
"487 459 OFFCURVE",
"487 535 CURVE SMOOTH",
"487 649 OFFCURVE",
"399 714 OFFCURVE",
"261 714 CURVE SMOOTH",
"177 714 OFFCURVE",
"89 687 OFFCURVE",
"48 651 CURVE",
"88 543 LINE",
"124 583 OFFCURVE",
"195 604 OFFCURVE",
"234 604 CURVE SMOOTH",
"306 604 OFFCURVE",
"347 581 OFFCURVE",
"347 515 CURVE SMOOTH",
"347 454 OFFCURVE",
"308 409 OFFCURVE",
"226 409 CURVE",
"226 409 OFFCURVE",
"172 410 OFFCURVE",
"172 409 CURVE",
"172 310 LINE",
"171 311 OFFCURVE",
"213 312 OFFCURVE",
"214 312 CURVE SMOOTH",
"291 314 OFFCURVE",
"363 296 OFFCURVE",
"363 211 CURVE SMOOTH",
"363 147 OFFCURVE",
"322 99 OFFCURVE",
"232 99 CURVE SMOOTH",
"179 99 OFFCURVE",
"120 120 OFFCURVE",
"82 157 CURVE",
"40 43 LINE"
);
}
);
width = 545;
}
);
leftKerningGroup = three;
rightKerningGroup = three;
unicode = 0033;
userData = {
com.typemytype.robofont.mark = (
0.656,
1,
0.6,
1
);
};
},
{
glyphname = four;
lastChange = "2018-05-25 05:11:08 +0000";
layers = (
{
layerId = "B61D43DE-5272-4FF4-A680-608B6BF5ED9E";
paths = (
{
closed = 1;
nodes = (
"497 0 LINE",
"497 697 LINE",
"392 697 LINE",
"367 297 LINE",
"361 158 LINE",
"361 0 LINE"
);
},
{
closed = 1;
nodes = (
"30 126 LINE",
"587 126 LINE",
"587 233 LINE",
"216 233 LINE",
"288 381 LINE",
"420 697 LINE",
"320 697 LINE"
);
}
);
width = 613;
}
);
leftKerningGroup = four;
rightKerningGroup = four;
unicode = 0034;
userData = {
com.typemytype.robofont.mark = (
0.656,
1,
0.6,
1
);
};
},
{
glyphname = five;
lastChange = "2018-05-24 19:23:14 +0000";
layers = (
{
layerId = "B61D43DE-5272-4FF4-A680-608B6BF5ED9E";
paths = (
{
closed = 1;
nodes = (
"94 -1 OFFCURVE",
"169 -13 OFFCURVE",
"230 -13 CURVE SMOOTH",
"393 -13 OFFCURVE",
"505 83 OFFCURVE",
"505 239 CURVE SMOOTH",
"505 370 OFFCURVE",
"430 454 OFFCURVE",
"289 454 CURVE SMOOTH",
"253 454 OFFCURVE",
"224 451 OFFCURVE",
"193 442 CURVE",
"203 591 LINE",
"475 591 LINE",
"475 697 LINE",
"89 697 LINE",
"76 324 LINE",
"97 337 OFFCURVE",
"162 356 OFFCURVE",
"218 356 CURVE SMOOTH",
"315 356 OFFCURVE",
"370 305 OFFCURVE",
"370 226 CURVE SMOOTH",
"370 107 OFFCURVE",
"277 96 OFFCURVE",
"213 96 CURVE SMOOTH",
"166 96 OFFCURVE",
"111 117 OFFCURVE",
"82 144 CURVE",
"45 32 LINE"
);
}
);
width = 546;
}
);
leftKerningGroup = five;
rightKerningGroup = five;
unicode = 0035;
userData = {
com.typemytype.robofont.mark = (
0.656,
1,
0.6,
1
);
};
},
{
glyphname = six;
lastChange = "2018-05-24 19:23:14 +0000";
layers = (
{
layerId = "B61D43DE-5272-4FF4-A680-608B6BF5ED9E";
paths = (
{
closed = 1;
nodes = (
"57 73 OFFCURVE",
"209 -15 OFFCURVE",
"328 -15 CURVE SMOOTH",
"482 -15 OFFCURVE",
"582 83 OFFCURVE",
"582 237 CURVE SMOOTH",
"582 358 OFFCURVE",
"507 457 OFFCURVE",
"372 457 CURVE SMOOTH",
"299 457 OFFCURVE",
"227 427 OFFCURVE",
"191 358 CURVE",
"191 369 OFFCURVE",
"191 381 OFFCURVE",
"192 395 CURVE SMOOTH",
"199 498 OFFCURVE",
"265 605 OFFCURVE",
"369 605 CURVE SMOOTH",
"406 605 OFFCURVE",
"457 596 OFFCURVE",
"484 567 CURVE",
"533 663 LINE",
"501 694 OFFCURVE",
"456 714 OFFCURVE",
"362 714 CURVE SMOOTH",
"186 714 OFFCURVE",
"57 570 OFFCURVE",
"57 336 CURVE SMOOTH"
);
},
{
closed = 1;
nodes = (
"207 215 OFFCURVE",
"206 226 OFFCURVE",
"206 236 CURVE",
"210 301 OFFCURVE",
"276 355 OFFCURVE",
"342 355 CURVE SMOOTH",
"414 355 OFFCURVE",
"448 303 OFFCURVE",
"448 225 CURVE SMOOTH",
"448 139 OFFCURVE",
"394 88 OFFCURVE",
"331 88 CURVE SMOOTH",
"269 88 OFFCURVE",
"226 139 OFFCURVE",
"210 203 CURVE SMOOTH"
);
}
);
width = 623;
}
);
leftKerningGroup = six;
rightKerningGroup = six;
unicode = 0036;
userData = {
com.typemytype.robofont.mark = (
0.656,
1,
0.6,
1
);
};
},
{
glyphname = seven;
lastChange = "2018-05-25 05:16:46 +0000";
layers = (
{
layerId = "B61D43DE-5272-4FF4-A680-608B6BF5ED9E";
paths = (
{
closed = 1;
nodes = (
"274 0 LINE",
"502 697 LINE",
"45 697 LINE",
"45 579 LINE",
"409 579 LINE",
"358 647 LINE",
"129 0 LINE"
);
}
);
width = 527;
}
);
leftKerningGroup = seven;
rightKerningGroup = seven;
unicode = 0037;
userData = {
com.typemytype.robofont.mark = (
0.656,
1,
0.6,
1
);
};
},
{
glyphname = eight;
lastChange = "2018-05-25 16:20:00 +0000";
layers = (
{
layerId = "B61D43DE-5272-4FF4-A680-608B6BF5ED9E";
paths = (
{
closed = 1;
nodes = (
"435 -18 OFFCURVE",
"572 40 OFFCURVE",
"572 191 CURVE SMOOTH",
"572 290 OFFCURVE",
"503 351 OFFCURVE",
"406 373 CURVE",
"410 353 LINE",
"487 379 OFFCURVE",
"542 437 OFFCURVE",
"542 533 CURVE SMOOTH",
"542 665 OFFCURVE",
"426 714 OFFCURVE",
"311 714 CURVE SMOOTH",
"195 714 OFFCURVE",
"77 665 OFFCURVE",
"77 533 CURVE SMOOTH",
"77 436 OFFCURVE",
"128 378 OFFCURVE",
"209 353 CURVE",
"212 373 LINE",
"116 350 OFFCURVE",
"47 290 OFFCURVE",
"47 191 CURVE SMOOTH",
"47 40 OFFCURVE",
"184 -18 OFFCURVE",
"310 -18 CURVE SMOOTH"
);
},
{
closed = 1;
nodes = (
"233 83 OFFCURVE",
"191 119 OFFCURVE",
"191 193 CURVE SMOOTH",
"191 283 OFFCURVE",
"252 310 OFFCURVE",
"310 310 CURVE SMOOTH",
"367 310 OFFCURVE",
"427 283 OFFCURVE",
"427 193 CURVE SMOOTH",
"427 119 OFFCURVE",
"386 83 OFFCURVE",
"310 83 CURVE SMOOTH"
);
},
{
closed = 1;
nodes = (
"250 412 OFFCURVE",
"211 452 OFFCURVE",
"211 524 CURVE SMOOTH",
"211 589 OFFCURVE",
"244 622 OFFCURVE",
"312 622 CURVE SMOOTH",
"379 622 OFFCURVE",
"409 589 OFFCURVE",
"409 524 CURVE SMOOTH",
"409 452 OFFCURVE",
"374 412 OFFCURVE",
"312 412 CURVE SMOOTH"
);
}
);
width = 619;
}
);
leftKerningGroup = eight;
rightKerningGroup = eight;
unicode = 0038;
userData = {
com.typemytype.robofont.mark = (
0.656,
1,
0.6,
1
);
};
},
{
glyphname = nine;
lastChange = "2018-05-24 19:23:14 +0000";
layers = (
{
layerId = "B61D43DE-5272-4FF4-A680-608B6BF5ED9E";
paths = (
{
closed = 1;
nodes = (
"582 626 OFFCURVE",
"439 714 OFFCURVE",
"320 714 CURVE SMOOTH",
"166 714 OFFCURVE",
"57 616 OFFCURVE",
"57 462 CURVE SMOOTH",
"57 341 OFFCURVE",
"132 242 OFFCURVE",
"267 242 CURVE SMOOTH",
"340 242 OFFCURVE",
"412 272 OFFCURVE",
"448 341 CURVE",
"448 330 OFFCURVE",
"447 318 OFFCURVE",
"447 304 CURVE SMOOTH",
"447 183 OFFCURVE",
"374 98 OFFCURVE",
"270 98 CURVE SMOOTH",
"233 98 OFFCURVE",
"182 107 OFFCURVE",
"155 136 CURVE",
"106 36 LINE",
"138 5 OFFCURVE",
"183 -15 OFFCURVE",
"277 -15 CURVE SMOOTH",
"453 -15 OFFCURVE",
"582 129 OFFCURVE",
"582 363 CURVE SMOOTH"
);
},
{
closed = 1;
nodes = (
"430 484 OFFCURVE",
"433 473 OFFCURVE",
"433 463 CURVE",
"429 398 OFFCURVE",
"366 344 OFFCURVE",
"300 344 CURVE SMOOTH",
"228 344 OFFCURVE",
"191 396 OFFCURVE",
"191 474 CURVE SMOOTH",
"191 560 OFFCURVE",
"254 611 OFFCURVE",
"317 611 CURVE SMOOTH",
"379 611 OFFCURVE",
"422 560 OFFCURVE",
"429 496 CURVE SMOOTH"
);
}
);
width = 623;
}
);
leftKerningGroup = nine;
rightKerningGroup = nine;
unicode = 0039;
userData = {
com.typemytype.robofont.mark = (
0.656,
1,
0.6,
1
);
};
},
{
glyphname = zero.osf;
lastChange = "2018-05-25 15:25:03 +0000";
layers = (
{
layerId = "B61D43DE-5272-4FF4-A680-608B6BF5ED9E";
paths = (
{
closed = 1;
nodes = (
"472 -18 OFFCURVE",
"546 133 OFFCURVE",
"546 303 CURVE SMOOTH",
"546 513 OFFCURVE",
"451 632 OFFCURVE",
"290 632 CURVE SMOOTH",
"129 632 OFFCURVE",
"34 513 OFFCURVE",
"34 303 CURVE SMOOTH",
"34 133 OFFCURVE",
"108 -18 OFFCURVE",
"290 -18 CURVE SMOOTH"
);
},
{
closed = 1;
nodes = (
"204 89 OFFCURVE",
"175 202 OFFCURVE",
"175 304 CURVE SMOOTH",
"175 424 OFFCURVE",
"205 527 OFFCURVE",
"290 527 CURVE SMOOTH",
"374 527 OFFCURVE",
"405 458 OFFCURVE",
"405 304 CURVE SMOOTH",
"405 202 OFFCURVE",
"376 89 OFFCURVE",
"290 89 CURVE SMOOTH"
);
}
);
width = 582;
}
);
leftKerningGroup = zero.op;
rightKerningGroup = zero.op;
},
{
glyphname = one.osf;
lastChange = "2018-05-25 15:25:15 +0000";
layers = (
{
layerId = "B61D43DE-5272-4FF4-A680-608B6BF5ED9E";
paths = (
{
closed = 1;
nodes = (
"298 616 LINE",
"49 589 LINE",
"49 474 LINE",
"166 489 LINE",
"166 98 LINE",
"35 98 LINE",
"35 0 LINE",
"414 0 LINE",
"414 98 LINE",
"298 98 LINE"
);
}
);
width = 439;
}
);
leftKerningGroup = one.op;
rightKerningGroup = one.op;
},
{
glyphname = two.osf;
lastChange = "2018-05-25 05:03:06 +0000";
layers = (
{
layerId = "B61D43DE-5272-4FF4-A680-608B6BF5ED9E";
paths = (
{
closed = 1;
nodes = (
"508 111 LINE",
"117 111 LINE",
"190 85 LINE",
"190 136 OFFCURVE",
"247 162 OFFCURVE",
"342 222 CURVE SMOOTH",
"424 274 OFFCURVE",
"498 348 OFFCURVE",
"498 433 CURVE SMOOTH",
"498 558 OFFCURVE",
"418 632 OFFCURVE",
"279 632 CURVE SMOOTH",
"134 632 OFFCURVE",
"55 542 OFFCURVE",
"39 442 CURVE",
"141 392 LINE",
"150 460 OFFCURVE",
"197 517 OFFCURVE",
"272 517 CURVE SMOOTH",
"339 517 OFFCURVE",
"364 485 OFFCURVE",
"364 433 CURVE SMOOTH",
"364 360 OFFCURVE",
"269 304 OFFCURVE",
"200 260 CURVE SMOOTH",
"79 183 OFFCURVE",
"52 125 OFFCURVE",
"52 70 CURVE SMOOTH",
"52 41 OFFCURVE",
"55 21 OFFCURVE",
"59 0 CURVE",
"508 0 LINE"
);
}
);
width = 557;
}
);
leftKerningGroup = two.op;
leftMetricsKey = two;
rightKerningGroup = two.op;
rightMetricsKey = two;
},
{
glyphname = three.osf;
lastChange = "2018-05-24 19:23:14 +0000";
layers = (
{
layerId = "B61D43DE-5272-4FF4-A680-608B6BF5ED9E";
paths = (
{
closed = 1;
nodes = (
"96 -94 OFFCURVE",
"159 -112 OFFCURVE",
"235 -112 CURVE SMOOTH",
"378 -112 OFFCURVE",
"494 -33 OFFCURVE",
"494 99 CURVE SMOOTH",
"494 183 OFFCURVE",
"446 263 OFFCURVE",
"361 263 CURVE",
"435 282 OFFCURVE",
"477 362 OFFCURVE",
"477 453 CURVE SMOOTH",
"477 567 OFFCURVE",
"389 632 OFFCURVE",
"251 632 CURVE SMOOTH",
"167 632 OFFCURVE",
"89 605 OFFCURVE",
"48 569 CURVE",
"88 456 LINE",
"124 496 OFFCURVE",
"185 517 OFFCURVE",
"224 517 CURVE SMOOTH",
"296 517 OFFCURVE",
"337 499 OFFCURVE",
"337 433 CURVE SMOOTH",
"337 357 OFFCURVE",
"298 312 OFFCURVE",
"216 312 CURVE",
"216 312 OFFCURVE",
"162 313 OFFCURVE",
"162 312 CURVE",
"162 205 LINE",
"161 206 OFFCURVE",
"203 207 OFFCURVE",
"204 207 CURVE SMOOTH",
"281 207 OFFCURVE",
"353 199 OFFCURVE",
"353 114 CURVE SMOOTH",
"353 50 OFFCURVE",
"312 4 OFFCURVE",
"222 4 CURVE SMOOTH",
"169 4 OFFCURVE",
"120 25 OFFCURVE",
"82 62 CURVE",
"40 -54 LINE"
);
}
);
width = 535;
}
);
leftKerningGroup = three.op;
leftMetricsKey = three;
rightKerningGroup = three.op;
rightMetricsKey = three;
},
{
glyphname = four.osf;
lastChange = "2018-05-25 05:11:37 +0000";
layers = (
{
layerId = "B61D43DE-5272-4FF4-A680-608B6BF5ED9E";
paths = (
{
closed = 1;
nodes = (
"476 0 LINE",
"476 459 LINE",
"352 459 LINE",
"342 188 LINE",
"342 0 LINE"
);
},
{
closed = 1;
nodes = (
"36 156 LINE",
"553 156 LINE",
"553 268 LINE",
"203 268 LINE",
"247 448 LINE",
"334 760 LINE",
"201 760 LINE"
);
}
);
width = 583;
}
);
leftKerningGroup = four.op;
rightKerningGroup = four.op;
},
{
glyphname = five.osf;
lastChange = "2018-05-24 19:23:14 +0000";
layers = (
{
layerId = "B61D43DE-5272-4FF4-A680-608B6BF5ED9E";
paths = (
{
closed = 1;
nodes = (
"94 -94 OFFCURVE",
"169 -106 OFFCURVE",
"230 -106 CURVE SMOOTH",
"393 -106 OFFCURVE",
"505 -10 OFFCURVE",
"505 146 CURVE SMOOTH",
"505 277 OFFCURVE",
"430 361 OFFCURVE",
"289 361 CURVE SMOOTH",
"253 361 OFFCURVE",
"224 358 OFFCURVE",
"193 349 CURVE",
"203 510 LINE",
"475 510 LINE",
"475 616 LINE",
"89 616 LINE",
"76 231 LINE",
"97 244 OFFCURVE",
"162 263 OFFCURVE",
"218 263 CURVE SMOOTH",
"315 263 OFFCURVE",
"370 212 OFFCURVE",
"370 133 CURVE SMOOTH",
"370 14 OFFCURVE",
"277 3 OFFCURVE",
"213 3 CURVE SMOOTH",
"166 3 OFFCURVE",
"111 24 OFFCURVE",
"82 51 CURVE",
"45 -61 LINE"
);
}
);
width = 546;
}
);
leftKerningGroup = five.op;
leftMetricsKey = five;
rightKerningGroup = five.op;
rightMetricsKey = five;
},
{
glyphname = six.osf;
lastChange = "2018-05-24 19:23:14 +0000";
layers = (
{
layerId = "B61D43DE-5272-4FF4-A680-608B6BF5ED9E";
paths = (
{
closed = 1;
nodes = (
"59 73 OFFCURVE",
"209 -15 OFFCURVE",
"328 -15 CURVE SMOOTH",
"482 -15 OFFCURVE",
"580 83 OFFCURVE",
"580 237 CURVE SMOOTH",
"580 358 OFFCURVE",
"507 457 OFFCURVE",
"372 457 CURVE SMOOTH",
"299 457 OFFCURVE",
"227 427 OFFCURVE",
"191 358 CURVE",
"191 369 OFFCURVE",
"192 381 OFFCURVE",
"192 395 CURVE SMOOTH",
"196 515 OFFCURVE",
"265 605 OFFCURVE",
"369 605 CURVE SMOOTH",
"406 605 OFFCURVE",
"457 596 OFFCURVE",
"484 567 CURVE",
"533 663 LINE",
"501 694 OFFCURVE",
"456 714 OFFCURVE",
"362 714 CURVE SMOOTH",
"186 714 OFFCURVE",
"59 570 OFFCURVE",
"59 336 CURVE SMOOTH"
);
},
{
closed = 1;
nodes = (
"207 215 OFFCURVE",
"206 226 OFFCURVE",
"206 236 CURVE",
"210 301 OFFCURVE",
"276 355 OFFCURVE",
"342 355 CURVE SMOOTH",
"414 355 OFFCURVE",
"448 303 OFFCURVE",
"448 225 CURVE SMOOTH",
"448 139 OFFCURVE",
"394 88 OFFCURVE",
"331 88 CURVE SMOOTH",
"269 88 OFFCURVE",
"226 139 OFFCURVE",
"210 203 CURVE SMOOTH"
);
}
);
width = 623;
}
);
leftKerningGroup = six.op;
rightKerningGroup = six.op;
},
{
glyphname = seven.osf;
lastChange = "2018-05-24 19:23:14 +0000";
layers = (
{
layerId = "B61D43DE-5272-4FF4-A680-608B6BF5ED9E";
paths = (
{
closed = 1;
nodes = (
"254 -88 LINE",
"502 616 LINE",
"45 616 LINE",
"45 498 LINE",
"409 498 LINE",
"358 566 LINE",
"109 -88 LINE"
);
}
);
width = 527;
}
);
leftKerningGroup = seven.op;
leftMetricsKey = seven;
rightKerningGroup = seven.op;
rightMetricsKey = seven;
},
{
glyphname = eight.osf;
lastChange = "2018-05-25 16:20:12 +0000";
layers = (
{
layerId = "B61D43DE-5272-4FF4-A680-608B6BF5ED9E";
paths = (
{
closed = 1;
nodes = (
"432 -18 OFFCURVE",
"565 40 OFFCURVE",
"565 191 CURVE SMOOTH",
"565 290 OFFCURVE",
"498 351 OFFCURVE",
"401 373 CURVE",
"406 353 LINE",
"481 379 OFFCURVE",
"535 437 OFFCURVE",
"535 533 CURVE SMOOTH",
"535 665 OFFCURVE",
"423 714 OFFCURVE",
"308 714 CURVE SMOOTH",
"192 714 OFFCURVE",
"78 665 OFFCURVE",
"78 533 CURVE SMOOTH",
"78 436 OFFCURVE",
"128 378 OFFCURVE",
"208 353 CURVE",
"210 373 LINE",
"116 350 OFFCURVE",
"48 290 OFFCURVE",
"48 191 CURVE SMOOTH",
"48 40 OFFCURVE",
"181 -18 OFFCURVE",
"307 -18 CURVE SMOOTH"
);
},
{
closed = 1;
nodes = (
"230 83 OFFCURVE",
"190 119 OFFCURVE",
"190 193 CURVE SMOOTH",
"190 283 OFFCURVE",
"249 310 OFFCURVE",
"307 310 CURVE SMOOTH",
"364 310 OFFCURVE",
"422 283 OFFCURVE",
"422 193 CURVE SMOOTH",
"422 119 OFFCURVE",
"383 83 OFFCURVE",
"307 83 CURVE SMOOTH"
);
},
{
closed = 1;
nodes = (
"247 412 OFFCURVE",
"210 452 OFFCURVE",
"210 524 CURVE SMOOTH",
"210 589 OFFCURVE",
"241 622 OFFCURVE",
"309 622 CURVE SMOOTH",
"376 622 OFFCURVE",
"404 589 OFFCURVE",
"404 524 CURVE SMOOTH",
"404 452 OFFCURVE",
"371 412 OFFCURVE",
"309 412 CURVE SMOOTH"
);
}
);
width = 613;
}
);
leftKerningGroup = eight.op;
rightKerningGroup = eight.op;
},
{
glyphname = nine.osf;
lastChange = "2018-05-24 19:23:14 +0000";
layers = (
{
layerId = "B61D43DE-5272-4FF4-A680-608B6BF5ED9E";
paths = (
{
closed = 1;
nodes = (
"580 544 OFFCURVE",
"463 632 OFFCURVE",
"320 632 CURVE SMOOTH",
"166 632 OFFCURVE",
"59 534 OFFCURVE",
"59 380 CURVE SMOOTH",
"59 259 OFFCURVE",
"152 155 OFFCURVE",
"287 155 CURVE SMOOTH",
"360 155 OFFCURVE",
"412 185 OFFCURVE",
"448 259 CURVE",
"448 248 OFFCURVE",
"446 236 OFFCURVE",
"447 222 CURVE SMOOTH",
"453 93 OFFCURVE",
"374 16 OFFCURVE",
"270 16 CURVE SMOOTH",
"233 16 OFFCURVE",
"182 25 OFFCURVE",
"155 54 CURVE",
"106 -46 LINE",
"138 -77 OFFCURVE",
"183 -97 OFFCURVE",
"277 -97 CURVE SMOOTH",
"453 -97 OFFCURVE",
"580 47 OFFCURVE",
"580 281 CURVE SMOOTH"
);
},
{
closed = 1;
nodes = (
"430 402 OFFCURVE",
"433 391 OFFCURVE",
"433 381 CURVE",
"429 316 OFFCURVE",
"366 262 OFFCURVE",
"300 262 CURVE SMOOTH",
"228 262 OFFCURVE",
"191 317 OFFCURVE",
"191 395 CURVE SMOOTH",
"191 481 OFFCURVE",
"254 529 OFFCURVE",
"317 529 CURVE SMOOTH",
"379 529 OFFCURVE",
"424 468 OFFCURVE",
"429 414 CURVE SMOOTH"
);
}
);
width = 623;
}
);
leftKerningGroup = nine.op;
rightKerningGroup = nine.op;
},
{
glyphname = zero.osf.zero;
lastChange = "2018-05-25 05:36:30 +0000";
layers = (
{
components = (
{
name = zero.osf;
}
);
layerId = "B61D43DE-5272-4FF4-A680-608B6BF5ED9E";
paths = (
{
closed = 1;
nodes = (
"239 89 LINE",
"415 525 LINE",
"336 525 LINE",
"160 89 LINE"
);
}
);
width = 580;
}
);
leftKerningGroup = zero.op;
leftMetricsKey = zero;
rightKerningGroup = zero.op;
rightMetricsKey = zero;
},
{
glyphname = zero.tf;
lastChange = "2018-05-25 04:59:42 +0000";
layers = (
{
layerId = "B61D43DE-5272-4FF4-A680-608B6BF5ED9E";
paths = (
{
closed = 1;
nodes = (
"481 -18 OFFCURVE",
"554 133 OFFCURVE",
"554 347 CURVE SMOOTH",
"554 596 OFFCURVE",
"461 714 OFFCURVE",
"300 714 CURVE SMOOTH",
"139 714 OFFCURVE",
"45 596 OFFCURVE",
"45 347 CURVE SMOOTH",
"45 133 OFFCURVE",
"117 -18 OFFCURVE",
"299 -18 CURVE SMOOTH"
);
},
{
closed = 1;
nodes = (
"214 89 OFFCURVE",
"184 202 OFFCURVE",
"184 348 CURVE SMOOTH",
"184 502 OFFCURVE",
"216 609 OFFCURVE",
"301 609 CURVE SMOOTH",
"385 609 OFFCURVE",
"416 502 OFFCURVE",
"416 348 CURVE SMOOTH",
"416 202 OFFCURVE",
"386 89 OFFCURVE",
"300 89 CURVE SMOOTH"
);
}
);
userData = {
RMXScaler = {
keepStroke = 90;
monoWidth = 599;
};
};
width = 599;
}
);
userData = {
RMXScaler = {
source = zero;
};
};
},
{
glyphname = one.tf;
lastChange = "2018-05-25 15:25:37 +0000";
layers = (
{
layerId = "B61D43DE-5272-4FF4-A680-608B6BF5ED9E";
paths = (
{
closed = 1;
nodes = (
"375 697 LINE",
"80 648 LINE",
"80 533 LINE",
"286 571 LINE",
"242 608 LINE",
"242 98 LINE",
"84 98 LINE",
"84 0 LINE",
"516 0 LINE",
"516 98 LINE",
"375 98 LINE"
);
}
);
userData = {
RMXScaler = {
keepStroke = 90;
monoWidth = 599;
};
};
width = 599;
}
);
userData = {
RMXScaler = {
source = one;
};
};
},
{
glyphname = two.tf;
lastChange = "2018-05-25 16:17:14 +0000";
layers = (
{
layerId = "B61D43DE-5272-4FF4-A680-608B6BF5ED9E";
paths = (
{
closed = 1;
nodes = (
"534 114 LINE",
"143 114 LINE",
"206 85 LINE",
"206 185 OFFCURVE",
"273 204 OFFCURVE",
"368 264 CURVE SMOOTH",
"450 316 OFFCURVE",
"530 387 OFFCURVE",
"530 515 CURVE SMOOTH",
"530 642 OFFCURVE",
"440 714 OFFCURVE",
"316 714 CURVE SMOOTH",
"180 714 OFFCURVE",
"81 628 OFFCURVE",
"65 524 CURVE",
"167 474 LINE",
"176 542 OFFCURVE",
"230 599 OFFCURVE",
"306 599 CURVE SMOOTH",
"372 599 OFFCURVE",
"396 555 OFFCURVE",
"396 503 CURVE SMOOTH",
"396 396 OFFCURVE",
"295 353 OFFCURVE",
"226 309 CURVE SMOOTH",
"105 232 OFFCURVE",
"78 161 OFFCURVE",
"78 70 CURVE SMOOTH",
"78 41 OFFCURVE",
"81 21 OFFCURVE",
"85 0 CURVE",
"534 0 LINE"
);
}
);
userData = {
RMXScaler = {
keepStroke = 90;
monoWidth = 599;
};
};
width = 599;
}
);
userData = {
RMXScaler = {
source = two.subs;
};
};
},
{
glyphname = three.tf;
lastChange = "2018-05-24 19:23:14 +0000";
layers = (
{
layerId = "B61D43DE-5272-4FF4-A680-608B6BF5ED9E";
paths = (
{
closed = 1;
nodes = (
"123 3 OFFCURVE",
"196 -15 OFFCURVE",
"272 -15 CURVE SMOOTH",
"415 -15 OFFCURVE",
"531 64 OFFCURVE",
"531 196 CURVE SMOOTH",
"531 280 OFFCURVE",
"483 360 OFFCURVE",
"398 360 CURVE",
"472 379 OFFCURVE",
"514 459 OFFCURVE",
"514 535 CURVE SMOOTH",
"514 649 OFFCURVE",
"426 714 OFFCURVE",
"288 714 CURVE SMOOTH",
"204 714 OFFCURVE",
"116 687 OFFCURVE",
"75 651 CURVE",
"115 546 LINE",
"151 586 OFFCURVE",
"222 607 OFFCURVE",
"261 607 CURVE SMOOTH",
"333 607 OFFCURVE",
"374 581 OFFCURVE",
"374 515 CURVE SMOOTH",
"374 454 OFFCURVE",
"335 409 OFFCURVE",
"253 409 CURVE",
"253 409 OFFCURVE",
"199 410 OFFCURVE",
"199 409 CURVE",
"199 310 LINE",
"198 311 OFFCURVE",
"240 312 OFFCURVE",
"241 312 CURVE SMOOTH",
"318 312 OFFCURVE",
"390 296 OFFCURVE",
"390 211 CURVE SMOOTH",
"390 147 OFFCURVE",
"349 99 OFFCURVE",
"259 99 CURVE SMOOTH",
"206 99 OFFCURVE",
"147 120 OFFCURVE",
"109 157 CURVE",
"67 43 LINE"
);
}
);
userData = {
RMXScaler = {
keepStroke = 90;
monoWidth = 599;
};
};
width = 599;
}
);
userData = {
RMXScaler = {
source = three.subs;
};
};
},
{
glyphname = four.tf;
lastChange = "2018-05-24 19:23:14 +0000";
layers = (
{
layerId = "B61D43DE-5272-4FF4-A680-608B6BF5ED9E";
paths = (
{
closed = 1;
nodes = (
"476 0 LINE",
"476 438 LINE",
"350 438 LINE",
"340 158 LINE",
"340 0 LINE"
);
},
{
closed = 1;
nodes = (
"22 126 LINE",
"573 126 LINE",
"573 239 LINE",
"205 239 LINE",
"379 697 LINE",
"240 697 LINE"
);
}
);
userData = {
RMXScaler = {
keepStroke = 90;
monoWidth = 599;
};
};
width = 599;
}
);
userData = {
RMXScaler = {
source = four.subs;
};
};
},
{
glyphname = five.tf;
lastChange = "2018-05-24 19:23:14 +0000";
layers = (
{
layerId = "B61D43DE-5272-4FF4-A680-608B6BF5ED9E";
paths = (
{
closed = 1;
nodes = (
"124 -1 OFFCURVE",
"209 -13 OFFCURVE",
"270 -13 CURVE SMOOTH",
"433 -13 OFFCURVE",
"545 83 OFFCURVE",
"545 239 CURVE SMOOTH",
"545 370 OFFCURVE",
"470 454 OFFCURVE",
"329 454 CURVE SMOOTH",
"293 454 OFFCURVE",
"254 451 OFFCURVE",
"223 442 CURVE",
"233 591 LINE",
"518 591 LINE",
"518 697 LINE",
"119 697 LINE",
"106 324 LINE",
"127 337 OFFCURVE",
"202 356 OFFCURVE",
"258 356 CURVE SMOOTH",
"355 356 OFFCURVE",
"410 305 OFFCURVE",
"410 226 CURVE SMOOTH",
"410 107 OFFCURVE",
"317 96 OFFCURVE",
"253 96 CURVE SMOOTH",
"206 96 OFFCURVE",
"141 117 OFFCURVE",
"112 144 CURVE",
"75 32 LINE"
);
}
);
userData = {
RMXScaler = {
keepStroke = 90;
monoWidth = 599;
};
};
width = 599;
}
);
userData = {
RMXScaler = {
source = five.subs;
};
};
},
{
glyphname = six.tf;
lastChange = "2018-05-24 19:23:14 +0000";
layers = (
{
layerId = "B61D43DE-5272-4FF4-A680-608B6BF5ED9E";
paths = (
{
closed = 1;
nodes = (
"37 73 OFFCURVE",
"186 -15 OFFCURVE",
"305 -15 CURVE SMOOTH",
"459 -15 OFFCURVE",
"555 85 OFFCURVE",
"555 239 CURVE SMOOTH",
"555 360 OFFCURVE",
"484 457 OFFCURVE",
"349 457 CURVE SMOOTH",
"276 457 OFFCURVE",
"204 427 OFFCURVE",
"168 358 CURVE",
"168 369 OFFCURVE",
"168 381 OFFCURVE",
"169 395 CURVE SMOOTH",
"176 498 OFFCURVE",
"242 605 OFFCURVE",
"346 605 CURVE SMOOTH",
"383 605 OFFCURVE",
"434 596 OFFCURVE",
"461 567 CURVE",
"510 663 LINE",
"478 694 OFFCURVE",
"433 714 OFFCURVE",
"339 714 CURVE SMOOTH",
"163 714 OFFCURVE",
"37 570 OFFCURVE",
"37 336 CURVE SMOOTH"
);
},
{
closed = 1;
nodes = (
"184 215 OFFCURVE",
"183 226 OFFCURVE",
"183 236 CURVE",
"187 301 OFFCURVE",
"245 355 OFFCURVE",
"319 355 CURVE SMOOTH",
"391 355 OFFCURVE",
"425 303 OFFCURVE",
"425 225 CURVE SMOOTH",
"425 139 OFFCURVE",
"371 88 OFFCURVE",
"308 88 CURVE SMOOTH",
"246 88 OFFCURVE",
"203 139 OFFCURVE",
"187 203 CURVE SMOOTH"
);
}
);
userData = {
RMXScaler = {
keepStroke = 90;
monoWidth = 599;
};
};
width = 599;
}
);
userData = {
RMXScaler = {
source = six.subs;
};
};
},
{
glyphname = seven.tf;
lastChange = "2018-05-24 19:23:14 +0000";
layers = (
{
layerId = "B61D43DE-5272-4FF4-A680-608B6BF5ED9E";
paths = (
{
closed = 1;
nodes = (
"314 0 LINE",
"572 697 LINE",
"55 697 LINE",
"55 579 LINE",
"479 579 LINE",
"428 647 LINE",
"169 0 LINE"
);
}
);
userData = {
RMXScaler = {
keepStroke = 90;
monoWidth = 599;
};
};
width = 599;
}
);
userData = {
RMXScaler = {
source = seven.subs;
};
};
},
{
glyphname = eight.tf;
lastChange = "2018-05-25 16:20:24 +0000";
layers = (
{
layerId = "B61D43DE-5272-4FF4-A680-608B6BF5ED9E";
paths = (
{
closed = 1;
nodes = (
"471 373 OFFCURVE",
"528 433 OFFCURVE",
"528 533 CURVE SMOOTH",
"528 665 OFFCURVE",
"416 714 OFFCURVE",
"301 714 CURVE SMOOTH",
"185 714 OFFCURVE",
"71 665 OFFCURVE",
"71 533 CURVE SMOOTH",
"71 432 OFFCURVE",
"124 373 OFFCURVE",
"210 350 CURVE",
"213 368 LINE",
"113 349 OFFCURVE",
"44 294 OFFCURVE",
"44 191 CURVE SMOOTH",
"44 40 OFFCURVE",
"174 -18 OFFCURVE",
"300 -18 CURVE SMOOTH",
"425 -18 OFFCURVE",
"555 40 OFFCURVE",
"555 191 CURVE SMOOTH",
"555 294 OFFCURVE",
"485 349 OFFCURVE",
"384 368 CURVE",
"388 350 LINE"
);
},
{
closed = 1;
nodes = (
"223 83 OFFCURVE",
"186 119 OFFCURVE",
"186 193 CURVE SMOOTH",
"186 283 OFFCURVE",
"242 310 OFFCURVE",
"300 310 CURVE SMOOTH",
"357 310 OFFCURVE",
"412 283 OFFCURVE",
"412 193 CURVE SMOOTH",
"412 119 OFFCURVE",
"376 83 OFFCURVE",
"300 83 CURVE SMOOTH"
);
},
{
closed = 1;
nodes = (
"240 412 OFFCURVE",
"203 452 OFFCURVE",
"203 524 CURVE SMOOTH",
"203 589 OFFCURVE",
"234 622 OFFCURVE",
"302 622 CURVE SMOOTH",
"369 622 OFFCURVE",
"397 589 OFFCURVE",
"397 524 CURVE SMOOTH",
"397 451 OFFCURVE",
"364 412 OFFCURVE",
"302 412 CURVE SMOOTH"
);
}
);
userData = {
RMXScaler = {
keepStroke = 90;
monoWidth = 599;
};
};
width = 599;
}
);
userData = {
RMXScaler = {
source = eight.subs;
};
};
},
{
glyphname = nine.tf;
lastChange = "2018-05-24 19:23:14 +0000";
layers = (
{
layerId = "B61D43DE-5272-4FF4-A680-608B6BF5ED9E";
paths = (
{
closed = 1;
nodes = (
"551 626 OFFCURVE",
"413 714 OFFCURVE",
"294 714 CURVE SMOOTH",
"143 714 OFFCURVE",
"36 616 OFFCURVE",
"36 462 CURVE SMOOTH",
"36 341 OFFCURVE",
"109 242 OFFCURVE",
"241 242 CURVE SMOOTH",
"314 242 OFFCURVE",
"383 272 OFFCURVE",
"419 341 CURVE",
"419 330 OFFCURVE",
"418 318 OFFCURVE",
"418 304 CURVE SMOOTH",
"418 183 OFFCURVE",
"348 98 OFFCURVE",
"244 98 CURVE SMOOTH",
"210 98 OFFCURVE",
"159 107 OFFCURVE",
"132 136 CURVE",
"83 36 LINE",
"115 5 OFFCURVE",
"160 -15 OFFCURVE",
"251 -15 CURVE SMOOTH",
"427 -15 OFFCURVE",
"551 129 OFFCURVE",
"551 363 CURVE SMOOTH"
);
},
{
closed = 1;
nodes = (
"401 484 OFFCURVE",
"404 473 OFFCURVE",
"404 463 CURVE",
"400 398 OFFCURVE",
"340 344 OFFCURVE",
"274 344 CURVE SMOOTH",
"205 344 OFFCURVE",
"168 396 OFFCURVE",
"168 474 CURVE SMOOTH",
"168 560 OFFCURVE",
"228 611 OFFCURVE",
"291 611 CURVE SMOOTH",
"353 611 OFFCURVE",
"395 560 OFFCURVE",
"400 496 CURVE SMOOTH"
);
}
);
userData = {
RMXScaler = {
keepStroke = 90;
monoWidth = 599;
};
};
width = 599;
}
);
userData = {
RMXScaler = {
source = nine.subs;
};
};
},
{
glyphname = zero.tf.zero;
lastChange = "2018-05-25 16:18:19 +0000";
layers = (
{
components = (
{
name = zero.tf;
}
);
layerId = "B61D43DE-5272-4FF4-A680-608B6BF5ED9E";
paths = (
{
closed = 1;
nodes = (
"248 89 LINE",
"424 609 LINE",
"345 609 LINE",
"169 89 LINE"
);
}
);
userData = {
RMXScaler = {
keepStroke = 90;
monoWidth = 599;
};
};
width = 599;
}
);
userData = {
RMXScaler = {
source = zero.tf;
};
};
},
{
glyphname = zero.tosf;
lastChange = "2018-05-25 05:02:18 +0000";
layers = (
{
layerId = "B61D43DE-5272-4FF4-A680-608B6BF5ED9E";
paths = (
{
closed = 1;
nodes = (
"472 -18 OFFCURVE",
"548 133 OFFCURVE",
"548 303 CURVE SMOOTH",
"548 513 OFFCURVE",
"453 632 OFFCURVE",
"292 632 CURVE SMOOTH",
"131 632 OFFCURVE",
"34 513 OFFCURVE",
"34 303 CURVE SMOOTH",
"34 133 OFFCURVE",
"108 -18 OFFCURVE",
"290 -18 CURVE SMOOTH"
);
},
{
closed = 1;
nodes = (
"204 89 OFFCURVE",
"174 202 OFFCURVE",
"174 304 CURVE SMOOTH",
"174 424 OFFCURVE",
"207 527 OFFCURVE",
"292 527 CURVE SMOOTH",
"376 527 OFFCURVE",
"408 458 OFFCURVE",
"408 304 CURVE SMOOTH",
"408 202 OFFCURVE",
"376 89 OFFCURVE",
"290 89 CURVE SMOOTH"
);
}
);
userData = {
RMXScaler = {
monoWidth = 599;
};
};
width = 582;
}
);
userData = {
RMXScaler = {
source = zero;
};
};
},
{
glyphname = one.tosf;
lastChange = "2018-05-25 16:18:50 +0000";
layers = (
{
layerId = "B61D43DE-5272-4FF4-A680-608B6BF5ED9E";
paths = (
{
closed = 1;
nodes = (
"371 632 LINE",
"98 589 LINE",
"98 474 LINE",
"280 507 LINE",
"236 544 LINE",
"236 53 LINE",
"281 98 LINE",
"84 98 LINE",
"84 0 LINE",
"503 0 LINE",
"503 98 LINE",
"326 98 LINE",
"371 53 LINE"
);
}
);
userData = {
RMXScaler = {
monoWidth = 599;
};
};
width = 599;
}
);
userData = {
RMXScaler = {
source = one;
};
};
},
{
glyphname = two.tosf;
lastChange = "2018-05-25 16:19:00 +0000";
layers = (
{
layerId = "B61D43DE-5272-4FF4-A680-608B6BF5ED9E";
paths = (
{
closed = 1;
nodes = (
"512 114 LINE",
"121 114 LINE",
"195 85 LINE",
"195 136 OFFCURVE",
"251 155 OFFCURVE",
"346 215 CURVE SMOOTH",
"428 267 OFFCURVE",
"508 348 OFFCURVE",
"508 433 CURVE SMOOTH",
"508 560 OFFCURVE",
"411 632 OFFCURVE",
"287 632 CURVE SMOOTH",
"151 632 OFFCURVE",
"59 546 OFFCURVE",
"43 442 CURVE",
"145 392 LINE",
"154 460 OFFCURVE",
"205 517 OFFCURVE",
"281 517 CURVE SMOOTH",
"343 517 OFFCURVE",
"374 485 OFFCURVE",
"374 433 CURVE SMOOTH",
"374 360 OFFCURVE",
"273 304 OFFCURVE",
"204 260 CURVE SMOOTH",
"83 183 OFFCURVE",
"56 125 OFFCURVE",
"56 70 CURVE SMOOTH",
"56 41 OFFCURVE",
"59 21 OFFCURVE",
"63 0 CURVE",
"512 0 LINE"
);
}
);
userData = {
RMXScaler = {
monoWidth = 599;
};
};
width = 599;
}
);
userData = {
RMXScaler = {
source = two;
};
};
},
{
glyphname = three.tosf;
lastChange = "2018-05-24 19:23:14 +0000";
layers = (
{
layerId = "B61D43DE-5272-4FF4-A680-608B6BF5ED9E";
paths = (
{
closed = 1;
nodes = (
"126 -79 OFFCURVE",
"199 -97 OFFCURVE",
"275 -97 CURVE SMOOTH",
"418 -97 OFFCURVE",
"534 -18 OFFCURVE",
"534 114 CURVE SMOOTH",
"534 198 OFFCURVE",
"486 278 OFFCURVE",
"401 278 CURVE",
"475 297 OFFCURVE",
"517 377 OFFCURVE",
"517 453 CURVE SMOOTH",
"517 567 OFFCURVE",
"429 632 OFFCURVE",
"291 632 CURVE SMOOTH",
"207 632 OFFCURVE",
"119 605 OFFCURVE",
"78 569 CURVE",
"118 464 LINE",
"154 504 OFFCURVE",
"225 525 OFFCURVE",
"264 525 CURVE SMOOTH",
"336 525 OFFCURVE",
"377 499 OFFCURVE",
"377 433 CURVE SMOOTH",
"377 372 OFFCURVE",
"338 327 OFFCURVE",
"256 327 CURVE",
"256 327 OFFCURVE",
"202 328 OFFCURVE",
"202 327 CURVE",
"202 228 LINE",
"201 229 OFFCURVE",
"243 230 OFFCURVE",
"244 230 CURVE SMOOTH",
"321 230 OFFCURVE",
"393 214 OFFCURVE",
"393 129 CURVE SMOOTH",
"393 65 OFFCURVE",
"352 17 OFFCURVE",
"262 17 CURVE SMOOTH",
"209 17 OFFCURVE",
"150 38 OFFCURVE",
"112 75 CURVE",
"70 -39 LINE"
);
}
);
userData = {
RMXScaler = {
monoWidth = 599;
};
};
width = 599;
}
);
userData = {
RMXScaler = {
source = three;
};
};
},
{
glyphname = four.tosf;
lastChange = "2018-05-25 05:04:22 +0000";
layers = (
{
layerId = "B61D43DE-5272-4FF4-A680-608B6BF5ED9E";
paths = (
{
closed = 1;
nodes = (
"476 0 LINE",
"476 438 LINE",
"353 438 LINE",
"343 158 LINE",
"343 0 LINE"
);
},
{
closed = 1;
nodes = (
"22 126 LINE",
"573 126 LINE",
"573 237 LINE",
"205 237 LINE",
"379 760 LINE",
"240 760 LINE"
);
}
);
userData = {
RMXScaler = {
monoWidth = 599;
};
};
width = 599;
}
);
userData = {
RMXScaler = {
source = four;
};
};
},
{
glyphname = five.tosf;
lastChange = "2018-05-24 19:23:14 +0000";
layers = (
{
layerId = "B61D43DE-5272-4FF4-A680-608B6BF5ED9E";
paths = (
{
closed = 1;
nodes = (
"128 -82 OFFCURVE",
"203 -94 OFFCURVE",
"264 -94 CURVE SMOOTH",
"427 -94 OFFCURVE",
"539 2 OFFCURVE",
"539 158 CURVE SMOOTH",
"539 289 OFFCURVE",
"464 373 OFFCURVE",
"323 373 CURVE SMOOTH",
"287 373 OFFCURVE",
"258 370 OFFCURVE",
"227 361 CURVE",
"237 510 LINE",
"509 510 LINE",
"509 616 LINE",
"123 616 LINE",
"110 243 LINE",
"131 256 OFFCURVE",
"196 275 OFFCURVE",
"252 275 CURVE SMOOTH",
"349 275 OFFCURVE",
"404 224 OFFCURVE",
"404 145 CURVE SMOOTH",
"404 26 OFFCURVE",
"311 15 OFFCURVE",
"247 15 CURVE SMOOTH",
"200 15 OFFCURVE",
"145 36 OFFCURVE",
"116 63 CURVE",
"79 -49 LINE"
);
}
);
userData = {
RMXScaler = {
monoWidth = 599;
};
};
width = 599;
}
);
userData = {
RMXScaler = {
source = five;
};
};
},
{
glyphname = six.tosf;
lastChange = "2018-05-24 19:23:14 +0000";
layers = (
{
layerId = "B61D43DE-5272-4FF4-A680-608B6BF5ED9E";
paths = (
{
closed = 1;
nodes = (
"37 73 OFFCURVE",
"186 -15 OFFCURVE",
"305 -15 CURVE SMOOTH",
"459 -15 OFFCURVE",
"555 85 OFFCURVE",
"555 239 CURVE SMOOTH",
"555 360 OFFCURVE",
"484 457 OFFCURVE",
"349 457 CURVE SMOOTH",
"276 457 OFFCURVE",
"204 427 OFFCURVE",
"168 358 CURVE",
"168 369 OFFCURVE",
"168 381 OFFCURVE",
"169 395 CURVE SMOOTH",
"176 498 OFFCURVE",
"242 605 OFFCURVE",
"346 605 CURVE SMOOTH",
"383 605 OFFCURVE",
"434 596 OFFCURVE",
"461 567 CURVE",
"510 663 LINE",
"478 694 OFFCURVE",
"433 714 OFFCURVE",
"339 714 CURVE SMOOTH",
"163 714 OFFCURVE",
"37 570 OFFCURVE",
"37 336 CURVE SMOOTH"
);
},
{
closed = 1;
nodes = (
"184 215 OFFCURVE",
"183 226 OFFCURVE",
"183 236 CURVE",
"187 301 OFFCURVE",
"245 355 OFFCURVE",
"319 355 CURVE SMOOTH",
"391 355 OFFCURVE",
"425 303 OFFCURVE",
"425 225 CURVE SMOOTH",
"425 139 OFFCURVE",
"371 88 OFFCURVE",
"308 88 CURVE SMOOTH",
"246 88 OFFCURVE",
"203 139 OFFCURVE",
"187 203 CURVE SMOOTH"
);
}
);
userData = {
RMXScaler = {
monoWidth = 599;
};
};
width = 599;
}
);
userData = {
RMXScaler = {
source = six;
};
};
},
{
glyphname = seven.tosf;
lastChange = "2018-05-24 19:23:14 +0000";
layers = (
{
layerId = "B61D43DE-5272-4FF4-A680-608B6BF5ED9E";
paths = (
{
closed = 1;
nodes = (
"314 -81 LINE",
"542 616 LINE",
"85 616 LINE",
"85 498 LINE",
"449 498 LINE",
"398 566 LINE",
"169 -81 LINE"
);
}
);
userData = {
RMXScaler = {
monoWidth = 599;
};
};
width = 599;
}
);
userData = {
RMXScaler = {
source = seven;
};
};
},
{
glyphname = eight.tosf;
lastChange = "2018-05-25 16:19:39 +0000";
layers = (
{
layerId = "B61D43DE-5272-4FF4-A680-608B6BF5ED9E";
paths = (
{
closed = 1;
nodes = (
"471 373 OFFCURVE",
"528 433 OFFCURVE",
"528 533 CURVE SMOOTH",
"528 665 OFFCURVE",
"416 714 OFFCURVE",
"301 714 CURVE SMOOTH",
"185 714 OFFCURVE",
"71 665 OFFCURVE",
"71 533 CURVE SMOOTH",
"71 432 OFFCURVE",
"124 373 OFFCURVE",
"210 350 CURVE",
"213 368 LINE",
"113 349 OFFCURVE",
"44 294 OFFCURVE",
"44 191 CURVE SMOOTH",
"44 40 OFFCURVE",
"174 -18 OFFCURVE",
"300 -18 CURVE SMOOTH",
"425 -18 OFFCURVE",
"555 40 OFFCURVE",
"555 191 CURVE SMOOTH",
"555 294 OFFCURVE",
"485 349 OFFCURVE",
"384 368 CURVE",
"388 350 LINE"
);
},
{
closed = 1;
nodes = (
"223 83 OFFCURVE",
"186 119 OFFCURVE",
"186 193 CURVE SMOOTH",
"186 283 OFFCURVE",
"242 310 OFFCURVE",
"300 310 CURVE SMOOTH",
"357 310 OFFCURVE",
"412 283 OFFCURVE",
"412 193 CURVE SMOOTH",
"412 119 OFFCURVE",
"376 83 OFFCURVE",
"300 83 CURVE SMOOTH"
);
},
{
closed = 1;
nodes = (
"240 412 OFFCURVE",
"203 452 OFFCURVE",
"203 524 CURVE SMOOTH",
"203 589 OFFCURVE",
"234 622 OFFCURVE",
"302 622 CURVE SMOOTH",
"369 622 OFFCURVE",
"397 589 OFFCURVE",
"397 524 CURVE SMOOTH",
"397 451 OFFCURVE",
"364 412 OFFCURVE",
"302 412 CURVE SMOOTH"
);
}
);
userData = {
RMXScaler = {
monoWidth = 599;
};
};
width = 599;
}
);
userData = {
RMXScaler = {
source = eight;
};
};
},
{
glyphname = nine.tosf;
lastChange = "2018-05-24 19:23:14 +0000";
layers = (
{
layerId = "B61D43DE-5272-4FF4-A680-608B6BF5ED9E";
paths = (
{
closed = 1;
nodes = (
"551 544 OFFCURVE",
"413 632 OFFCURVE",
"294 632 CURVE SMOOTH",
"143 632 OFFCURVE",
"36 534 OFFCURVE",
"36 380 CURVE SMOOTH",
"36 259 OFFCURVE",
"109 160 OFFCURVE",
"241 160 CURVE SMOOTH",
"314 160 OFFCURVE",
"383 190 OFFCURVE",
"419 259 CURVE",
"419 248 OFFCURVE",
"418 236 OFFCURVE",
"418 222 CURVE SMOOTH",
"418 101 OFFCURVE",
"348 16 OFFCURVE",
"244 16 CURVE SMOOTH",
"210 16 OFFCURVE",
"159 25 OFFCURVE",
"132 54 CURVE",
"83 -46 LINE",
"115 -77 OFFCURVE",
"160 -97 OFFCURVE",
"251 -97 CURVE SMOOTH",
"427 -97 OFFCURVE",
"551 47 OFFCURVE",
"551 281 CURVE SMOOTH"
);
},
{
closed = 1;
nodes = (
"401 402 OFFCURVE",
"404 391 OFFCURVE",
"404 381 CURVE",
"400 316 OFFCURVE",
"340 262 OFFCURVE",
"274 262 CURVE SMOOTH",
"205 262 OFFCURVE",
"168 314 OFFCURVE",
"168 392 CURVE SMOOTH",
"168 478 OFFCURVE",
"228 529 OFFCURVE",
"291 529 CURVE SMOOTH",
"353 529 OFFCURVE",
"395 478 OFFCURVE",
"400 414 CURVE SMOOTH"
);
}
);
userData = {
RMXScaler = {
monoWidth = 599;
};
};
width = 599;
}
);
userData = {
RMXScaler = {
source = nine;
};
};
},
{
glyphname = zero.tosf.zero;
lastChange = "2018-05-25 16:23:00 +0000";
layers = (
{
components = (
{
name = zero.tosf;
}
);
layerId = "B61D43DE-5272-4FF4-A680-608B6BF5ED9E";
paths = (
{
closed = 1;
nodes = (
"239 89 LINE",
"415 525 LINE",
"336 525 LINE",
"160 89 LINE"
);
}
);
width = 582;
}
);
leftMetricsKey = zero.tosf.zero;
rightMetricsKey = zero.tosf.zero;
},
{
glyphname = zero.zero;
lastChange = "2018-05-25 14:23:42 +0000";
layers = (
{
components = (
{
name = zero;
}
);
layerId = "B61D43DE-5272-4FF4-A680-608B6BF5ED9E";
paths = (
{
closed = 1;
nodes = (
"243 89 LINE",
"419 609 LINE",
"340 609 LINE",
"164 89 LINE"
);
}
);
width = 580;
}
);
leftKerningGroup = zero;
leftMetricsKey = zero;
rightKerningGroup = zero;
rightMetricsKey = zero;
},
{
glyphname = zero.dnom;
lastChange = "2018-05-24 19:23:14 +0000";
layers = (
{
layerId = "B61D43DE-5272-4FF4-A680-608B6BF5ED9E";
paths = (
{
closed = 1;
nodes = (
"386 -10 OFFCURVE",
"442 87 OFFCURVE",
"442 225 CURVE SMOOTH",
"442 387 OFFCURVE",
"371 462 OFFCURVE",
"249 462 CURVE SMOOTH",
"127 462 OFFCURVE",
"56 387 OFFCURVE",
"56 225 CURVE SMOOTH",
"56 87 OFFCURVE",
"112 -10 OFFCURVE",
"249 -10 CURVE SMOOTH"
);
},
{
closed = 1;
nodes = (
"181 64 OFFCURVE",
"159 132 OFFCURVE",
"159 226 CURVE SMOOTH",
"159 326 OFFCURVE",
"182 390 OFFCURVE",
"246 390 CURVE SMOOTH",
"309 390 OFFCURVE",
"333 326 OFFCURVE",
"333 226 CURVE SMOOTH",
"333 132 OFFCURVE",
"311 64 OFFCURVE",
"246 64 CURVE SMOOTH"
);
}
);
width = 498;
}
);
leftKerningGroup = zero.dnom;
rightKerningGroup = zero.dnom;
userData = {
RMXScaler = {
source = zero;
};
};
},
{
glyphname = one.dnom;
lastChange = "2018-05-25 05:08:50 +0000";
layers = (
{
layerId = "B61D43DE-5272-4FF4-A680-608B6BF5ED9E";
paths = (
{
closed = 1;
nodes = (
"187 0 LINE",
"187 466 LINE",
"84 441 LINE",
"84 0 LINE"
);
}
);
width = 271;
}
);
leftKerningGroup = one.dnom;
rightKerningGroup = one.dnom;
userData = {
RMXScaler = {
source = one;
};
};
},
{
glyphname = two.dnom;
lastChange = "2018-05-25 14:24:11 +0000";
layers = (
{
layerId = "B61D43DE-5272-4FF4-A680-608B6BF5ED9E";
paths = (
{
closed = 1;
nodes = (
"393 79 LINE",
"103 79 LINE",
"151 53 LINE",
"151 118 OFFCURVE",
"207 124 OFFCURVE",
"273 171 CURVE SMOOTH",
"335 215 OFFCURVE",
"393 250 OFFCURVE",
"393 333 CURVE SMOOTH",
"393 415 OFFCURVE",
"330 466 OFFCURVE",
"224 466 CURVE SMOOTH",
"121 466 OFFCURVE",
"63 402 OFFCURVE",
"54 348 CURVE",
"135 318 LINE",
"138 349 OFFCURVE",
"174 385 OFFCURVE",
"219 385 CURVE SMOOTH",
"268 385 OFFCURVE",
"294 359 OFFCURVE",
"294 325 CURVE SMOOTH",
"294 255 OFFCURVE",
"219 228 OFFCURVE",
"166 199 CURVE SMOOTH",
"75 149 OFFCURVE",
"54 99 OFFCURVE",
"54 40 CURVE SMOOTH",
"54 21 OFFCURVE",
"57 14 OFFCURVE",
"60 0 CURVE",
"393 0 LINE"
);
}
);
width = 450;
}
);
leftKerningGroup = two.dnom;
rightKerningGroup = two.dnom;
userData = {
RMXScaler = {
source = two;
};
};
},
{
glyphname = three.dnom;
lastChange = "2018-05-25 05:08:16 +0000";
layers = (
{
layerId = "B61D43DE-5272-4FF4-A680-608B6BF5ED9E";
paths = (
{
closed = 1;
nodes = (
"68 -1 OFFCURVE",
"118 -13 OFFCURVE",
"176 -13 CURVE SMOOTH",
"284 -13 OFFCURVE",
"366 38 OFFCURVE",
"366 124 CURVE SMOOTH",
"366 178 OFFCURVE",
"330 230 OFFCURVE",
"265 230 CURVE",
"321 242 OFFCURVE",
"353 301 OFFCURVE",
"353 350 CURVE SMOOTH",
"353 424 OFFCURVE",
"286 466 OFFCURVE",
"182 466 CURVE SMOOTH",
"118 466 OFFCURVE",
"65 446 OFFCURVE",
"35 423 CURVE",
"65 354 LINE",
"93 380 OFFCURVE",
"130 388 OFFCURVE",
"168 388 CURVE SMOOTH",
"206 388 OFFCURVE",
"247 374 OFFCURVE",
"247 330 CURVE SMOOTH",
"247 291 OFFCURVE",
"217 261 OFFCURVE",
"155 261 CURVE",
"155 261 OFFCURVE",
"115 262 OFFCURVE",
"115 261 CURVE",
"115 197 LINE",
"114 198 OFFCURVE",
"130 198 OFFCURVE",
"147 198 CURVE SMOOTH",
"206 198 OFFCURVE",
"259 188 OFFCURVE",
"259 133 CURVE SMOOTH",
"259 92 OFFCURVE",
"234 61 OFFCURVE",
"166 61 CURVE SMOOTH",
"126 61 OFFCURVE",
"86 75 OFFCURVE",
"58 99 CURVE",
"25 25 LINE"
);
}
);
width = 420;
}
);
leftKerningGroup = three.dnom;
rightKerningGroup = three.dnom;
userData = {
RMXScaler = {
source = three;
};
};
},
{
glyphname = four.dnom;
lastChange = "2018-05-25 05:09:03 +0000";
layers = (
{
layerId = "B61D43DE-5272-4FF4-A680-608B6BF5ED9E";
paths = (
{
closed = 1;
nodes = (
"340 0 LINE",
"340 283 LINE",
"253 283 LINE",
"245 112 LINE",
"245 0 LINE"
);
},
{
closed = 1;
nodes = (
"26 82 LINE",
"405 82 LINE",
"405 155 LINE",
"142 155 LINE",
"172 247 LINE",
"230 451 LINE",
"133 451 LINE"
);
}
);
width = 436;
}
);
leftKerningGroup = four.dnom;
rightKerningGroup = four.dnom;
userData = {
RMXScaler = {
source = four;
};
};
},
{
glyphname = five.dnom;
lastChange = "2018-05-25 05:07:35 +0000";
layers = (
{
layerId = "B61D43DE-5272-4FF4-A680-608B6BF5ED9E";
paths = (
{
closed = 1;
nodes = (
"87 -4 OFFCURVE",
"143 -13 OFFCURVE",
"189 -13 CURVE SMOOTH",
"313 -13 OFFCURVE",
"389 50 OFFCURVE",
"389 151 CURVE SMOOTH",
"389 236 OFFCURVE",
"336 293 OFFCURVE",
"229 293 CURVE SMOOTH",
"211 293 OFFCURVE",
"177 289 OFFCURVE",
"160 282 CURVE",
"169 377 LINE",
"360 377 LINE",
"360 451 LINE",
"83 451 LINE",
"69 201 LINE",
"85 209 OFFCURVE",
"142 218 OFFCURVE",
"199 218 CURVE SMOOTH",
"273 218 OFFCURVE",
"292 184 OFFCURVE",
"292 144 CURVE SMOOTH",
"292 78 OFFCURVE",
"225 65 OFFCURVE",
"176 65 CURVE SMOOTH",
"141 65 OFFCURVE",
"103 76 OFFCURVE",
"80 94 CURVE",
"50 17 LINE"
);
}
);
width = 429;
}
);
leftKerningGroup = five.dnom;
rightKerningGroup = five.dnom;
userData = {
RMXScaler = {
source = five;
};
};
},
{
glyphname = six.dnom;
lastChange = "2018-05-25 14:57:12 +0000";
layers = (
{
layerId = "B61D43DE-5272-4FF4-A680-608B6BF5ED9E";
paths = (
{
closed = 1;
nodes = (
"49 40 OFFCURVE",
"151 -10 OFFCURVE",
"240 -10 CURVE SMOOTH",
"356 -10 OFFCURVE",
"432 46 OFFCURVE",
"432 146 CURVE SMOOTH",
"432 223 OFFCURVE",
"376 288 OFFCURVE",
"273 288 CURVE SMOOTH",
"219 288 OFFCURVE",
"154 262 OFFCURVE",
"127 217 CURVE",
"142 225 LINE",
"133 308 OFFCURVE",
"180 390 OFFCURVE",
"269 390 CURVE SMOOTH",
"296 390 OFFCURVE",
"335 383 OFFCURVE",
"355 365 CURVE",
"395 430 LINE",
"371 450 OFFCURVE",
"333 463 OFFCURVE",
"266 463 CURVE SMOOTH",
"131 463 OFFCURVE",
"49 351 OFFCURVE",
"49 209 CURVE SMOOTH"
);
},
{
closed = 1;
nodes = (
"156 131 OFFCURVE",
"155 138 OFFCURVE",
"155 145 CURVE",
"158 187 OFFCURVE",
"199 217 OFFCURVE",
"253 217 CURVE SMOOTH",
"307 217 OFFCURVE",
"337 188 OFFCURVE",
"337 137 CURVE SMOOTH",
"337 82 OFFCURVE",
"292 62 OFFCURVE",
"245 62 CURVE SMOOTH",
"198 62 OFFCURVE",
"170 82 OFFCURVE",
"158 124 CURVE SMOOTH"
);
}
);
width = 482;
}
);
leftKerningGroup = six.dnom;
rightKerningGroup = six.dnom;
userData = {
RMXScaler = {
source = six;
};
};
},
{
glyphname = seven.dnom;
lastChange = "2018-05-25 14:25:58 +0000";
layers = (
{
layerId = "B61D43DE-5272-4FF4-A680-608B6BF5ED9E";
paths = (
{
closed = 1;
nodes = (
"208 0 LINE",
"379 451 LINE",
"35 451 LINE",
"35 374 LINE",
"309 374 LINE",
"272 419 LINE",
"100 0 LINE"
);
}
);
width = 393;
}
);
leftKerningGroup = seven.dnom;
rightKerningGroup = seven.dnom;
userData = {
RMXScaler = {
source = seven;
};
};
},
{
glyphname = eight.dnom;
lastChange = "2018-05-25 14:58:02 +0000";
layers = (
{
layerId = "B61D43DE-5272-4FF4-A680-608B6BF5ED9E";
paths = (
{
closed = 1;
nodes = (
"341 -13 OFFCURVE",
"442 24 OFFCURVE",
"442 122 CURVE SMOOTH",
"442 182 OFFCURVE",
"398 220 OFFCURVE",
"334 237 CURVE",
"386 255 OFFCURVE",
"420 291 OFFCURVE",
"420 349 CURVE SMOOTH",
"420 434 OFFCURVE",
"335 466 OFFCURVE",
"248 466 CURVE SMOOTH",
"160 466 OFFCURVE",
"73 434 OFFCURVE",
"73 349 CURVE SMOOTH",
"73 291 OFFCURVE",
"105 254 OFFCURVE",
"159 237 CURVE",
"94 220 OFFCURVE",
"50 182 OFFCURVE",
"50 122 CURVE SMOOTH",
"50 24 OFFCURVE",
"152 -13 OFFCURVE",
"247 -13 CURVE SMOOTH"
);
},
{
closed = 1;
nodes = (
"189 57 OFFCURVE",
"159 80 OFFCURVE",
"159 127 CURVE SMOOTH",
"159 185 OFFCURVE",
"203 199 OFFCURVE",
"247 199 CURVE SMOOTH",
"290 199 OFFCURVE",
"334 185 OFFCURVE",
"334 127 CURVE SMOOTH",
"334 80 OFFCURVE",
"304 57 OFFCURVE",
"247 57 CURVE SMOOTH"
);
},
{
closed = 1;
nodes = (
"202 271 OFFCURVE",
"174 293 OFFCURVE",
"174 339 CURVE SMOOTH",
"174 382 OFFCURVE",
"197 401 OFFCURVE",
"249 401 CURVE SMOOTH",
"299 401 OFFCURVE",
"320 382 OFFCURVE",
"320 339 CURVE SMOOTH",
"320 293 OFFCURVE",
"295 271 OFFCURVE",
"249 271 CURVE SMOOTH"
);
}
);
width = 492;
}
);
leftKerningGroup = eight.dnom;
rightKerningGroup = eight.dnom;
userData = {
RMXScaler = {
source = eight;
};
};
},
{
glyphname = nine.dnom;
lastChange = "2018-05-25 14:57:32 +0000";
layers = (
{
layerId = "B61D43DE-5272-4FF4-A680-608B6BF5ED9E";
paths = (
{
closed = 1;
nodes = (
"432 413 OFFCURVE",
"330 463 OFFCURVE",
"241 463 CURVE SMOOTH",
"125 463 OFFCURVE",
"49 407 OFFCURVE",
"49 307 CURVE SMOOTH",
"49 230 OFFCURVE",
"105 165 OFFCURVE",
"208 165 CURVE SMOOTH",
"262 165 OFFCURVE",
"327 191 OFFCURVE",
"354 236 CURVE",
"339 228 LINE",
"348 145 OFFCURVE",
"301 63 OFFCURVE",
"212 63 CURVE SMOOTH",
"185 63 OFFCURVE",
"146 70 OFFCURVE",
"126 88 CURVE",
"86 23 LINE",
"110 3 OFFCURVE",
"148 -10 OFFCURVE",
"215 -10 CURVE SMOOTH",
"350 -10 OFFCURVE",
"432 102 OFFCURVE",
"432 244 CURVE SMOOTH"
);
},
{
closed = 1;
nodes = (
"325 322 OFFCURVE",
"326 315 OFFCURVE",
"326 308 CURVE",
"323 266 OFFCURVE",
"282 236 OFFCURVE",
"228 236 CURVE SMOOTH",
"174 236 OFFCURVE",
"144 265 OFFCURVE",
"144 316 CURVE SMOOTH",
"144 371 OFFCURVE",
"189 391 OFFCURVE",
"236 391 CURVE SMOOTH",
"283 391 OFFCURVE",
"311 371 OFFCURVE",
"323 329 CURVE SMOOTH"
);
}
);
width = 482;
}
);
leftKerningGroup = nine.dnom;
rightKerningGroup = nine.dnom;
userData = {
RMXScaler = {
source = nine;
};
};
},
{
glyphname = fraction;
lastChange = "2018-05-24 19:23:14 +0000";
layers = (
{
background = {
paths = (
{
closed = 1;
nodes = (
"-136 -1 OFFCURVE",
"-29 0 OFFCURVE",
"-26 0 CURVE",
"365 782 LINE",
"250 782 LINE",
"-140 -1 LINE"
);
}
);
};
layerId = "B61D43DE-5272-4FF4-A680-608B6BF5ED9E";
paths = (
{
closed = 1;
nodes = (
"-126 -11 OFFCURVE",
"-29 -10 OFFCURVE",
"-26 -10 CURVE",
"356 798 LINE",
"251 798 LINE",
"-130 -11 LINE"
);
}
);
width = 225;
}
);
leftKerningGroup = fraction;
rightKerningGroup = fraction;
unicode = 2044;
userData = {
com.typemytype.robofont.mark = (
0.656,
1,
0.6,
1
);
};
},
{
glyphname = period;
lastChange = "2018-05-24 19:23:14 +0000";
layers = (
{
layerId = "B61D43DE-5272-4FF4-A680-608B6BF5ED9E";
paths = (
{
closed = 1;
nodes = (
"163 0 LINE",
"163 129 LINE",
"50 129 LINE",
"50 0 LINE"
);
}
);
width = 213;
}
);
leftKerningGroup = period;
rightKerningGroup = period;
unicode = 002E;
userData = {
com.typemytype.robofont.mark = (
0.656,
1,
0.6,
1
);
};
},
{
glyphname = comma;
lastChange = "2018-05-25 05:09:48 +0000";
layers = (
{
background = {
paths = (
{
closed = 1;
nodes = (
"163 0 LINE",
"163 129 LINE",
"50 129 LINE",
"50 0 LINE"
);
}
);
};
layerId = "B61D43DE-5272-4FF4-A680-608B6BF5ED9E";
paths = (
{
closed = 1;
nodes = (
"54 47 LINE",
"54 -34 OFFCURVE",
"45 -136 OFFCURVE",
"34 -163 CURVE",
"120 -163 LINE",
"143 -129 OFFCURVE",
"163 -22 OFFCURVE",
"163 71 CURVE",
"163 129 LINE",
"54 129 LINE"
);
}
);
width = 223;
}
);
leftKerningGroup = period;
rightKerningGroup = period;
unicode = 002C;
userData = {
com.typemytype.robofont.mark = (
0.656,
1,
0.6,
1
);
};
},
{
glyphname = exclam;
lastChange = "2018-05-25 05:53:16 +0000";
layers = (
{
layerId = "B61D43DE-5272-4FF4-A680-608B6BF5ED9E";
paths = (
{
closed = 1;
nodes = (
"236 233 LINE",
"250 769 LINE",
"113 769 LINE",
"126 233 LINE"
);
},
{
closed = 1;
nodes = (
"238 0 LINE",
"238 129 LINE",
"124 129 LINE",
"124 0 LINE"
);
}
);
width = 362;
}
);
leftKerningGroup = exclam;
rightKerningGroup = exclam;
unicode = 0021;
userData = {
com.typemytype.robofont.mark = (
0.656,
1,
0.6,
1
);
};
},
{
glyphname = exclamdown;
lastChange = "2018-05-24 19:23:14 +0000";
layers = (
{
layerId = "B61D43DE-5272-4FF4-A680-608B6BF5ED9E";
paths = (
{
closed = 1;
nodes = (
"127 376 LINE",
"113 -160 LINE",
"250 -160 LINE",
"237 376 LINE"
);
},
{
closed = 1;
nodes = (
"125 609 LINE",
"125 480 LINE",
"239 480 LINE",
"239 609 LINE"
);
}
);
width = 362;
}
);
leftKerningGroup = exclamdown;
leftMetricsKey = exclam;
rightKerningGroup = exclamdown;
rightMetricsKey = exclam;
unicode = 00A1;
userData = {
com.typemytype.robofont.mark = (
0.656,
1,
0.6,
1
);
};
},
{
color = 4;
glyphname = question;
lastChange = "2018-05-25 16:27:57 +0000";
layers = (
{
layerId = "B61D43DE-5272-4FF4-A680-608B6BF5ED9E";
paths = (
{
closed = 1;
nodes = (
"292 0 LINE",
"292 129 LINE",
"179 129 LINE",
"179 0 LINE"
);
},
{
closed = 1;
nodes = (
"118 588 LINE",
"135 621 OFFCURVE",
"177 663 OFFCURVE",
"240 663 CURVE SMOOTH",
"293 663 OFFCURVE",
"331 636 OFFCURVE",
"331 579 CURVE SMOOTH",
"331 452 OFFCURVE",
"173 463 OFFCURVE",
"173 290 CURVE SMOOTH",
"173 270 OFFCURVE",
"175 251 OFFCURVE",
"180 225 CURVE",
"284 225 LINE",
"283 255 LINE",
"283 441 OFFCURVE",
"461 422 OFFCURVE",
"461 582 CURVE SMOOTH",
"461 697 OFFCURVE",
"393 773 OFFCURVE",
"251 777 CURVE SMOOTH",
"155 780 OFFCURVE",
"82 731 OFFCURVE",
"47 688 CURVE"
);
}
);
width = 481;
}
);
leftKerningGroup = question;
rightKerningGroup = question;
unicode = 003F;
userData = {
com.typemytype.robofont.mark = (
0.656,
1,
0.6,
1
);
};
},
{
color = 4;
glyphname = questiondown;
lastChange = "2018-05-25 16:27:57 +0000";
layers = (
{
background = {
paths = (
{
closed = 1;
nodes = (
"197 384 LINE",
"198 354 LINE",
"198 168 OFFCURVE",
"20 187 OFFCURVE",
"20 27 CURVE SMOOTH",
"20 -89 OFFCURVE",
"88 -165 OFFCURVE",
"230 -169 CURVE SMOOTH",
"364 -173 OFFCURVE",
"455 -76 OFFCURVE",
"455 -33 CURVE",
"369 37 LINE",
"360 4 OFFCURVE",
"315 -55 OFFCURVE",
"241 -55 CURVE SMOOTH",
"188 -55 OFFCURVE",
"150 -28 OFFCURVE",
"150 30 CURVE SMOOTH",
"150 157 OFFCURVE",
"308 146 OFFCURVE",
"308 319 CURVE SMOOTH",
"308 339 OFFCURVE",
"306 358 OFFCURVE",
"301 384 CURVE"
);
},
{
closed = 1;
nodes = (
"189 609 LINE",
"189 480 LINE",
"302 480 LINE",
"302 609 LINE"
);
}
);
};
layerId = "B61D43DE-5272-4FF4-A680-608B6BF5ED9E";
paths = (
{
closed = 1;
nodes = (
"189 609 LINE",
"189 480 LINE",
"302 480 LINE",
"302 609 LINE"
);
},
{
closed = 1;
nodes = (
"363 21 LINE",
"346 -12 OFFCURVE",
"304 -54 OFFCURVE",
"241 -54 CURVE SMOOTH",
"188 -54 OFFCURVE",
"150 -27 OFFCURVE",
"150 30 CURVE SMOOTH",
"150 157 OFFCURVE",
"308 146 OFFCURVE",
"308 319 CURVE SMOOTH",
"308 339 OFFCURVE",
"306 358 OFFCURVE",
"301 384 CURVE",
"197 384 LINE",
"198 354 LINE",
"198 168 OFFCURVE",
"20 187 OFFCURVE",
"20 27 CURVE SMOOTH",
"20 -88 OFFCURVE",
"88 -164 OFFCURVE",
"230 -168 CURVE SMOOTH",
"326 -171 OFFCURVE",
"399 -122 OFFCURVE",
"434 -79 CURVE"
);
}
);
width = 481;
}
);
leftKerningGroup = questiondown;
rightKerningGroup = questiondown;
unicode = 00BF;
userData = {
com.typemytype.robofont.mark = (
0.656,
1,
0.6,
1
);
};
},
{
glyphname = bullet;
lastChange = "2018-05-24 19:23:14 +0000";
layers = (
{
layerId = "B61D43DE-5272-4FF4-A680-608B6BF5ED9E";
paths = (
{
closed = 1;
nodes = (
"218 220 OFFCURVE",
"262 250 OFFCURVE",
"262 317 CURVE SMOOTH",
"262 380 OFFCURVE",
"217 415 OFFCURVE",
"169 415 CURVE SMOOTH",
"123 415 OFFCURVE",
"78 380 OFFCURVE",
"78 317 CURVE SMOOTH",
"78 250 OFFCURVE",
"122 220 OFFCURVE",
"169 220 CURVE SMOOTH"
);
}
);
width = 337;
}
);
leftKerningGroup = bullet;
rightKerningGroup = bullet;
unicode = 2022;
userData = {
com.typemytype.robofont.mark = (
0.656,
1,
0.6,
1
);
};
},
{
glyphname = asterisk;
lastChange = "2018-05-25 05:11:48 +0000";
layers = (
{
layerId = "B61D43DE-5272-4FF4-A680-608B6BF5ED9E";
paths = (
{
closed = 1;
nodes = (
"259 523 LINE",
"236 522 LINE",
"334 368 LINE",
"416 426 LINE",
"300 563 LINE",
"300 544 LINE",
"460 590 LINE",
"428 682 LINE",
"275 619 LINE",
"288 604 LINE",
"297 776 LINE",
"196 776 LINE",
"207 604 LINE",
"218 620 LINE",
"65 684 LINE",
"36 592 LINE",
"194 545 LINE",
"193 564 LINE",
"78 427 LINE",
"161 368 LINE"
);
}
);
width = 495;
}
);
leftKerningGroup = asterisk;
rightKerningGroup = asterisk;
unicode = 002A;
userData = {
com.typemytype.robofont.mark = (
0.656,
1,
0.6,
1
);
};
},
{
glyphname = numbersign;
lastChange = "2018-05-24 19:23:14 +0000";
layers = (
{
layerId = "B61D43DE-5272-4FF4-A680-608B6BF5ED9E";
paths = (
{
closed = 1;
nodes = (
"43 283 LINE",
"43 206 LINE",
"550 206 LINE",
"550 283 LINE"
);
},
{
closed = 1;
nodes = (
"295 717 LINE",
"209 717 LINE",
"122 44 LINE",
"208 44 LINE"
);
},
{
closed = 1;
nodes = (
"576 477 LINE",
"576 553 LINE",
"69 553 LINE",
"69 477 LINE"
);
},
{
closed = 1;
nodes = (
"496 717 LINE",
"410 717 LINE",
"323 44 LINE",
"409 44 LINE"
);
}
);
width = 619;
}
);
leftKerningGroup = numbersign;
rightKerningGroup = numbersign;
unicode = 0023;
userData = {
com.typemytype.robofont.mark = (
0.656,
1,
0.6,
1
);
};
},
{
glyphname = slash;
lastChange = "2018-05-24 19:23:14 +0000";
layers = (
{
layerId = "B61D43DE-5272-4FF4-A680-608B6BF5ED9E";
paths = (
{
closed = 1;
nodes = (
"80 -180 LINE",
"378 879 LINE",
"280 879 LINE",
"-18 -179 LINE"
);
}
);
width = 360;
}
);
leftKerningGroup = slash;
rightKerningGroup = slash;
unicode = 002F;
userData = {
com.typemytype.robofont.mark = (
0.656,
1,
0.6,
1
);
};
},
{
glyphname = backslash;
lastChange = "2018-05-24 19:23:14 +0000";
layers = (
{
layerId = "B61D43DE-5272-4FF4-A680-608B6BF5ED9E";
paths = (
{
closed = 1;
nodes = (
"80 879 LINE",
"-18 879 LINE",
"280 -180 LINE",
"378 -179 LINE"
);
}
);
width = 360;
}
);
leftKerningGroup = backslash;
leftMetricsKey = slash;
rightKerningGroup = backslash;
rightMetricsKey = slash;
unicode = 005C;
userData = {
com.typemytype.robofont.mark = (
0.656,
1,
0.6,
1
);
};
},
{
color = 4;
glyphname = questiondown.cap;
lastChange = "2018-05-25 16:27:57 +0000";
layers = (
{
background = {
paths = (
{
closed = 1;
nodes = (
"197 472 LINE",
"198 442 LINE",
"198 256 OFFCURVE",
"20 275 OFFCURVE",
"20 115 CURVE SMOOTH",
"20 0 OFFCURVE",
"88 -76 OFFCURVE",
"230 -80 CURVE SMOOTH",
"364 -84 OFFCURVE",
"455 13 OFFCURVE",
"455 56 CURVE",
"369 125 LINE",
"360 92 OFFCURVE",
"315 34 OFFCURVE",
"241 34 CURVE SMOOTH",
"188 34 OFFCURVE",
"150 61 OFFCURVE",
"150 118 CURVE SMOOTH",
"150 245 OFFCURVE",
"308 234 OFFCURVE",
"308 407 CURVE SMOOTH",
"308 427 OFFCURVE",
"306 446 OFFCURVE",
"301 472 CURVE"
);
},
{
closed = 1;
nodes = (
"189 697 LINE",
"189 568 LINE",
"302 568 LINE",
"302 697 LINE"
);
}
);
};
layerId = "B61D43DE-5272-4FF4-A680-608B6BF5ED9E";
paths = (
{
closed = 1;
nodes = (
"189 697 LINE",
"189 568 LINE",
"302 568 LINE",
"302 697 LINE"
);
},
{
closed = 1;
nodes = (
"363 109 LINE",
"346 76 OFFCURVE",
"304 34 OFFCURVE",
"241 34 CURVE SMOOTH",
"188 34 OFFCURVE",
"150 61 OFFCURVE",
"150 118 CURVE SMOOTH",
"150 245 OFFCURVE",
"308 234 OFFCURVE",
"308 407 CURVE SMOOTH",
"308 427 OFFCURVE",
"306 446 OFFCURVE",
"301 472 CURVE",
"197 472 LINE",
"198 442 LINE",
"198 256 OFFCURVE",
"20 275 OFFCURVE",
"20 115 CURVE SMOOTH",
"20 0 OFFCURVE",
"88 -76 OFFCURVE",
"230 -80 CURVE SMOOTH",
"326 -83 OFFCURVE",
"399 -34 OFFCURVE",
"434 9 CURVE"
);
}
);
width = 481;
}
);
leftKerningGroup = questiondown.cap;
rightKerningGroup = questiondown.cap;
},
{
glyphname = bullet.case;
lastChange = "2018-05-24 19:23:14 +0000";
layers = (
{
layerId = "B61D43DE-5272-4FF4-A680-608B6BF5ED9E";
paths = (
{
closed = 1;
nodes = (
"218 260 OFFCURVE",
"262 290 OFFCURVE",
"262 357 CURVE SMOOTH",
"262 420 OFFCURVE",
"217 455 OFFCURVE",
"169 455 CURVE SMOOTH",
"123 455 OFFCURVE",
"78 420 OFFCURVE",
"78 357 CURVE SMOOTH",
"78 290 OFFCURVE",
"122 260 OFFCURVE",
"169 260 CURVE SMOOTH"
);
}
);
width = 340;
}
);
leftKerningGroup = bullet.cap;
rightKerningGroup = bullet.cap;
},
{
glyphname = slash.case;
lastChange = "2018-05-24 19:23:14 +0000";
layers = (
{
layerId = "B61D43DE-5272-4FF4-A680-608B6BF5ED9E";
paths = (
{
closed = 1;
nodes = (
"80 -170 LINE",
"378 889 LINE",
"280 889 LINE",
"-18 -169 LINE"
);
}
);
width = 360;
}
);
leftKerningGroup = slash.case;
leftMetricsKey = slash;
rightKerningGroup = slash.case;
rightMetricsKey = slash;
},
{
glyphname = backslash.case;
lastChange = "2018-05-24 19:23:14 +0000";
layers = (
{
layerId = "B61D43DE-5272-4FF4-A680-608B6BF5ED9E";
paths = (
{
closed = 1;
nodes = (
"80 889 LINE",
"-18 889 LINE",
"280 -170 LINE",
"378 -169 LINE"
);
}
);
width = 360;
}
);
leftKerningGroup = backslash.case;
leftMetricsKey = slash;
rightKerningGroup = backslash.case;
rightMetricsKey = slash;
},
{
glyphname = parenleft;
lastChange = "2018-05-25 05:19:30 +0000";
layers = (
{
layerId = "B61D43DE-5272-4FF4-A680-608B6BF5ED9E";
paths = (
{
closed = 1;
nodes = (
"63 -12 OFFCURVE",
"236 -172 OFFCURVE",
"322 -196 CURVE",
"366 -152 LINE",
"326 -124 OFFCURVE",
"189 -22 OFFCURVE",
"189 282 CURVE SMOOTH",
"189 586 OFFCURVE",
"321 699 OFFCURVE",
"366 717 CURVE",
"322 761 LINE",
"236 746 OFFCURVE",
"63 576 OFFCURVE",
"63 282 CURVE SMOOTH"
);
}
);
width = 386;
}
);
leftKerningGroup = parenleft;
rightKerningGroup = parenleft;
unicode = 0028;
userData = {
com.typemytype.robofont.mark = (
0.656,
1,
0.6,
1
);
};
},
{
glyphname = braceleft;
lastChange = "2018-05-25 05:20:02 +0000";
layers = (
{
layerId = "B61D43DE-5272-4FF4-A680-608B6BF5ED9E";
paths = (
{
closed = 1;
nodes = (
"115 -84 OFFCURVE",
"209 -164 OFFCURVE",
"352 -144 CURVE",
"353 -80 LINE",
"232 -104 OFFCURVE",
"228 -16 OFFCURVE",
"228 99 CURVE SMOOTH",
"228 188 LINE SMOOTH",
"228 280 OFFCURVE",
"173 319 OFFCURVE",
"139 328 CURVE",
"177 338 OFFCURVE",
"228 376 OFFCURVE",
"228 484 CURVE SMOOTH",
"228 561 LINE SMOOTH",
"228 677 OFFCURVE",
"231 764 OFFCURVE",
"352 741 CURVE",
"351 805 LINE",
"208 824 OFFCURVE",
"115 745 OFFCURVE",
"115 625 CURVE SMOOTH",
"115 444 LINE SMOOTH",
"115 367 OFFCURVE",
"52 367 OFFCURVE",
"24 367 CURVE",
"24 292 LINE",
"52 292 OFFCURVE",
"115 291 OFFCURVE",
"115 210 CURVE SMOOTH",
"115 35 LINE"
);
}
);
width = 392;
}
);
leftKerningGroup = braceleft;
rightKerningGroup = braceleft;
unicode = 007B;
userData = {
com.typemytype.robofont.mark = (
0.656,
1,
0.6,
1
);
};
},
{
glyphname = bracketleft;
lastChange = "2018-05-25 06:10:30 +0000";
layers = (
{
layerId = "B61D43DE-5272-4FF4-A680-608B6BF5ED9E";
paths = (
{
closed = 1;
nodes = (
"215 11 LINE",
"215 865 LINE",
"196 841 LINE",
"342 841 LINE",
"342 914 LINE",
"105 914 LINE",
"105 -39 LINE",
"342 -39 LINE",
"342 34 LINE",
"196 34 LINE"
);
}
);
width = 386;
}
);
leftKerningGroup = bracketleft;
rightKerningGroup = bracketleft;
unicode = 005B;
userData = {
com.typemytype.robofont.mark = (
0.656,
1,
0.6,
1
);
};
},
{
glyphname = parenleft.case;
lastChange = "2018-05-24 19:23:14 +0000";
layers = (
{
layerId = "B61D43DE-5272-4FF4-A680-608B6BF5ED9E";
paths = (
{
closed = 1;
nodes = (
"63 57 OFFCURVE",
"236 -104 OFFCURVE",
"322 -128 CURVE",
"366 -83 LINE",
"326 -56 OFFCURVE",
"189 46 OFFCURVE",
"189 351 CURVE SMOOTH",
"189 655 OFFCURVE",
"321 767 OFFCURVE",
"366 785 CURVE",
"322 830 LINE",
"236 815 OFFCURVE",
"63 644 OFFCURVE",
"63 351 CURVE SMOOTH"
);
}
);
width = 386;
}
);
leftKerningGroup = parenleft.cap;
rightKerningGroup = parenleft.cap;
},
{
glyphname = braceleft.case;
lastChange = "2018-05-24 19:23:14 +0000";
layers = (
{
layerId = "B61D43DE-5272-4FF4-A680-608B6BF5ED9E";
paths = (
{
closed = 1;
nodes = (
"109 -59 OFFCURVE",
"203 -139 OFFCURVE",
"346 -120 CURVE",
"347 -56 LINE",
"226 -79 OFFCURVE",
"222 8 OFFCURVE",
"222 124 CURVE SMOOTH",
"222 213 LINE SMOOTH",
"222 305 OFFCURVE",
"167 344 OFFCURVE",
"133 353 CURVE",
"171 362 OFFCURVE",
"222 401 OFFCURVE",
"222 508 CURVE SMOOTH",
"222 585 LINE SMOOTH",
"222 702 OFFCURVE",
"225 789 OFFCURVE",
"346 765 CURVE",
"345 829 LINE",
"202 849 OFFCURVE",
"109 769 OFFCURVE",
"109 650 CURVE SMOOTH",
"109 468 LINE SMOOTH",
"109 392 OFFCURVE",
"46 392 OFFCURVE",
"18 392 CURVE",
"18 316 LINE",
"46 316 OFFCURVE",
"109 315 OFFCURVE",
"109 234 CURVE SMOOTH",
"109 60 LINE"
);
}
);
width = 386;
}
);
leftKerningGroup = braceleft.cap;
rightKerningGroup = braceleft.cap;
},
{
glyphname = bracketleft.case;
lastChange = "2018-05-24 19:23:14 +0000";
layers = (
{
layerId = "B61D43DE-5272-4FF4-A680-608B6BF5ED9E";
paths = (
{
closed = 1;
nodes = (
"215 -73 LINE",
"215 780 LINE",
"196 757 LINE",
"342 757 LINE",
"342 830 LINE",
"105 830 LINE",
"105 -123 LINE",
"342 -123 LINE",
"342 -50 LINE",
"196 -51 LINE"
);
}
);
width = 386;
}
);
leftKerningGroup = bracketleft.cap;
rightKerningGroup = bracketleft.cap;
},
{
glyphname = hyphen;
lastChange = "2018-05-24 19:23:14 +0000";
layers = (
{
layerId = "B61D43DE-5272-4FF4-A680-608B6BF5ED9E";
paths = (
{
closed = 1;
nodes = (
"387 246 LINE",
"387 344 LINE",
"68 344 LINE",
"68 246 LINE"
);
}
);
width = 455;
}
);
leftKerningGroup = hyphen;
rightKerningGroup = hyphen;
unicode = 002D;
userData = {
com.typemytype.robofont.mark = (
0.656,
1,
0.6,
1
);
};
},
{
glyphname = softhyphen;
lastChange = "2018-05-24 19:23:14 +0000";
layers = (
{
layerId = "B61D43DE-5272-4FF4-A680-608B6BF5ED9E";
paths = (
{
closed = 1;
nodes = (
"387 246 LINE",
"387 344 LINE",
"68 344 LINE",
"68 246 LINE"
);
}
);
width = 455;
}
);
leftKerningGroup = hyphen;
leftMetricsKey = hyphen;
rightKerningGroup = hyphen;
rightMetricsKey = hyphen;
unicode = 00AD;
userData = {
com.typemytype.robofont.mark = (
0.656,
1,
0.6,
1
);
};
},
{
glyphname = endash;
lastChange = "2018-05-25 05:47:54 +0000";
layers = (
{
layerId = "B61D43DE-5272-4FF4-A680-608B6BF5ED9E";
paths = (
{
closed = 1;
nodes = (
"581 246 LINE",
"581 344 LINE",
"68 344 LINE",
"68 246 LINE"
);
}
);
width = 649;
}
);
leftKerningGroup = hyphen;
leftMetricsKey = hyphen;
rightKerningGroup = hyphen;
rightMetricsKey = hyphen;
unicode = 2013;
userData = {
com.typemytype.robofont.mark = (
0.656,
1,
0.6,
1
);
};
},
{
glyphname = emdash;
lastChange = "2018-05-24 19:23:14 +0000";
layers = (
{
layerId = "B61D43DE-5272-4FF4-A680-608B6BF5ED9E";
paths = (
{
closed = 1;
nodes = (
"885 246 LINE",
"885 344 LINE",
"68 344 LINE",
"68 246 LINE"
);
}
);
width = 953;
}
);
leftKerningGroup = hyphen;
leftMetricsKey = hyphen;
rightKerningGroup = hyphen;
rightMetricsKey = hyphen;
unicode = 2014;
userData = {
com.typemytype.robofont.mark = (
0.656,
1,
0.6,
1
);
};
},
{
glyphname = figuredash;
lastChange = "2018-05-25 05:25:43 +0000";
layers = (
{
layerId = "B61D43DE-5272-4FF4-A680-608B6BF5ED9E";
paths = (
{
closed = 1;
nodes = (
"512 246 LINE",
"512 344 LINE",
"68 344 LINE",
"68 246 LINE"
);
}
);
width = 580;
}
);
leftKerningGroup = hyphen;
leftMetricsKey = hyphen;
rightKerningGroup = hyphen;
rightMetricsKey = hyphen;
unicode = 2012;
userData = {
com.typemytype.robofont.mark = (
0.967,
0.6,
1,
1
);
};
},
{
color = 4;
glyphname = underscore;
lastChange = "2018-05-25 06:07:59 +0000";
layers = (
{
layerId = "B61D43DE-5272-4FF4-A680-608B6BF5ED9E";
paths = (
{
closed = 1;
nodes = (
"-12 -193 LINE",
"1012 -193 LINE",
"1012 -115 LINE",
"-12 -115 LINE"
);
}
);
width = 1000;
}
);
leftKerningGroup = underscore;
widthMetricsKey = emspace;
rightKerningGroup = underscore;
unicode = 005F;
userData = {
com.typemytype.robofont.mark = (
0.656,
1,
0.6,
1
);
};
},
{
glyphname = hyphen.case;
lastChange = "2018-05-25 05:26:00 +0000";
layers = (
{
layerId = "B61D43DE-5272-4FF4-A680-608B6BF5ED9E";
paths = (
{
closed = 1;
nodes = (
"387 297 LINE",
"387 395 LINE",
"68 395 LINE",
"68 297 LINE"
);
}
);
width = 455;
}
);
leftKerningGroup = hyphen;
leftMetricsKey = hyphen;
rightKerningGroup = hyphen;
rightMetricsKey = hyphen;
},
{
glyphname = endash.case;
lastChange = "2018-05-25 05:26:02 +0000";
layers = (
{
layerId = "B61D43DE-5272-4FF4-A680-608B6BF5ED9E";
paths = (
{
closed = 1;
nodes = (
"581 297 LINE",
"581 395 LINE",
"68 395 LINE",
"68 297 LINE"
);
}
);
width = 649;
}
);
leftKerningGroup = hyphen;
leftMetricsKey = hyphen;
rightKerningGroup = hyphen;
rightMetricsKey = hyphen;
},
{
glyphname = emdash.case;
lastChange = "2018-05-25 05:26:04 +0000";
layers = (
{
layerId = "B61D43DE-5272-4FF4-A680-608B6BF5ED9E";
paths = (
{
closed = 1;
nodes = (
"885 297 LINE",
"885 395 LINE",
"68 395 LINE",
"68 297 LINE"
);
}
);
width = 953;
}
);
leftKerningGroup = hyphen;
leftMetricsKey = hyphen;
rightKerningGroup = hyphen;
rightMetricsKey = hyphen;
},
{
glyphname = quoteleft;
lastChange = "2018-05-24 19:23:14 +0000";
layers = (
{
background = {
paths = (
{
closed = 1;
nodes = (
"170 389 LINE",
"188 464 OFFCURVE",
"224 587 OFFCURVE",
"224 697 CURVE",
"95 697 LINE",
"95 594 OFFCURVE",
"80 465 OFFCURVE",
"64 389 CURVE"
);
}
);
};
layerId = "B61D43DE-5272-4FF4-A680-608B6BF5ED9E";
paths = (
{
closed = 1;
nodes = (
"107 697 LINE",
"89 622 OFFCURVE",
"53 499 OFFCURVE",
"53 389 CURVE",
"176 389 LINE",
"176 492 OFFCURVE",
"191 621 OFFCURVE",
"207 697 CURVE"
);
}
);
width = 292;
}
);
leftKerningGroup = quotedblleft;
rightKerningGroup = quotedblleft;
unicode = 2018;
userData = {
com.typemytype.robofont.mark = (
0.656,
1,
0.6,
1
);
};
},
{
glyphname = quoteright;
lastChange = "2018-05-25 05:49:30 +0000";
layers = (
{
layerId = "B61D43DE-5272-4FF4-A680-608B6BF5ED9E";
paths = (
{
closed = 1;
nodes = (
"170 389 LINE",
"188 464 OFFCURVE",
"224 587 OFFCURVE",
"224 697 CURVE",
"101 697 LINE",
"101 594 OFFCURVE",
"86 465 OFFCURVE",
"70 389 CURVE"
);
}
);
width = 292;
}
);
leftKerningGroup = quotedblleft;
rightKerningGroup = quotedblleft;
unicode = 2019;
userData = {
com.typemytype.robofont.mark = (
0.656,
1,
0.6,
1
);
};
},
{
glyphname = guilsinglleft;
lastChange = "2018-05-24 19:23:14 +0000";
layers = (
{
layerId = "B61D43DE-5272-4FF4-A680-608B6BF5ED9E";
paths = (
{
closed = 1;
nodes = (
"229 24 LINE",
"369 24 LINE",
"192 263 LINE",
"192 234 LINE",
"372 473 LINE",
"231 473 LINE",
"69 248 LINE"
);
}
);
width = 451;
}
);
leftKerningGroup = guillemotleft;
rightKerningGroup = guillemotleft;
unicode = 2039;
userData = {
com.typemytype.robofont.mark = (
0.656,
1,
0.6,
1
);
};
},
{
glyphname = quotesingle;
lastChange = "2018-05-25 05:49:35 +0000";
layers = (
{
layerId = "B61D43DE-5272-4FF4-A680-608B6BF5ED9E";
paths = (
{
closed = 1;
nodes = (
"191 359 LINE",
"202 697 LINE",
"86 697 LINE",
"93 359 LINE"
);
}
);
width = 288;
}
);
leftKerningGroup = quotesingle;
rightKerningGroup = quotesingle;
unicode = 0027;
userData = {
com.typemytype.robofont.mark = (
0.656,
1,
0.6,
1
);
};
},
{
glyphname = "leftanglebracket-math";
lastChange = "2018-05-24 19:23:14 +0000";
layers = (
{
background = {
paths = (
{
closed = 1;
nodes = (
"220 -226 LINE",
"320 -226 LINE",
"163 248 LINE",
"333 723 LINE",
"222 723 LINE",
"60 248 LINE"
);
}
);
};
layerId = "B61D43DE-5272-4FF4-A680-608B6BF5ED9E";
paths = (
{
closed = 1;
nodes = (
"222 -226 LINE",
"333 -226 LINE",
"163 249 LINE",
"333 723 LINE",
"221 723 LINE",
"60 249 LINE"
);
}
);
width = 413;
}
);
leftKerningGroup = uni27E8;
rightKerningGroup = uni27E8;
unicode = 27E8;
userData = {
com.typemytype.robofont.mark = (
0.6,
0.609,
1,
1
);
};
},
{
glyphname = "rightanglebracket-math";
lastChange = "2018-05-24 19:23:14 +0000";
layers = (
{
background = {
paths = (
{
closed = 1;
nodes = (
"193 723 LINE",
"93 723 LINE",
"255 234 LINE",
"255 263 LINE",
"80 -226 LINE",
"191 -226 LINE",
"353 249 LINE"
);
}
);
};
layerId = "B61D43DE-5272-4FF4-A680-608B6BF5ED9E";
paths = (
{
closed = 1;
nodes = (
"191 723 LINE",
"80 723 LINE",
"255 234 LINE",
"255 263 LINE",
"80 -226 LINE",
"192 -226 LINE",
"353 248 LINE"
);
}
);
width = 413;
}
);
leftKerningGroup = uni27E9;
rightKerningGroup = uni27E9;
unicode = 27E9;
userData = {
com.typemytype.robofont.mark = (
0.6,
0.609,
1,
1
);
};
},
{
glyphname = .notdef;
lastChange = "2018-05-24 19:23:14 +0000";
layers = (
{
layerId = "B61D43DE-5272-4FF4-A680-608B6BF5ED9E";
paths = (
{
closed = 1;
nodes = (
"86 691 LINE",
"86 0 LINE",
"778 0 LINE",
"778 691 LINE"
);
},
{
closed = 1;
nodes = (
"273 123 LINE",
"215 189 LINE",
"382 344 LINE",
"214 509 LINE",
"270 566 LINE",
"433 394 LINE",
"593 565 LINE",
"651 509 LINE",
"481 346 LINE",
"651 178 LINE",
"596 123 LINE",
"431 295 LINE"
);
}
);
width = 864;
}
);
leftKerningGroup = .notdef;
rightKerningGroup = .notdef;
},
{
color = 4;
glyphname = "dram-arm";
lastChange = "2018-05-25 16:47:46 +0000";
layers = (
{
layerId = "B61D43DE-5272-4FF4-A680-608B6BF5ED9E";
paths = (
{
closed = 1;
nodes = (
"522 445 LINE",
"522 656 OFFCURVE",
"460 751 OFFCURVE",
"283 751 CURVE SMOOTH",
"125 751 OFFCURVE",
"30 650 OFFCURVE",
"30 489 CURVE SMOOTH",
"30 433 LINE",
"145 434 LINE",
"145 477 LINE SMOOTH",
"145 542 OFFCURVE",
"151 653 OFFCURVE",
"276 653 CURVE SMOOTH",
"386 653 OFFCURVE",
"398 571 OFFCURVE",
"398 424 CURVE",
"398 0 LINE",
"522 0 LINE"
);
},
{
closed = 1;
nodes = (
"661 311 LINE",
"660 393 LINE",
"259 393 LINE",
"259 311 LINE"
);
},
{
closed = 1;
nodes = (
"661 141 LINE",
"660 223 LINE",
"259 223 LINE",
"259 141 LINE"
);
}
);
width = 710;
}
);
leftKerningGroup = "dram-arm";
rightKerningGroup = "dram-arm";
unicode = 058F;
},
{
glyphname = cedi;
lastChange = "2018-05-24 19:23:14 +0000";
layers = (
{
anchors = (
{
name = btm;
position = "{341, 0}";
},
{
name = top;
position = "{342, 830}";
}
);
layerId = "B61D43DE-5272-4FF4-A680-608B6BF5ED9E";
paths = (
{
closed = 1;
nodes = (
"367 -166 LINE",
"367 830 LINE",
"265 830 LINE",
"265 -166 LINE"
);
},
{
closed = 1;
nodes = (
"55 104 OFFCURVE",
"167 -9 OFFCURVE",
"319 -9 CURVE SMOOTH",
"392 -9 OFFCURVE",
"450 17 OFFCURVE",
"498 51 CURVE",
"456 150 LINE",
"423 122 OFFCURVE",
"383 101 OFFCURVE",
"329 101 CURVE SMOOTH",
"216 101 OFFCURVE",
"184 187 OFFCURVE",
"184 332 CURVE SMOOTH",
"184 575 OFFCURVE",
"273 603 OFFCURVE",
"339 603 CURVE SMOOTH",
"400 603 OFFCURVE",
"453 575 OFFCURVE",
"473 543 CURVE",
"518 648 LINE",
"501 672 OFFCURVE",
"446 709 OFFCURVE",
"353 709 CURVE SMOOTH",
"155 709 OFFCURVE",
"55 541 OFFCURVE",
"55 329 CURVE SMOOTH"
);
}
);
width = 567;
}
);
leftKerningGroup = O;
leftMetricsKey = euro;
rightKerningGroup = C;
rightMetricsKey = euro;
unicode = 20B5;
userData = {
com.typemytype.robofont.mark = (
0.6,
0.609,
1,
1
);
};
},
{
glyphname = cent;
lastChange = "2018-05-24 19:23:14 +0000";
layers = (
{
layerId = "B61D43DE-5272-4FF4-A680-608B6BF5ED9E";
paths = (
{
closed = 1;
nodes = (
"61 207 OFFCURVE",
"139 109 OFFCURVE",
"299 109 CURVE SMOOTH",
"393 109 OFFCURVE",
"441 138 OFFCURVE",
"462 157 CURVE",
"423 246 LINE",
"395 221 OFFCURVE",
"361 203 OFFCURVE",
"318 203 CURVE SMOOTH",
"244 203 OFFCURVE",
"206 258 OFFCURVE",
"206 343 CURVE SMOOTH",
"206 422 OFFCURVE",
"243 484 OFFCURVE",
"314 484 CURVE SMOOTH",
"351 484 OFFCURVE",
"387 468 OFFCURVE",
"420 438 CURVE",
"460 532 LINE",
"436 558 OFFCURVE",
"373 575 OFFCURVE",
"299 575 CURVE SMOOTH",
"150 575 OFFCURVE",
"61 484 OFFCURVE",
"61 342 CURVE SMOOTH"
);
},
{
closed = 1;
nodes = (
"348 0 LINE",
"348 129 LINE",
"229 129 LINE",
"229 0 LINE"
);
},
{
closed = 1;
nodes = (
"348 552 LINE",
"348 696 LINE",
"229 696 LINE",
"229 552 LINE"
);
}
);
width = 527;
}
);
leftKerningGroup = o;
rightKerningGroup = c;
unicode = 00A2;
userData = {
com.typemytype.robofont.mark = (
0.656,
1,
0.6,
1
);
};
},
{
glyphname = colonsign;
lastChange = "2018-05-25 06:06:28 +0000";
layers = (
{
anchors = (
{
name = btm;
position = "{219, -83}";
},
{
name = top;
position = "{266, 830}";
}
);
layerId = "B61D43DE-5272-4FF4-A680-608B6BF5ED9E";
paths = (
{
closed = 1;
nodes = (
"230 -122 LINE",
"372 830 LINE",
"294 830 LINE",
"151 -122 LINE"
);
},
{
closed = 1;
nodes = (
"372 -122 LINE",
"515 830 LINE",
"436 830 LINE",
"294 -122 LINE"
);
},
{
closed = 1;
nodes = (
"55 104 OFFCURVE",
"187 -9 OFFCURVE",
"339 -9 CURVE SMOOTH",
"412 -9 OFFCURVE",
"480 17 OFFCURVE",
"528 51 CURVE",
"486 150 LINE",
"453 122 OFFCURVE",
"403 101 OFFCURVE",
"349 101 CURVE SMOOTH",
"236 101 OFFCURVE",
"178 187 OFFCURVE",
"178 332 CURVE SMOOTH",
"178 575 OFFCURVE",
"293 603 OFFCURVE",
"359 603 CURVE SMOOTH",
"420 603 OFFCURVE",
"483 575 OFFCURVE",
"503 543 CURVE",
"548 648 LINE",
"531 672 OFFCURVE",
"466 709 OFFCURVE",
"373 709 CURVE SMOOTH",
"175 709 OFFCURVE",
"55 541 OFFCURVE",
"55 329 CURVE SMOOTH"
);
}
);
width = 597;
}
);
leftKerningGroup = colonmonetary;
leftMetricsKey = euro;
rightKerningGroup = colonmonetary;
rightMetricsKey = euro;
unicode = 20A1;
userData = {
com.typemytype.robofont.mark = (
0.6,
0.986,
1,
1
);
};
},
{
glyphname = currency;
lastChange = "2018-05-24 19:23:14 +0000";
layers = (
{
layerId = "B61D43DE-5272-4FF4-A680-608B6BF5ED9E";
paths = (
{
closed = 1;
nodes = (
"230 499 LINE",
"117 617 LINE",
"41 537 LINE",
"163 429 LINE"
);
},
{
closed = 1;
nodes = (
"506 56 LINE",
"581 135 LINE",
"459 245 LINE",
"392 173 LINE"
);
},
{
closed = 1;
nodes = (
"114 57 LINE",
"229 174 LINE",
"161 245 LINE",
"39 136 LINE"
);
},
{
closed = 1;
nodes = (
"455 434 LINE",
"577 543 LINE",
"502 623 LINE",
"388 505 LINE"
);
},
{
closed = 1;
nodes = (
"92 217 OFFCURVE",
"190 119 OFFCURVE",
"310 119 CURVE SMOOTH",
"430 119 OFFCURVE",
"528 217 OFFCURVE",
"528 337 CURVE SMOOTH",
"528 457 OFFCURVE",
"430 554 OFFCURVE",
"310 554 CURVE SMOOTH",
"190 554 OFFCURVE",
"92 457 OFFCURVE",
"92 337 CURVE SMOOTH"
);
},
{
closed = 1;
nodes = (
"177 410 OFFCURVE",
"236 470 OFFCURVE",
"310 470 CURVE SMOOTH",
"384 470 OFFCURVE",
"442 410 OFFCURVE",
"442 337 CURVE SMOOTH",
"442 263 OFFCURVE",
"384 203 OFFCURVE",
"310 203 CURVE SMOOTH",
"236 203 OFFCURVE",
"177 263 OFFCURVE",
"177 337 CURVE"
);
}
);
width = 621;
}
);
leftKerningGroup = currency;
rightKerningGroup = currency;
unicode = 00A4;
userData = {
com.typemytype.robofont.mark = (
0.656,
1,
0.6,
1
);
};
},
{
glyphname = dollar;
lastChange = "2018-05-24 19:23:14 +0000";
layers = (
{
layerId = "B61D43DE-5272-4FF4-A680-608B6BF5ED9E";
paths = (
{
closed = 1;
nodes = (
"117 76 OFFCURVE",
"201 59 OFFCURVE",
"276 59 CURVE SMOOTH",
"405 59 OFFCURVE",
"489 123 OFFCURVE",
"492 226 CURVE SMOOTH",
"494 312 OFFCURVE",
"432 367 OFFCURVE",
"328 398 CURVE SMOOTH",
"283 413 OFFCURVE",
"188 427 OFFCURVE",
"190 493 CURVE SMOOTH",
"193 542 OFFCURVE",
"237 565 OFFCURVE",
"290 565 CURVE SMOOTH",
"350 565 OFFCURVE",
"408 526 OFFCURVE",
"418 512 CURVE",
"458 589 LINE",
"437 616 OFFCURVE",
"366 654 OFFCURVE",
"271 652 CURVE SMOOTH",
"141 650 OFFCURVE",
"67 580 OFFCURVE",
"65 490 CURVE SMOOTH",
"63 373 OFFCURVE",
"150 331 OFFCURVE",
"241 304 CURVE SMOOTH",
"299 288 OFFCURVE",
"361 268 OFFCURVE",
"361 220 CURVE SMOOTH",
"361 162 OFFCURVE",
"311 142 OFFCURVE",
"262 142 CURVE SMOOTH",
"189 142 OFFCURVE",
"122 180 OFFCURVE",
"97 203 CURVE",
"61 122 LINE"
);
},
{
closed = 1;
nodes = (
"339 -15 LINE",
"339 139 LINE",
"220 139 LINE",
"220 -15 LINE"
);
},
{
closed = 1;
nodes = (
"339 586 LINE",
"339 744 LINE",
"220 744 LINE",
"220 586 LINE"
);
}
);
width = 531;
}
);
leftKerningGroup = dollar;
rightKerningGroup = dollar;
unicode = 0024;
userData = {
com.typemytype.robofont.mark = (
0.656,
1,
0.6,
1
);
};
},
{
color = 4;
glyphname = dong;
lastChange = "2018-05-25 16:47:28 +0000";
layers = (
{
layerId = "B61D43DE-5272-4FF4-A680-608B6BF5ED9E";
paths = (
{
closed = 1;
nodes = (
"46 209 OFFCURVE",
"122 116 OFFCURVE",
"244 116 CURVE SMOOTH",
"314 116 OFFCURVE",
"355 156 OFFCURVE",
"377 199 CURVE",
"375 164 LINE",
"375 131 LINE",
"494 131 LINE",
"494 820 LINE",
"367 820 LINE",
"367 582 LINE",
"375 533 LINE",
"355 567 OFFCURVE",
"314 607 OFFCURVE",
"245 607 CURVE SMOOTH",
"112 607 OFFCURVE",
"46 511 OFFCURVE",
"46 357 CURVE SMOOTH"
);
},
{
closed = 1;
nodes = (
"177 469 OFFCURVE",
"229 506 OFFCURVE",
"276 506 CURVE SMOOTH",
"337 506 OFFCURVE",
"363 471 OFFCURVE",
"363 367 CURVE SMOOTH",
"363 253 OFFCURVE",
"321 216 OFFCURVE",
"273 216 CURVE SMOOTH",
"218 216 OFFCURVE",
"177 257 OFFCURVE",
"177 358 CURVE SMOOTH"
);
},
{
closed = 1;
nodes = (
"568 665 LINE",
"567 747 LINE",
"246 747 LINE",
"246 665 LINE"
);
},
{
closed = 1;
nodes = (
"495 -10 LINE",
"494 72 LINE",
"37 72 LINE",
"37 -10 LINE"
);
}
);
width = 570;
}
);
leftKerningGroup = dong;
rightKerningGroup = dong;
unicode = 20AB;
userData = {
com.typemytype.robofont.mark = (
0.6,
0.986,
1,
1
);
};
},
{
glyphname = euro;
lastChange = "2018-05-24 19:23:14 +0000";
layers = (
{
layerId = "B61D43DE-5272-4FF4-A680-608B6BF5ED9E";
paths = (
{
closed = 1;
nodes = (
"121 104 OFFCURVE",
"233 -9 OFFCURVE",
"385 -9 CURVE SMOOTH",
"458 -9 OFFCURVE",
"516 17 OFFCURVE",
"564 51 CURVE",
"522 150 LINE",
"489 122 OFFCURVE",
"449 101 OFFCURVE",
"395 101 CURVE SMOOTH",
"282 101 OFFCURVE",
"250 187 OFFCURVE",
"250 332 CURVE SMOOTH",
"250 575 OFFCURVE",
"339 603 OFFCURVE",
"405 603 CURVE SMOOTH",
"466 603 OFFCURVE",
"519 575 OFFCURVE",
"539 543 CURVE",
"584 648 LINE",
"567 672 OFFCURVE",
"512 709 OFFCURVE",
"419 709 CURVE SMOOTH",
"221 709 OFFCURVE",
"121 541 OFFCURVE",
"121 329 CURVE SMOOTH"
);
},
{
closed = 1;
nodes = (
"473 399 LINE",
"472 481 LINE",
"71 481 LINE",
"71 399 LINE"
);
},
{
closed = 1;
nodes = (
"456 228 LINE",
"456 311 LINE",
"55 311 LINE",
"55 228 LINE"
);
}
);
width = 633;
}
);
leftKerningGroup = euro;
rightKerningGroup = euro;
unicode = 20AC;
userData = {
com.typemytype.robofont.mark = (
0.656,
1,
0.6,
1
);
};
},
{
glyphname = florin;
lastChange = "2018-05-24 19:23:14 +0000";
layers = (
{
layerId = "B61D43DE-5272-4FF4-A680-608B6BF5ED9E";
paths = (
{
closed = 1;
nodes = (
"191 -100 LINE",
"221 408 LINE",
"327 408 LINE",
"332 492 LINE",
"227 492 LINE",
"228 509 OFFCURVE",
"229 535 OFFCURVE",
"229 539 CURVE SMOOTH",
"236 665 OFFCURVE",
"273 684 OFFCURVE",
"313 684 CURVE SMOOTH",
"334 684 OFFCURVE",
"360 673 OFFCURVE",
"386 656 CURVE",
"393 757 LINE",
"366 765 OFFCURVE",
"336 770 OFFCURVE",
"309 770 CURVE SMOOTH",
"186 770 OFFCURVE",
"105 709 OFFCURVE",
"96 555 CURVE SMOOTH",
"95 544 OFFCURVE",
"93 502 OFFCURVE",
"92 492 CURVE",
"23 492 LINE",
"18 408 LINE",
"87 408 LINE",
"57 -100 LINE"
);
}
);
width = 364;
}
);
leftKerningGroup = florin;
rightKerningGroup = florin;
unicode = 0192;
userData = {
com.typemytype.robofont.mark = (
0.6,
0.986,
1,
1
);
};
},
{
color = 4;
glyphname = franc;
lastChange = "2018-05-25 16:47:13 +0000";
layers = (
{
layerId = "B61D43DE-5272-4FF4-A680-608B6BF5ED9E";
paths = (
{
closed = 1;
nodes = (
"206 0 LINE",
"206 358 LINE",
"187 343 LINE",
"410 343 LINE",
"410 449 LINE",
"187 449 LINE",
"206 432 LINE",
"206 614 LINE",
"189 596 LINE",
"440 596 LINE",
"440 697 LINE",
"76 697 LINE",
"76 0 LINE"
);
},
{
closed = 1;
nodes = (
"336 114 LINE",
"336 197 LINE",
"10 197 LINE",
"10 114 LINE"
);
}
);
width = 464;
}
);
leftKerningGroup = franc;
rightKerningGroup = franc;
unicode = 20A3;
userData = {
com.typemytype.robofont.mark = (
0.6,
0.986,
1,
1
);
};
},
{
glyphname = guarani;
lastChange = "2018-05-24 19:23:14 +0000";
layers = (
{
components = (
{
name = G;
}
);
layerId = "B61D43DE-5272-4FF4-A680-608B6BF5ED9E";
paths = (
{
closed = 1;
nodes = (
"379 644 LINE",
"379 830 LINE",
"277 830 LINE",
"277 644 LINE"
);
},
{
closed = 1;
nodes = (
"379 -147 LINE",
"379 39 LINE",
"277 39 LINE",
"277 -147 LINE"
);
}
);
width = 618;
}
);
leftKerningGroup = O;
rightKerningGroup = G;
unicode = 20B2;
userData = {
com.typemytype.robofont.mark = (
0.6,
0.609,
1,
1
);
};
},
{
color = 4;
glyphname = hryvnia;
lastChange = "2018-05-25 16:43:20 +0000";
layers = (
{
anchors = (
{
name = btm;
position = "{255, 0}";
}
);
background = {
paths = (
{
closed = 1;
nodes = (
"524 403 LINE",
"524 481 LINE",
"13 481 LINE",
"13 403 LINE"
);
},
{
closed = 1;
nodes = (
"524 239 LINE",
"524 317 LINE",
"13 317 LINE",
"13 239 LINE"
);
}
);
};
layerId = "B61D43DE-5272-4FF4-A680-608B6BF5ED9E";
paths = (
{
closed = 1;
nodes = (
"128 271 LINE",
"97 246 OFFCURVE",
"80 202 OFFCURVE",
"81 174 CURVE SMOOTH",
"86 46 OFFCURVE",
"166 -11 OFFCURVE",
"299 -11 CURVE SMOOTH",
"393 -11 OFFCURVE",
"435 8 OFFCURVE",
"469 44 CURVE",
"418 149 LINE",
"395 120 OFFCURVE",
"359 97 OFFCURVE",
"302 97 CURVE SMOOTH",
"255 97 OFFCURVE",
"212 117 OFFCURVE",
"212 172 CURVE SMOOTH",
"212 210 OFFCURVE",
"233 242 OFFCURVE",
"270 268 CURVE"
);
},
{
closed = 1;
nodes = (
"447 464 LINE",
"451 481 OFFCURVE",
"467 505 OFFCURVE",
"467 550 CURVE SMOOTH",
"467 647 OFFCURVE",
"392 709 OFFCURVE",
"264 709 CURVE SMOOTH",
"156 709 OFFCURVE",
"97 668 OFFCURVE",
"70 644 CURVE",
"126 542 LINE",
"141 562 OFFCURVE",
"192 603 OFFCURVE",
"256 603 CURVE SMOOTH",
"305 603 OFFCURVE",
"337 589 OFFCURVE",
"337 552 CURVE SMOOTH",
"337 498 OFFCURVE",
"314 479 OFFCURVE",
"299 463 CURVE"
);
},
{
closed = 1;
nodes = (
"524 224 LINE",
"524 307 LINE",
"30 307 LINE",
"30 224 LINE"
);
},
{
closed = 1;
nodes = (
"524 385 LINE",
"524 468 LINE",
"30 468 LINE",
"30 385 LINE"
);
}
);
width = 554;
}
);
leftKerningGroup = hryvnia;
rightKerningGroup = hryvnia;
unicode = 20B4;
},
{
glyphname = kip;
lastChange = "2018-05-24 19:23:14 +0000";
layers = (
{
components = (
{
name = K;
transform = "{1, 0, 0, 1, 30, 0}";
}
);
layerId = "B61D43DE-5272-4FF4-A680-608B6BF5ED9E";
paths = (
{
closed = 1;
nodes = (
"591 305 LINE",
"591 403 LINE",
"29 403 LINE",
"29 305 LINE"
);
}
);
width = 652;
}
);
leftKerningGroup = kip;
rightKerningGroup = kip;
unicode = 20AD;
userData = {
com.typemytype.robofont.mark = (
0.6,
0.609,
1,
1
);
};
},
{
color = 4;
glyphname = lira;
lastChange = "2018-05-25 16:48:17 +0000";
layers = (
{
layerId = "B61D43DE-5272-4FF4-A680-608B6BF5ED9E";
paths = (
{
closed = 1;
nodes = (
"432 224 LINE",
"432 307 LINE",
"47 307 LINE",
"47 224 LINE"
);
},
{
closed = 1;
nodes = (
"432 385 LINE",
"432 468 LINE",
"47 468 LINE",
"47 385 LINE"
);
},
{
closed = 1;
nodes = (
"518 0 LINE",
"518 101 LINE",
"219 101 LINE",
"239 149 OFFCURVE",
"265 213 OFFCURVE",
"265 298 CURVE SMOOTH",
"265 376 OFFCURVE",
"232 425 OFFCURVE",
"232 496 CURVE SMOOTH",
"232 581 OFFCURVE",
"275 603 OFFCURVE",
"331 603 CURVE SMOOTH",
"386 603 OFFCURVE",
"445 572 OFFCURVE",
"467 535 CURVE",
"529 635 LINE",
"509 662 OFFCURVE",
"446 708 OFFCURVE",
"328 708 CURVE SMOOTH",
"186 708 OFFCURVE",
"94 630 OFFCURVE",
"94 518 CURVE SMOOTH",
"94 422 OFFCURVE",
"139 366 OFFCURVE",
"139 257 CURVE SMOOTH",
"139 144 OFFCURVE",
"87 40 OFFCURVE",
"70 0 CURVE"
);
}
);
width = 592;
}
);
leftKerningGroup = lira;
rightKerningGroup = lira;
unicode = 20A4;
userData = {
com.typemytype.robofont.mark = (
0.6,
0.986,
1,
1
);
};
},
{
color = 4;
glyphname = liraTurkish;
lastChange = "2018-05-25 16:46:44 +0000";
layers = (
{
layerId = "B61D43DE-5272-4FF4-A680-608B6BF5ED9E";
paths = (
{
closed = 1;
nodes = (
"263 0 LINE SMOOTH",
"422 0 OFFCURVE",
"582 44 OFFCURVE",
"582 273 CURVE",
"468 273 LINE",
"468 148 OFFCURVE",
"426 106 OFFCURVE",
"283 106 CURVE",
"283 268 LINE",
"425 351 LINE",
"425 440 LINE",
"283 358 LINE",
"283 465 LINE",
"435 551 LINE",
"435 641 LINE",
"283 554 LINE",
"283 697 LINE",
"166 697 LINE",
"166 498 LINE",
"58 437 LINE",
"58 347 LINE",
"166 408 LINE",
"166 301 LINE",
"63 242 LINE",
"63 152 LINE",
"166 211 LINE",
"166 0 LINE"
);
}
);
width = 659;
}
);
leftKerningGroup = uni20BA;
rightKerningGroup = uni20BA;
unicode = 20BA;
userData = {
com.typemytype.robofont.mark = (
0.6,
0.609,
1,
1
);
};
},
{
color = 4;
glyphname = manat;
lastChange = "2018-05-25 16:43:49 +0000";
layers = (
{
anchors = (
{
name = top;
position = "{314, 830}";
}
);
layerId = "B61D43DE-5272-4FF4-A680-608B6BF5ED9E";
paths = (
{
closed = 1;
nodes = (
"606 631 OFFCURVE",
"468 697 OFFCURVE",
"321 697 CURVE SMOOTH",
"188 697 OFFCURVE",
"43 631 OFFCURVE",
"43 431 CURVE SMOOTH",
"43 0 LINE",
"165 0 LINE",
"165 445 LINE SMOOTH",
"165 563 OFFCURVE",
"254 602 OFFCURVE",
"323 602 CURVE SMOOTH",
"393 602 OFFCURVE",
"484 563 OFFCURVE",
"484 445 CURVE SMOOTH",
"484 0 LINE",
"606 0 LINE",
"606 431 LINE"
);
},
{
closed = 1;
nodes = (
"383 109 LINE",
"383 830 LINE",
"263 830 LINE",
"263 109 LINE"
);
}
);
width = 649;
}
);
leftKerningGroup = uni20BC;
rightKerningGroup = uni20BC;
unicode = 20BC;
userData = {
com.typemytype.robofont.mark = (
0.6,
0.609,
1,
1
);
};
},
{
glyphname = naira;
lastChange = "2018-05-24 19:23:14 +0000";
layers = (
{
anchors = (
{
name = btm;
position = "{322, -83}";
},
{
name = top;
position = "{322, 830}";
}
);
layerId = "B61D43DE-5272-4FF4-A680-608B6BF5ED9E";
paths = (
{
closed = 1;
nodes = (
"203 0 LINE",
"203 504 LINE",
"124 476 LINE",
"569 -20 LINE",
"569 697 LINE",
"441 697 LINE",
"441 189 LINE",
"516 215 LINE",
"76 715 LINE",
"76 0 LINE"
);
},
{
closed = 1;
nodes = (
"660 170 LINE",
"660 253 LINE",
"-20 253 LINE",
"-20 170 LINE"
);
},
{
closed = 1;
nodes = (
"660 429 LINE",
"660 512 LINE",
"-20 512 LINE",
"-20 429 LINE"
);
}
);
width = 645;
}
);
leftKerningGroup = uni20A6;
rightKerningGroup = uni20A6;
unicode = 20A6;
userData = {
com.typemytype.robofont.mark = (
0.6,
0.986,
1,
1
);
};
},
{
glyphname = peseta;
lastChange = "2018-05-24 19:23:14 +0000";
layers = (
{
layerId = "B61D43DE-5272-4FF4-A680-608B6BF5ED9E";
paths = (
{
closed = 1;
nodes = (
"206 0 LINE",
"206 157 LINE",
"190 106 LINE",
"267 106 LINE",
"444 106 OFFCURVE",
"517 258 OFFCURVE",
"517 398 CURVE SMOOTH",
"517 604 OFFCURVE",
"405 697 OFFCURVE",
"263 697 CURVE SMOOTH",
"76 697 LINE",
"76 0 LINE"
);
},
{
closed = 1;
nodes = (
"206 197 LINE",
"206 614 LINE",
"190 596 LINE",
"260 596 LINE SMOOTH",
"360 596 OFFCURVE",
"390 512 OFFCURVE",
"390 392 CURVE SMOOTH",
"390 284 OFFCURVE",
"352 208 OFFCURVE",
"263 208 CURVE SMOOTH",
"188 208 LINE"
);
},
{
closed = 1;
nodes = (
"581 361 LINE",
"581 439 LINE",
"17 439 LINE",
"17 361 LINE"
);
}
);
width = 591;
}
);
leftKerningGroup = peseta;
rightKerningGroup = peseta;
unicode = 20A7;
userData = {
com.typemytype.robofont.mark = (
0.6,
0.986,
1,
1
);
};
},
{
glyphname = peso;
lastChange = "2018-05-24 19:23:14 +0000";
layers = (
{
anchors = (
{
name = top;
position = "{294, 830}";
}
);
layerId = "B61D43DE-5272-4FF4-A680-608B6BF5ED9E";
paths = (
{
closed = 1;
nodes = (
"206 0 LINE",
"206 157 LINE",
"190 106 LINE",
"267 106 LINE",
"444 106 OFFCURVE",
"517 258 OFFCURVE",
"517 398 CURVE SMOOTH",
"517 604 OFFCURVE",
"405 697 OFFCURVE",
"263 697 CURVE SMOOTH",
"76 697 LINE",
"76 0 LINE"
);
},
{
closed = 1;
nodes = (
"206 197 LINE",
"206 614 LINE",
"190 596 LINE",
"260 596 LINE SMOOTH",
"360 596 OFFCURVE",
"390 512 OFFCURVE",
"390 392 CURVE SMOOTH",
"390 284 OFFCURVE",
"352 208 OFFCURVE",
"263 208 CURVE SMOOTH",
"188 208 LINE"
);
},
{
closed = 1;
nodes = (
"581 433 LINE",
"581 511 LINE",
"17 511 LINE",
"17 433 LINE"
);
},
{
closed = 1;
nodes = (
"581 279 LINE",
"581 357 LINE",
"17 357 LINE",
"17 279 LINE"
);
}
);
width = 591;
}
);
leftKerningGroup = uni20B1;
rightKerningGroup = uni20B1;
unicode = 20B1;
userData = {
com.typemytype.robofont.mark = (
0.6,
0.986,
1,
1
);
};
},
{
color = 4;
glyphname = ruble;
lastChange = "2018-05-25 16:45:46 +0000";
layers = (
{
anchors = (
{
name = top;
position = "{359, 830}";
}
);
background = {
paths = (
{
closed = 1;
nodes = (
"439 126 LINE",
"439 209 LINE",
"54 209 LINE",
"54 126 LINE"
);
},
{
closed = 1;
nodes = (
"439 287 LINE",
"439 370 LINE",
"54 370 LINE",
"54 287 LINE"
);
}
);
};
layerId = "B61D43DE-5272-4FF4-A680-608B6BF5ED9E";
paths = (
{
closed = 1;
nodes = (
"509 286 OFFCURVE",
"584 357 OFFCURVE",
"584 494 CURVE SMOOTH",
"584 656 OFFCURVE",
"470 697 OFFCURVE",
"328 697 CURVE SMOOTH",
"141 697 LINE",
"141 370 LINE",
"44 370 LINE",
"44 287 LINE",
"141 287 LINE",
"141 209 LINE",
"40 209 LINE",
"40 126 LINE",
"141 126 LINE",
"141 0 LINE",
"270 0 LINE",
"270 126 LINE",
"421 126 LINE",
"421 209 LINE",
"270 209 LINE",
"270 286 LINE",
"332 286 LINE SMOOTH"
);
},
{
closed = 1;
nodes = (
"455 387 OFFCURVE",
"416 370 OFFCURVE",
"328 370 CURVE SMOOTH",
"270 370 LINE",
"270 606 LINE",
"325 606 LINE SMOOTH",
"425 606 OFFCURVE",
"455 562 OFFCURVE",
"455 487 CURVE SMOOTH"
);
}
);
width = 614;
}
);
leftKerningGroup = uni20BD;
rightKerningGroup = uni20BD;
unicode = 20BD;
userData = {
com.typemytype.robofont.mark = (
0.6,
0.609,
1,
1
);
};
},
{
color = 4;
glyphname = rupeeIndian;
lastChange = "2018-05-25 16:44:04 +0000";
layers = (
{
layerId = "B61D43DE-5272-4FF4-A680-608B6BF5ED9E";
paths = (
{
closed = 1;
nodes = (
"233 203 LINE",
"367 0 LINE",
"518 0 LINE",
"361 222 LINE",
"456 245 OFFCURVE",
"491 317 OFFCURVE",
"505 396 CURVE",
"584 396 LINE",
"584 494 LINE",
"508 494 LINE",
"503 535 OFFCURVE",
"487 579 OFFCURVE",
"459 597 CURVE",
"584 597 LINE",
"584 698 LINE",
"82 698 LINE",
"82 597 LINE",
"245 597 LINE SMOOTH",
"327 597 OFFCURVE",
"366 557 OFFCURVE",
"378 494 CURVE",
"82 494 LINE",
"82 396 LINE",
"376 396 LINE",
"362 343 OFFCURVE",
"325 307 OFFCURVE",
"267 301 CURVE",
"82 301 LINE",
"82 203 LINE"
);
}
);
width = 634;
}
);
leftKerningGroup = uni20B9;
rightKerningGroup = uni20B9;
unicode = 20B9;
userData = {
com.typemytype.robofont.mark = (
0.6,
0.609,
1,
1
);
};
},
{
color = 4;
glyphname = sheqel;
lastChange = "2018-05-25 15:16:02 +0000";
layers = (
{
layerId = "B61D43DE-5272-4FF4-A680-608B6BF5ED9E";
paths = (
{
closed = 1;
nodes = (
"659 105 LINE",
"484 105 LINE SMOOTH",
"399 105 OFFCURVE",
"382 124 OFFCURVE",
"382 193 CURVE SMOOTH",
"382 490 LINE",
"260 490 LINE",
"260 207 LINE SMOOTH",
"260 56 OFFCURVE",
"319 0 OFFCURVE",
"426 0 CURVE SMOOTH",
"780 0 LINE",
"780 697 LINE",
"659 697 LINE {name = hr00;}"
);
},
{
closed = 1;
nodes = (
"189 592 LINE",
"397 592 LINE",
"464 592 OFFCURVE",
"462 553 OFFCURVE",
"462 485 CURVE SMOOTH",
"462 193 LINE",
"582 193 LINE",
"582 491 LINE SMOOTH",
"582 644 OFFCURVE",
"540 697 OFFCURVE",
"441 697 CURVE",
"68 697 LINE",
"68 0 LINE",
"189 0 LINE"
);
}
);
width = 848;
}
);
leftKerningGroup = uni20AA;
rightKerningGroup = uni20AA;
unicode = 20AA;
},
{
color = 4;
glyphname = sterling;
lastChange = "2018-05-25 16:48:17 +0000";
layers = (
{
layerId = "B61D43DE-5272-4FF4-A680-608B6BF5ED9E";
paths = (
{
closed = 1;
nodes = (
"518 0 LINE",
"518 101 LINE",
"219 101 LINE",
"239 149 OFFCURVE",
"265 213 OFFCURVE",
"265 298 CURVE SMOOTH",
"265 376 OFFCURVE",
"232 425 OFFCURVE",
"232 496 CURVE SMOOTH",
"232 581 OFFCURVE",
"275 603 OFFCURVE",
"331 603 CURVE SMOOTH",
"386 603 OFFCURVE",
"445 572 OFFCURVE",
"467 535 CURVE",
"529 635 LINE",
"509 662 OFFCURVE",
"446 708 OFFCURVE",
"328 708 CURVE SMOOTH",
"186 708 OFFCURVE",
"94 630 OFFCURVE",
"94 518 CURVE SMOOTH",
"94 422 OFFCURVE",
"139 366 OFFCURVE",
"139 257 CURVE SMOOTH",
"139 144 OFFCURVE",
"87 40 OFFCURVE",
"70 0 CURVE"
);
},
{
closed = 1;
nodes = (
"432 288 LINE",
"432 371 LINE",
"47 371 LINE",
"47 288 LINE"
);
}
);
width = 592;
}
);
leftKerningGroup = sterling;
rightKerningGroup = sterling;
unicode = 00A3;
userData = {
com.typemytype.robofont.mark = (
0.656,
1,
0.6,
1
);
};
},
{
glyphname = tenge;
lastChange = "2018-05-24 19:23:14 +0000";
layers = (
{
anchors = (
{
name = btm;
position = "{244, 0}";
}
);
layerId = "B61D43DE-5272-4FF4-A680-608B6BF5ED9E";
paths = (
{
closed = 1;
nodes = (
"310 0 LINE",
"310 394 LINE",
"294 371 LINE",
"469 371 LINE",
"469 484 LINE",
"18 484 LINE",
"18 371 LINE",
"193 371 LINE",
"180 394 LINE",
"180 0 LINE"
);
},
{
closed = 1;
nodes = (
"475 583 LINE",
"475 696 LINE",
"24 696 LINE",
"24 583 LINE"
);
}
);
width = 487;
}
);
leftKerningGroup = tenge;
rightKerningGroup = tenge;
unicode = 20B8;
},
{
glyphname = tugrik;
lastChange = "2018-05-24 19:23:14 +0000";
layers = (
{
anchors = (
{
name = btm;
position = "{256, 0}";
},
{
name = top;
position = "{256, 830}";
}
);
background = {
paths = (
{
closed = 0;
nodes = (
"311 159 LINE",
"453 242 LINE",
"453 331 LINE",
"311 249 LINE",
"311 356 LINE",
"463 442 LINE",
"463 532 LINE",
"311 445 LINE"
);
},
{
closed = 0;
nodes = (
"194 389 LINE",
"86 328 LINE",
"86 238 LINE",
"194 299 LINE",
"194 192 LINE",
"91 133 LINE",
"91 43 LINE",
"194 102 LINE"
);
}
);
};
layerId = "B61D43DE-5272-4FF4-A680-608B6BF5ED9E";
paths = (
{
closed = 1;
nodes = (
"194 584 LINE",
"194 389 LINE",
"86 338 LINE",
"86 248 LINE",
"194 299 LINE",
"194 192 LINE",
"91 143 LINE",
"91 53 LINE",
"194 102 LINE",
"194 0 LINE",
"320 0 LINE",
"320 164 LINE",
"422 211 LINE",
"422 302 LINE",
"320 254 LINE",
"320 359 LINE",
"432 413 LINE",
"432 502 LINE",
"320 449 LINE",
"320 584 LINE",
"481 584 LINE",
"481 697 LINE",
"30 697 LINE",
"30 584 LINE"
);
}
);
width = 523;
}
);
leftKerningGroup = tugrik;
rightKerningGroup = tugrik;
unicode = 20AE;
},
{
color = 4;
glyphname = won;
lastChange = "2018-05-25 16:46:11 +0000";
layers = (
{
anchors = (
{
name = top;
position = "{466, 830}";
}
);
layerId = "B61D43DE-5272-4FF4-A680-608B6BF5ED9E";
paths = (
{
closed = 1;
nodes = (
"939 543 LINE",
"939 622 LINE",
"-7 622 LINE",
"-7 543 LINE"
);
},
{
closed = 1;
nodes = (
"939 375 LINE",
"939 453 LINE",
"-7 453 LINE",
"-7 375 LINE"
);
},
{
closed = 1;
nodes = (
"297 -18 LINE",
"483 460 LINE",
"450 460 LINE",
"639 -18 LINE",
"876 697 LINE",
"750 697 LINE",
"619 231 LINE",
"647 232 LINE",
"469 714 LINE",
"295 232 LINE",
"323 231 LINE",
"184 697 LINE",
"56 697 LINE"
);
}
);
width = 933;
}
);
leftKerningGroup = won;
rightKerningGroup = won;
unicode = 20A9;
userData = {
com.typemytype.robofont.guides = (
{
angle = 0;
isGlobal = 0;
magnetic = 5;
x = 0;
y = 615;
}
);
};
},
{
glyphname = yen;
lastChange = "2018-05-24 19:23:14 +0000";
layers = (
{
layerId = "B61D43DE-5272-4FF4-A680-608B6BF5ED9E";
paths = (
{
closed = 1;
nodes = (
"397 0 LINE",
"397 305 LINE",
"616 697 LINE",
"474 697 LINE",
"324 383 LINE",
"341 383 LINE",
"187 697 LINE",
"44 697 LINE",
"269 309 LINE",
"269 0 LINE"
);
},
{
closed = 1;
nodes = (
"551 302 LINE",
"551 380 LINE",
"105 380 LINE",
"105 302 LINE"
);
},
{
closed = 1;
nodes = (
"551 129 LINE",
"551 207 LINE",
"105 207 LINE",
"105 129 LINE"
);
}
);
width = 660;
}
);
leftKerningGroup = yen;
rightKerningGroup = yen;
unicode = 00A5;
userData = {
com.typemytype.robofont.mark = (
0.656,
1,
0.6,
1
);
};
},
{
glyphname = bulletoperator;
lastChange = "2018-05-24 19:23:14 +0000";
layers = (
{
layerId = "B61D43DE-5272-4FF4-A680-608B6BF5ED9E";
paths = (
{
closed = 1;
nodes = (
"220 280 OFFCURVE",
"261 305 OFFCURVE",
"261 377 CURVE SMOOTH",
"261 446 OFFCURVE",
"219 475 OFFCURVE",
"168 475 CURVE SMOOTH",
"119 475 OFFCURVE",
"77 446 OFFCURVE",
"77 377 CURVE SMOOTH",
"77 305 OFFCURVE",
"118 280 OFFCURVE",
"168 280 CURVE SMOOTH"
);
}
);
width = 338;
}
);
leftKerningGroup = uni2219;
rightKerningGroup = uni2219;
unicode = 2219;
userData = {
com.typemytype.robofont.mark = (
0.6,
0.609,
1,
1
);
};
},
{
glyphname = commercialMinusSign;
lastChange = "2018-05-24 19:23:14 +0000";
layers = (
{
layerId = "B61D43DE-5272-4FF4-A680-608B6BF5ED9E";
paths = (
{
closed = 1;
nodes = (
"399 0 LINE",
"601 697 LINE",
"503 697 LINE",
"301 0 LINE"
);
},
{
closed = 1;
nodes = (
"342 502 OFFCURVE",
"383 527 OFFCURVE",
"383 599 CURVE SMOOTH",
"383 668 OFFCURVE",
"341 697 OFFCURVE",
"290 697 CURVE SMOOTH",
"241 697 OFFCURVE",
"199 668 OFFCURVE",
"199 599 CURVE SMOOTH",
"199 527 OFFCURVE",
"240 502 OFFCURVE",
"290 502 CURVE SMOOTH"
);
},
{
closed = 1;
nodes = (
"658 0 OFFCURVE",
"699 25 OFFCURVE",
"699 97 CURVE SMOOTH",
"699 166 OFFCURVE",
"657 195 OFFCURVE",
"606 195 CURVE SMOOTH",
"557 195 OFFCURVE",
"515 166 OFFCURVE",
"515 97 CURVE SMOOTH",
"515 25 OFFCURVE",
"556 0 OFFCURVE",
"606 0 CURVE SMOOTH"
);
}
);
width = 833;
}
);
leftKerningGroup = uni2052;
rightKerningGroup = uni2052;
unicode = 2052;
userData = {
com.typemytype.robofont.mark = (
0.6,
0.609,
1,
1
);
};
},
{
glyphname = divisionslash;
lastChange = "2018-05-24 19:23:14 +0000";
layers = (
{
layerId = "B61D43DE-5272-4FF4-A680-608B6BF5ED9E";
paths = (
{
closed = 1;
nodes = (
"132 0 LINE",
"304 697 LINE",
"206 697 LINE",
"34 1 LINE"
);
}
);
width = 349;
}
);
leftKerningGroup = uni2215;
rightKerningGroup = uni2215;
unicode = 2215;
userData = {
com.typemytype.robofont.mark = (
0.656,
1,
0.6,
1
);
};
},
{
glyphname = plus;
lastChange = "2018-05-24 19:23:14 +0000";
layers = (
{
layerId = "B61D43DE-5272-4FF4-A680-608B6BF5ED9E";
paths = (
{
closed = 1;
nodes = (
"337 44 LINE",
"337 273 LINE",
"319 246 LINE",
"531 246 LINE",
"531 344 LINE",
"320 344 LINE",
"337 320 LINE",
"337 544 LINE",
"229 544 LINE",
"229 321 LINE",
"245 344 LINE",
"42 344 LINE",
"42 246 LINE",
"247 246 LINE",
"229 273 LINE",
"229 44 LINE"
);
}
);
width = 572;
}
);
leftKerningGroup = plus;
rightKerningGroup = plus;
unicode = 002B;
userData = {
com.typemytype.robofont.mark = (
0.656,
1,
0.6,
1
);
};
},
{
glyphname = minus;
lastChange = "2018-05-24 19:23:14 +0000";
layers = (
{
layerId = "B61D43DE-5272-4FF4-A680-608B6BF5ED9E";
paths = (
{
closed = 1;
nodes = (
"405 246 LINE",
"405 344 LINE",
"62 344 LINE",
"62 246 LINE"
);
}
);
width = 467;
}
);
leftKerningGroup = minus;
rightKerningGroup = minus;
unicode = 2212;
userData = {
com.typemytype.robofont.mark = (
0.656,
1,
0.6,
1
);
};
},
{
glyphname = multiply;
lastChange = "2018-05-24 19:23:14 +0000";
layers = (
{
layerId = "B61D43DE-5272-4FF4-A680-608B6BF5ED9E";
paths = (
{
closed = 1;
nodes = (
"153 79 LINE",
"305 241 LINE",
"273 236 LINE",
"427 78 LINE",
"497 147 LINE",
"343 304 LINE",
"338 274 LINE",
"487 433 LINE",
"411 509 LINE",
"262 351 LINE",
"290 355 LINE",
"139 509 LINE",
"69 440 LINE",
"220 285 LINE",
"228 317 LINE",
"76 155 LINE"
);
}
);
width = 585;
}
);
leftKerningGroup = multiply;
rightKerningGroup = multiply;
unicode = 00D7;
userData = {
com.typemytype.robofont.mark = (
0.656,
1,
0.6,
1
);
};
},
{
glyphname = divide;
lastChange = "2018-05-24 19:23:14 +0000";
layers = (
{
layerId = "B61D43DE-5272-4FF4-A680-608B6BF5ED9E";
paths = (
{
closed = 1;
nodes = (
"337 0 LINE",
"337 129 LINE",
"204 129 LINE",
"204 0 LINE"
);
},
{
closed = 1;
nodes = (
"513 246 LINE",
"513 344 LINE",
"29 344 LINE",
"29 246 LINE"
);
},
{
closed = 1;
nodes = (
"337 462 LINE",
"337 591 LINE",
"204 591 LINE",
"204 462 LINE"
);
}
);
width = 542;
}
);
leftKerningGroup = divide;
rightKerningGroup = divide;
unicode = 00F7;
userData = {
com.typemytype.robofont.mark = (
0.656,
1,
0.6,
1
);
};
},
{
glyphname = equal;
lastChange = "2018-05-24 19:23:14 +0000";
layers = (
{
layerId = "B61D43DE-5272-4FF4-A680-608B6BF5ED9E";
paths = (
{
closed = 1;
nodes = (
"483 114 LINE",
"483 212 LINE",
"59 212 LINE",
"59 114 LINE"
);
},
{
closed = 1;
nodes = (
"483 378 LINE",
"483 476 LINE",
"59 476 LINE",
"59 378 LINE"
);
}
);
width = 572;
}
);
leftKerningGroup = equal;
rightKerningGroup = equal;
unicode = 003D;
userData = {
com.typemytype.robofont.mark = (
0.656,
1,
0.6,
1
);
};
},
{
color = 4;
glyphname = notequal;
lastChange = "2018-05-25 16:48:28 +0000";
layers = (
{
components = (
{
name = equal;
}
);
layerId = "B61D43DE-5272-4FF4-A680-608B6BF5ED9E";
paths = (
{
closed = 1;
nodes = (
"217 0 LINE",
"412 599 LINE",
"320 599 LINE",
"124 0 LINE"
);
}
);
width = 572;
}
);
leftKerningGroup = notequal;
rightKerningGroup = notequal;
unicode = 2260;
userData = {
com.typemytype.robofont.mark = (
0.6,
0.986,
1,
1
);
};
},
{
glyphname = less;
lastChange = "2018-05-24 19:23:14 +0000";
layers = (
{
layerId = "B61D43DE-5272-4FF4-A680-608B6BF5ED9E";
paths = (
{
closed = 1;
nodes = (
"452 457 LINE",
"452 568 LINE",
"80 341 LINE",
"80 250 LINE",
"452 22 LINE",
"452 134 LINE",
"162 311 LINE",
"162 280 LINE"
);
}
);
width = 532;
}
);
leftKerningGroup = less;
rightKerningGroup = less;
unicode = 003C;
userData = {
com.typemytype.robofont.mark = (
0.656,
1,
0.6,
1
);
};
},
{
glyphname = lessequal;
lastChange = "2018-05-24 19:23:14 +0000";
layers = (
{
layerId = "B61D43DE-5272-4FF4-A680-608B6BF5ED9E";
paths = (
{
closed = 1;
nodes = (
"468 573 LINE",
"468 685 LINE",
"97 457 LINE",
"97 366 LINE",
"468 139 LINE",
"468 250 LINE",
"179 427 LINE",
"179 396 LINE"
);
},
{
closed = 1;
nodes = (
"491 93 LINE",
"80 93 LINE",
"80 0 LINE",
"491 0 LINE"
);
}
);
width = 571;
}
);
leftKerningGroup = lessequal;
rightKerningGroup = lessequal;
unicode = 2264;
userData = {
com.typemytype.robofont.mark = (
0.6,
0.986,
1,
1
);
};
},
{
glyphname = plusminus;
lastChange = "2018-05-24 19:23:14 +0000";
layers = (
{
layerId = "B61D43DE-5272-4FF4-A680-608B6BF5ED9E";
paths = (
{
closed = 1;
nodes = (
"337 165 LINE",
"337 394 LINE",
"319 366 LINE",
"531 366 LINE",
"531 464 LINE",
"320 464 LINE",
"337 441 LINE",
"337 665 LINE",
"229 665 LINE",
"229 442 LINE",
"245 464 LINE",
"42 464 LINE",
"42 366 LINE",
"247 366 LINE",
"229 394 LINE",
"229 165 LINE"
);
},
{
closed = 1;
nodes = (
"531 93 LINE",
"42 93 LINE",
"42 0 LINE",
"531 0 LINE"
);
}
);
width = 572;
}
);
leftKerningGroup = plusminus;
rightKerningGroup = plusminus;
unicode = 00B1;
userData = {
com.typemytype.robofont.mark = (
0.656,
1,
0.6,
1
);
};
},
{
glyphname = asciitilde;
lastChange = "2018-05-24 19:23:14 +0000";
layers = (
{
layerId = "B61D43DE-5272-4FF4-A680-608B6BF5ED9E";
paths = (
{
closed = 1;
nodes = (
"316 328 OFFCURVE",
"290 413 OFFCURVE",
"190 413 CURVE SMOOTH",
"113 413 OFFCURVE",
"35 346 OFFCURVE",
"24 279 CURVE",
"96 230 LINE",
"111 273 OFFCURVE",
"137 311 OFFCURVE",
"182 310 CURVE SMOOTH",
"255 309 OFFCURVE",
"288 225 OFFCURVE",
"385 225 CURVE SMOOTH",
"463 225 OFFCURVE",
"541 292 OFFCURVE",
"551 359 CURVE",
"479 407 LINE",
"464 365 OFFCURVE",
"439 327 OFFCURVE",
"394 328 CURVE"
);
}
);
width = 576;
}
);
leftKerningGroup = asciitilde;
rightKerningGroup = asciitilde;
unicode = 007E;
userData = {
com.typemytype.robofont.mark = (
0.656,
1,
0.6,
1
);
};
},
{
glyphname = logicalnot;
lastChange = "2018-05-24 19:23:14 +0000";
layers = (
{
layerId = "B61D43DE-5272-4FF4-A680-608B6BF5ED9E";
paths = (
{
closed = 1;
nodes = (
"491 71 LINE",
"491 246 LINE",
"392 321 LINE",
"392 71 LINE"
);
},
{
closed = 1;
nodes = (
"491 344 LINE",
"80 344 LINE",
"80 246 LINE",
"491 246 LINE"
);
}
);
width = 571;
}
);
leftKerningGroup = logicalnot;
rightKerningGroup = logicalnot;
unicode = 00AC;
userData = {
com.typemytype.robofont.mark = (
0.656,
1,
0.6,
1
);
};
},
{
glyphname = asciicircum;
lastChange = "2018-05-25 16:30:34 +0000";
layers = (
{
background = {
paths = (
{
closed = 1;
nodes = (
"268 697 LINE",
"200 697 LINE",
"12 144 LINE",
"125 144 LINE",
"242 529 LINE",
"224 529 LINE",
"346 144 LINE",
"458 144 LINE"
);
}
);
};
layerId = "B61D43DE-5272-4FF4-A680-608B6BF5ED9E";
paths = (
{
closed = 1;
nodes = (
"124 144 LINE",
"244 543 LINE",
"226 543 LINE",
"345 144 LINE",
"458 144 LINE",
"275 697 LINE",
"195 697 LINE",
"12 144 LINE"
);
}
);
width = 470;
}
);
leftKerningGroup = asciicircum;
rightKerningGroup = asciicircum;
unicode = 005E;
userData = {
com.typemytype.robofont.mark = (
0.656,
1,
0.6,
1
);
};
},
{
glyphname = infinity;
lastChange = "2018-05-25 16:28:49 +0000";
layers = (
{
layerId = "B61D43DE-5272-4FF4-A680-608B6BF5ED9E";
paths = (
{
closed = 1;
nodes = (
"353 96 OFFCURVE",
"405 158 OFFCURVE",
"441 224 CURVE",
"473 177 OFFCURVE",
"529 96 OFFCURVE",
"620 96 CURVE SMOOTH",
"748 96 OFFCURVE",
"831 187 OFFCURVE",
"831 325 CURVE SMOOTH",
"831 427 OFFCURVE",
"780 550 OFFCURVE",
"633 550 CURVE SMOOTH",
"539 550 OFFCURVE",
"482 488 OFFCURVE",
"444 420 CURVE",
"413 469 OFFCURVE",
"357 550 OFFCURVE",
"264 550 CURVE SMOOTH",
"138 550 OFFCURVE",
"54 459 OFFCURVE",
"54 322 CURVE SMOOTH",
"54 220 OFFCURVE",
"109 96 OFFCURVE",
"256 96 CURVE SMOOTH"
);
},
{
closed = 1;
nodes = (
"525 407 OFFCURVE",
"572 451 OFFCURVE",
"624 451 CURVE SMOOTH",
"675 451 OFFCURVE",
"723 419 OFFCURVE",
"723 322 CURVE SMOOTH",
"723 229 OFFCURVE",
"680 196 OFFCURVE",
"629 196 CURVE SMOOTH",
"570 196 OFFCURVE",
"521 290 OFFCURVE",
"490 346 CURVE"
);
},
{
closed = 1;
nodes = (
"210 196 OFFCURVE",
"161 227 OFFCURVE",
"161 324 CURVE SMOOTH",
"161 417 OFFCURVE",
"209 450 OFFCURVE",
"261 450 CURVE SMOOTH",
"319 450 OFFCURVE",
"364 356 OFFCURVE",
"395 300 CURVE",
"359 240 OFFCURVE",
"311 196 OFFCURVE",
"261 196 CURVE SMOOTH"
);
}
);
width = 884;
}
);
leftKerningGroup = infinity;
rightKerningGroup = infinity;
unicode = 221E;
userData = {
com.typemytype.robofont.mark = (
1,
0.741,
0.6,
1
);
};
},
{
glyphname = emptyset;
lastChange = "2018-05-25 16:29:52 +0000";
layers = (
{
layerId = "B61D43DE-5272-4FF4-A680-608B6BF5ED9E";
paths = (
{
closed = 1;
nodes = (
"89 167 OFFCURVE",
"230 27 OFFCURVE",
"405 27 CURVE SMOOTH",
"583 27 OFFCURVE",
"720 167 OFFCURVE",
"720 349 CURVE SMOOTH",
"720 531 OFFCURVE",
"583 671 OFFCURVE",
"405 671 CURVE SMOOTH",
"227 671 OFFCURVE",
"89 531 OFFCURVE",
"89 349 CURVE SMOOTH"
);
},
{
closed = 1;
nodes = (
"201 466 OFFCURVE",
"284 566 OFFCURVE",
"405 566 CURVE SMOOTH",
"526 566 OFFCURVE",
"609 466 OFFCURVE",
"609 349 CURVE SMOOTH",
"609 232 OFFCURVE",
"526 132 OFFCURVE",
"405 132 CURVE SMOOTH",
"284 132 OFFCURVE",
"201 232 OFFCURVE",
"201 349 CURVE SMOOTH"
);
},
{
closed = 1;
nodes = (
"175 0 LINE",
"723 697 LINE",
"623 697 LINE",
"75 1 LINE"
);
}
);
width = 810;
}
);
leftKerningGroup = emptyset;
rightKerningGroup = emptyset;
unicode = 2205;
userData = {
com.typemytype.robofont.mark = (
0.967,
0.6,
1,
1
);
};
},
